<?xml version="1.0" encoding="utf-8"?>
<!-- Generator: Adobe Illustrator 25.4.0, SVG Export Plug-In . SVG Version: 6.00 Build 0)  -->
<svg version="1.0" id="Calque_1" xmlns="http://www.w3.org/2000/svg" xmlns:xlink="http://www.w3.org/1999/xlink" x="0px" y="0px"
	 viewBox="0 0 232 46.9" style="enable-background:new 0 0 232 46.9;" xml:space="preserve">
<style type="text/css">
	.st0{fill:none;}
	.st1{fill:#ED1C24;}
</style>
<rect x="-77.2" y="-62.7" class="st0" width="386.5" height="170.4"/>
<g>
	<path class="st1" d="M167.1-18.3v-0.2C167.1-18.4,167.1-18.4,167.1-18.3"/>
	<g>
		<path class="st1" d="M195.6,13.8c-7.9,0-14.3,6.1-14.9,13.8c-0.6-7.7-7.1-13.8-14.9-13.8c-8.1,0-14.7,6.5-15,14.5l0-19.1
			c0,0,0-1.1,0-1.1v-1l0-1.6c0,0,0-0.7,0-1v0.3c0-1-0.8-1.8-1.8-1.8H146c-1,0-1.8,0.8-1.8,1.8V4.5c0,0,0,1.1,0,1.1l0,10.8l-0.6-0.4
			c-4.2-2.6-9.6-3-14.4-0.7c-4.2,2-7.2,6-8.1,10.5c-1.4-7-7.8-12.3-15.3-12c-3.7,0.1-7,1.7-9.6,4.1c-2.9-2.9-6.8-4.5-11.3-4.1
			c-2.6,0.2-5,1.4-7.1,3.1v-1.1c0-0.9-0.7-1.6-1.6-1.6h-3.3c-0.9,0-1.6,0.7-1.6,1.6v17.9h0v8.5c0,0.9,0.7,1.6,1.6,1.6h3.3
			c0.9,0,1.6-0.7,1.6-1.6l0.1-13.7c0-4.5,3.2-7.8,7.4-8.2c2.8-0.3,5.5,0.8,7.2,2.8c-0.7,1.7-1.2,3.7-1.2,5.6
			c-0.1,7.7,5.7,14.2,13.3,15l0.5,0l0.4,0c0.4,0,0.9,0,1.4,0c0.2,0,0.3,0,0.5,0c3.9-0.1,7.2-1.2,9.7-3.3c0,0,0.1-0.1,0.1-0.1l1.1-1
			c0.6-0.5,0.4-1.4-0.2-1.8l-4-2.2c-0.4-0.2-0.9-0.3-1.4,0.1l-0.7,0.4c-1.3,0.8-2.9,1.2-4.6,1.3l-0.4,0c-0.8,0-1.5-0.1-2.2-0.2
			c-2.5-0.5-4.6-2.1-5.9-4.4l-0.5-1.1l22.6,0c1.3,6.9,7.4,12.2,14.7,12.2c8.2,0,14.9-6.6,15-14.8c0.1,8.2,6.8,14.8,15,14.8
			c7.9,0,14.3-6.1,14.9-13.8c0.6,7.7,7.1,13.8,14.9,13.8c8.3,0,15-6.7,15-15C210.6,20.6,203.9,13.8,195.6,13.8z M98.5,25.8
			L98.5,25.8c1.3-3.3,4.4-5.4,7.9-5.4c3.5,0,6.5,2.1,7.8,5.3l0,0.1L98.5,25.8z M135.7,37.3c-4.7,0-8.5-3.9-8.4-8.6
			c0.1-4.5,3.8-8.2,8.3-8.3c4.7-0.1,8.6,3.7,8.6,8.4C144.2,33.5,140.4,37.3,135.7,37.3z M165.7,37.3c-4.7,0-8.4-3.8-8.4-8.4
			c0-4.7,3.8-8.4,8.4-8.4c4.6,0,8.4,3.8,8.4,8.4C174.1,33.5,170.4,37.3,165.7,37.3z M195.6,37.3c-4.7,0-8.4-3.8-8.4-8.4
			c0-4.7,3.8-8.4,8.4-8.4c4.7,0,8.4,3.8,8.4,8.4C204,33.5,200.3,37.3,195.6,37.3z"/>
		<path class="st1" d="M56.3,13.8c-8,0-14.5,6.2-15,14.1c-0.5-7.8-7-14.1-14.9-14.1c-8.3,0-15,6.7-15,15c0,8.3,6.7,15,15,15
			c8,0,14.5-6.2,14.9-14.1c0.5,7.8,7,14.1,15,14.1c8.3,0,15-6.7,15-15C71.3,20.6,64.6,13.8,56.3,13.8 M26.4,37.3
			c-4.7,0-8.4-3.8-8.4-8.4c0-4.7,3.8-8.4,8.4-8.4c4.7,0,8.4,3.8,8.4,8.4C34.8,33.5,31,37.3,26.4,37.3 M56.3,37.3
			c-4.7,0-8.4-3.8-8.4-8.4c0-4.7,3.8-8.4,8.4-8.4c4.6,0,8.4,3.8,8.4,8.4C64.7,33.5,60.9,37.3,56.3,37.3"/>
		<path class="st1" d="M215.2,6.3c-3,0-5.4,2.4-5.4,5.4c0,3,2.4,5.5,5.4,5.5c3,0,5.4-2.4,5.4-5.5C220.6,8.7,218.2,6.3,215.2,6.3"/>
	</g>
</g>
</svg>
