<?xml version="1.0" encoding="utf-8"?>
<!-- Generator: Adobe Illustrator 25.4.0, SVG Export Plug-In . SVG Version: 6.00 Build 0)  -->
<svg version="1.0" id="Calque_1" xmlns="http://www.w3.org/2000/svg" xmlns:xlink="http://www.w3.org/1999/xlink" x="0px" y="0px"
	 viewBox="0 0 114 118" style="enable-background:new 0 0 114 118;" xml:space="preserve">
<style type="text/css">
	.st0{fill:none;}
	.st1{fill:#ED1C24;}
</style>
<g>
	<path class="st0" d="M108.9,37.7c0,14.1,0,28.3,0,42.4c-0.4-0.8-1-1.5-1.6-2.2c-4.6-4.6-9.1-9.1-13.7-13.7
		c-0.3-0.3-0.6-0.6-0.9-0.8c-1.3-1-3.1-1.1-4.4-0.2c-1.4,1-2,2.6-1.6,4.3c0.2,0.9,0.8,1.5,1.5,2.2c2.3,2.3,4.5,4.5,6.8,6.8
		c0.3,0.3,0.6,0.5,0.7,0.9c-0.2,0-0.4,0.1-0.5,0.1c-6.8,0-13.6,0.1-20.4,0c-2.9,0-5.6-0.9-8.1-2.2c-1.3-0.7-2.5-1.7-3.7-2.6
		c-1.7-1.2-3.9-1-5.1,0.5c-1.4,1.6-1.2,3.8,0.3,5.3c0.7,0.6,1.4,1.2,2.1,1.7c4.7,3.4,10,5,15.8,4.9c6.2,0,12.4,0,18.6,0
		c0.4,0,0.7-0.1,1.1,0.1c-0.1,0.4-0.4,0.6-0.7,0.9c-2.3,2.3-4.6,4.6-6.9,6.9c-0.4,0.4-0.8,0.8-1,1.2c-0.9,1.5-0.7,3.4,0.6,4.7
		c0.7,0.7,1.5,0.9,2.4,1.2c-28.3,0-56.7,0-85,0c0-5.9,0-11.8,0-17.7C5.8,84,7,85,8.8,85c7.8,0,15.7,0,23.5,0c2.4,0,4.8-0.6,7.1-1.4
		c4.3-1.5,8-4,11-7.4c2.6-2.9,4.4-6.3,5.5-10c0.8-2.7,1-5.5,1.1-8.3c0.2-4.1,1.7-7.7,4.3-10.8c3.5-4,7.9-6.3,13.3-6.4
		c6.8-0.1,13.5,0,20.3,0c0.2,0,0.5-0.1,0.6,0.2c-0.1,0.3-0.4,0.5-0.7,0.8c-2.3,2.3-4.6,4.6-6.9,6.9c-0.3,0.3-0.7,0.7-0.9,1.1
		c-1,1.5-0.9,3.5,0.4,4.8c1.2,1.3,3.2,1.6,4.7,0.6c0.5-0.3,0.9-0.7,1.3-1.1c4.6-4.6,9.1-9.1,13.7-13.7
		C108,39.3,108.6,38.6,108.9,37.7z"/>
	<path class="st0" d="M5,80.1C5,66,5,51.8,5,37.7c0.8,2.1,2.3,2.9,4.4,2.9c0.3,0,0.7,0,1,0c7,0,14,0,21,0c3.2,0,6.2,0.9,9,2.5
		c1.1,0.7,2.1,1.5,3.1,2.3c1.7,1.2,4,0.9,5.2-0.6c1.3-1.6,1.1-3.9-0.5-5.4c-0.7-0.6-1.4-1.1-2.1-1.6c-4.6-3.3-9.8-4.9-15.5-4.9
		c-7.1-0.1-14.2,0-21.3,0c-2.1,0-3.6,0.9-4.3,2.8C5,29.8,5,23.9,5,18c28.4,0,56.8,0,85.2,0c-0.3,0.2-0.6,0.1-0.9,0.2
		c-1.3,0.4-2.2,1.2-2.6,2.5c-0.5,1.6,0,2.9,1.1,4c2.4,2.4,4.8,4.8,7.2,7.3c0.2,0.2,0.6,0.4,0.6,0.8c-0.4,0.1-0.9,0.1-1.3,0.1
		c-6.8,0.1-13.7-0.2-20.5,0.1c-2.2,0.1-4.4,0.5-6.5,1.2c-6.2,2.1-11,5.9-14.4,11.6c-2,3.4-3.2,7-3.5,10.9c-0.2,1.6-0.1,3.2-0.3,4.9
		c-1,6.3-4.3,10.9-9.8,13.9c-2.7,1.5-5.6,2.1-8.7,2.1c-7.1,0-14.2,0-21.3,0C7.3,77.4,5.9,78.2,5,80.1z"/>
	<g>
		<path class="st1" d="M109.6,35.4c-0.4-1.1-1.2-2-1.9-2.7c-4.4-4.4-8.8-8.7-13.1-13.1c-1.1-1.1-2.3-2.1-4.1-2.3l-0.4,0l-0.2,0.1
			c0,0-0.1,0-0.2,0c-0.2,0-0.3,0-0.5,0.1c-1.6,0.5-2.6,1.5-3.1,3c-0.6,1.7-0.1,3.3,1.3,4.7c1.2,1.2,2.5,2.5,3.7,3.7
			c1,1,2.1,2.1,3.1,3.1c-2.5,0-5,0-7.5,0c-4.2,0-8.5,0-12.8,0.1c-2.2,0.1-4.5,0.5-6.7,1.2c-6.4,2.1-11.4,6.1-14.8,11.9
			c-2,3.4-3.2,7.2-3.6,11.2c-0.1,0.7-0.1,1.3-0.1,2c0,1-0.1,1.9-0.2,2.8c-0.9,6-4.1,10.4-9.4,13.3c-2.4,1.3-5.2,2-8.3,2
			c-7,0-14.2,0-21.3,0c0,0,0,0-0.1,0c-2.5,0-4.1,1-5.1,3.2l-0.1,0.1l0,2.5l0.1,0.1c0.9,2.1,2.4,3.1,4.5,3.1l4.3,0c1.6,0,3.2,0,4.8,0
			c4.8,0,9.6,0,14.4-0.1c2.3,0,4.7-0.5,7.4-1.4c4.5-1.6,8.3-4.1,11.3-7.6c2.6-2.9,4.5-6.4,5.7-10.3c0.8-2.8,1-5.6,1.2-8.4l0-0.1
			c0.2-3.9,1.6-7.4,4.1-10.4c3.4-4,7.7-6.1,12.7-6.2c4.8-0.1,9.7-0.1,14.5-0.1c1.6,0,3.3,0,4.9,0c-1.1,1.1-2.2,2.2-3.3,3.3l-3.2,3.3
			c-0.4,0.4-0.7,0.7-1,1.2c-1.2,1.7-1,4.1,0.4,5.7c1.5,1.6,3.8,1.9,5.7,0.7c0.6-0.3,1-0.8,1.5-1.2l1.7-1.7c4-4,8-8,12.1-12
			c0.9-0.9,1.4-1.7,1.8-2.6l0.1-0.1v-2.3L109.6,35.4z"/>
		<path class="st1" d="M107.9,77.4c-2.9-2.9-5.9-5.8-8.8-8.8l-5-5c-0.3-0.3-0.5-0.5-0.9-0.8c-1.6-1.2-3.7-1.3-5.2-0.2
			c-1.7,1.1-2.4,3.1-1.9,5.1c0.3,1.1,1,1.8,1.6,2.5l2.8,2.8c1.2,1.2,2.5,2.5,3.7,3.7c-1.6,0-3.1,0-4.7,0c-4.8,0-9.8,0-14.6,0
			c-2.6,0-5.2-0.8-7.8-2.1c-0.9-0.5-1.8-1.2-2.7-1.8c-0.3-0.2-0.6-0.5-1-0.7c-2-1.4-4.6-1.1-6.1,0.7c-1.6,1.9-1.5,4.6,0.4,6.3
			c0.6,0.6,1.4,1.2,2.2,1.8c4.8,3.4,10.3,5.1,16.2,5.1c4.9,0,9.7,0,14.6,0l3.5,0c-2.2,2.2-4.4,4.4-6.6,6.6c-0.4,0.4-0.8,0.8-1.1,1.4
			c-1.1,1.8-0.8,4,0.7,5.6c0.8,0.8,1.8,1.1,2.7,1.4l0.3-0.7l0,0l-0.2,0.7l0.7,0l0.1,0c1.7-0.3,2.9-1.3,3.8-2.2
			c4.2-4.3,8.6-8.6,12.8-12.8l0.7-0.6c0.8-0.8,1.4-1.6,1.8-2.4l0.1-0.2v-2.6l-0.1-0.1C109.2,79,108.7,78.2,107.9,77.4z"/>
		<path class="st1" d="M4.3,37.9c0.8,2.3,2.5,3.4,5.1,3.4c0.2,0,0.4,0,0.7,0l6.2,0c5.1,0,10.1,0,15.2,0c3,0,5.8,0.8,8.6,2.4
			c0.7,0.4,1.3,0.9,2,1.4c0.4,0.3,0.7,0.6,1.1,0.8c0.9,0.6,1.8,0.9,2.8,0.9c1.3,0,2.6-0.6,3.4-1.6c1.6-2,1.3-4.7-0.6-6.4
			c-0.6-0.6-1.3-1.1-2.1-1.7c-4.6-3.3-10-5-15.9-5.1c-5.1,0-10.2,0-15.2,0c-2,0-4.1,0-6.1,0c-2.5,0-4.2,1.1-5,3.3l0,0.1l0,2.2
			L4.3,37.9z"/>
	</g>
	<path class="st0" d="M90.5,100c1.4-0.2,2.4-1,3.4-2c4.5-4.5,9-9,13.5-13.5c0.7-0.7,1.2-1.3,1.6-2.2c0,5.9,0,11.8,0,17.7
		C102.8,100,96.6,100,90.5,100z"/>
	<path class="st0" d="M108.9,35.6c-0.4-1-1-1.7-1.8-2.5c-4.4-4.4-8.8-8.7-13.1-13.1c-1-1-2.1-1.9-3.6-2.1c6.2,0,12.3,0,18.5,0
		C108.9,23.9,108.9,29.8,108.9,35.6z"/>
</g>
</svg>
