<?xml version="1.0" encoding="utf-8"?>
<!-- Generator: Adobe Illustrator 25.4.0, SVG Export Plug-In . SVG Version: 6.00 Build 0)  -->
<svg version="1.0" id="Calque_1" xmlns="http://www.w3.org/2000/svg" xmlns:xlink="http://www.w3.org/1999/xlink" x="0px" y="0px"
	 viewBox="0 0 114 118" style="enable-background:new 0 0 114 118;" xml:space="preserve">
<style type="text/css">
	.st0{fill:#ED1C24;}
</style>
<g>
	<path class="st0" d="M90.3,103.3c0-5,0-9.9,0-14.9c0-7.4,0-14.8,0-22.2c0-1.9-0.5-3.8-1.8-5.3c-1.3-1.5-3-2.4-5-2.7
		c-1.4-0.2-2.8-0.1-4.1,0.5c-0.5,0.2-0.8,0.1-1.1-0.3c-2.6-2.7-5.7-3.5-9.2-2.1c-0.4,0.2-0.7,0-0.9-0.3c-1.2-1.4-2.7-2.3-4.5-2.7
		c-1.1-0.2-2.3-0.3-3.4,0c-0.3,0.1-0.7,0.2-0.7-0.4c0-1.1-0.1-2.1-0.1-3.2c0.1-2.4,0-3.4,0-5.8c0-2.2,0.1-4.4,0-6.5
		c-0.1-1.1-0.3-2.1-0.9-3c-1.6-2.6-3.9-4.1-7.1-4c-3.1,0-6,2.2-7,4.8C44,36.7,44,38.1,44,39.6c0,9.6,0,17.7,0,27.3
		c0,0.5-0.1,0.9-0.6,1.2c-2.1,1.6-4.3,3.3-6.4,4.9c-0.6,0.5-1.1,1.1-1.2,1.9c-0.2,1.1-0.1,2.1-0.1,3.2c0,1.4-0.1,2.7,0,4.1
		c0.1,1.2,0.1,2.5,0,3.7c-0.1,1.8,0.1,3.5,1.1,5.1c2.4,3.9,4.7,7.7,7,11.6l3.5,4.9c0.5,0.9,1.4,1.4,2.5,1.4h0v0c6.9,0,13.4,0,20.4,0
		c0,0,0,0,0,0c5.6,0,11.3,0,16.9,0l0,0l0,0c0,0,0,0,0,0v0c1.8,0,3.2-1.4,3.3-3.1l0,0v-2.4C90.3,103.4,90.3,103.4,90.3,103.3z
		 M51.6,103.5c-0.6,0-1-0.2-1.3-0.8c-1.7-2.8-3.4-5.6-5.1-8.4c-1.3-2.1-2.5-4.2-3.8-6.3c-0.2-0.3-0.2-0.6-0.2-0.9c0-3.3,0-6.5,0-9.8
		c0-0.5,0.1-0.8,0.6-1.1c0.7-0.5,1.4-1.1,2.1-1.6c0.2,0.2,0.1,0.5,0.1,0.7c0,1.8,0,3.6,0,5.3c0,1.4,1.1,2.7,2.7,2.7
		c1.5,0,2.7-1.3,2.7-2.7c0-14,0-26.4,0-40.4c0-0.9-0.1-1.8,0.1-2.7c0.3-1.2,1.4-2,2.4-1.8c1.4,0.2,2.3,1.2,2.3,2.5
		c0,3.4,0,5.4,0,8.8c0,7.7,0,15.3,0,23c0,1.4,0.9,2.5,2.2,2.8c1.1,0.2,2.4-0.5,3-1.7c0.1-0.2,0.1-0.5,0.1-0.7c0.1-1.9,0-3.7,0-5.6
		c0-1.3,0.1-2.7,0-4c0-1.1,0.6-1.9,1.5-2.2c1.3-0.3,2.5,0.1,3,1c0.2,0.4,0.2,0.7,0.2,1.1c0,3.9,0,7.7,0,11.6c0,1.3,1.2,2.7,2.8,2.8
		c1.1,0.1,2.6-1.2,2.7-2.3c0-0.6,0.1-1.2,0.1-1.8c0-2.5,0-4.9,0-7.4c0-1,0.2-1.9,1.3-2.3c0.9-0.4,2.2-0.1,2.9,0.5
		c0.4,0.4,0.5,0.8,0.5,1.3c0,3.3,0,6.6,0,9.9c0,1.1,0.5,2,1.4,2.6c1.4,0.9,3.5,0.1,3.9-1.5c0.2-0.8,0.3-1.6,0.2-2.4
		c-0.1-1.2-0.1-2.4,0-3.6c0.1-0.8-0.1-1.5-0.1-2.2c0-1.2,0.4-1.9,1.3-2.2c1.2-0.4,2.4-0.1,3.1,0.8c0.3,0.3,0.3,0.7,0.3,1.1
		c0,7.4,0,14.8,0,22.1c0,4.9,0,9.8,0,14.7c0,1,0,1-1,1C73,103.5,62.3,103.5,51.6,103.5z M79.9,37c0.1,2.7-0.3,5.1-1,7.5
		c-0.8,3-2.1,5.7-3.8,8.2c-0.7,1-2,1.4-3,1c-1.3-0.5-2-1.5-1.9-2.8c0-0.6,0.3-1.1,0.6-1.6c1.5-2.4,2.6-4.9,3.1-7.7
		c0.5-2.7,0.6-5.5,0.2-8.2c-0.5-3-1.6-5.9-3.2-8.4c-1.6-2.5-3.6-4.7-6.1-6.4c-1.9-1.3-3.9-2.4-6.1-3c-1.5-0.5-3.1-0.9-4.8-1
		c-1.5-0.1-2.9-0.2-4.4,0c-2,0.3-4,0.7-6,1.4c-4.7,1.9-8.5,5-11.1,9.4c-0.9,1.6-1.8,3.2-2.3,4.9c-0.5,1.7-0.8,3.4-1,5.2
		c-0.1,1.4-0.1,2.8,0.1,4.2c0.2,2.2,0.8,4.3,1.7,6.3c1.1,2.6,2.7,4.9,4.7,7c1.2,1.3,2.6,2.3,4.1,3.3c1,0.6,1.5,1.5,1.4,2.7
		c-0.1,1.2-0.9,1.9-2,2.3c-0.8,0.3-1.6,0.1-2.2-0.3c-3-1.9-5.6-4.2-7.7-7c-2-2.6-3.5-5.5-4.4-8.7c-0.5-1.7-0.8-3.5-1-5.2
		c-0.4-2.4-0.2-4.8,0.1-7.1c0.5-3.5,1.6-6.8,3.5-9.9c2.3-3.9,5.4-7.1,9.2-9.6c2.8-1.8,5.9-3.1,9.2-3.9c2.8-0.7,5.7-0.8,8.6-0.5
		c4.8,0.4,9.3,2.1,13.3,4.9c4.4,3.1,7.7,7.1,9.9,11.9c0.9,2,1.5,4,1.9,6.2C79.7,33.8,80,35.4,79.9,37z M70,37.3
		c-0.1,2.8-0.8,5.5-2,8c-0.5,0.9-2.1,1.7-3.5,1c-1.2-0.6-1.9-1.9-1.5-3.2c0.4-1.2,1-2.4,1.2-3.7c0.3-1.6,0.3-3.2,0-4.8
		c-0.3-1.7-1-3.3-2-4.7c-1.7-2.5-4.1-4.1-7-4.8c-3.6-0.9-6.9-0.3-10,1.7c-2.2,1.5-3.8,3.5-4.7,6c-1.2,3.2-1.1,6.3,0.3,9.4
		c0.3,0.7,0.7,1.5,0.7,2.4c-0.1,1.2-0.8,2.2-2.1,2.5c-1,0.3-2.3-0.3-2.8-1.2c-1.7-3.2-2.5-6.5-2.2-10.1c0.3-3.9,1.8-7.3,4.2-10.3
		c2.2-2.6,5-4.4,8.3-5.5c2.3-0.7,4.6-1,6.9-0.7c2,0.2,3.9,0.7,5.8,1.6c2.9,1.3,5.2,3.3,7,5.8c1.4,1.9,2.4,4.1,2.9,6.4
		C69.8,34.5,70,35.9,70,37.3z"/>
</g>
</svg>
