<?xml version="1.0" encoding="utf-8"?>
<!-- Generator: Adobe Illustrator 16.0.0, SVG Export Plug-In . SVG Version: 6.00 Build 0)  -->
<!DOCTYPE svg PUBLIC "-//W3C//DTD SVG 1.1//EN" "http://www.w3.org/Graphics/SVG/1.1/DTD/svg11.dtd">
<svg version="1.1" id="Layer_1" xmlns="http://www.w3.org/2000/svg" xmlns:xlink="http://www.w3.org/1999/xlink" x="0px" y="0px"
	 width="175.5px" height="53px" viewBox="0 0 175.5 53" enable-background="new 0 0 175.5 53" xml:space="preserve">
<g>
	<g>
		<g>
			<g>
				<g>
					<defs>
						<path id="SVGID_1_" d="M1.041,27.76c0,9.973,8.085,18.061,18.06,18.061c9.973,0,18.059-8.088,18.059-18.061
							S29.075,9.701,19.101,9.701C9.125,9.701,1.041,17.786,1.041,27.76"/>
					</defs>
					<clipPath id="SVGID_2_">
						<use xlink:href="#SVGID_1_"  overflow="visible"/>
					</clipPath>
					
						<linearGradient id="SVGID_3_" gradientUnits="userSpaceOnUse" x1="-1286.313" y1="-57.3984" x2="-1285.8291" y2="-57.3984" gradientTransform="matrix(0 -74.8353 -74.8353 0 -4276.3105 -96215.6406)">
						<stop  offset="0" style="stop-color:#E30613"/>
						<stop  offset="0.1446" style="stop-color:#E30613"/>
						<stop  offset="0.2757" style="stop-color:#DB0813"/>
						<stop  offset="0.4738" style="stop-color:#C70D14"/>
						<stop  offset="0.7133" style="stop-color:#A51615"/>
						<stop  offset="0.7805" style="stop-color:#9A1915"/>
						<stop  offset="1" style="stop-color:#9A1915"/>
					</linearGradient>
					<rect x="1.041" y="9.701" clip-path="url(#SVGID_2_)" fill="url(#SVGID_3_)" width="36.119" height="36.119"/>
				</g>
			</g>
		</g>
	</g>
</g>
<g>
	<path fill="#FFFFFF" d="M9.522,23.486l0.055-0.011l0.15-0.772l-0.151-0.704l0.913-1.41l2.739-0.588l-1.148,1.777l0.683,1.012
		l1.174-0.25l2.74-0.588l2.728-0.587l2.74-0.588l2.729-0.585l2.739-0.588l1.771-0.381l-0.381-1.77l-0.249-1.159l-1.579,0.339
		l-2.729,0.586l-2.743,0.588l-2.726,0.586l-2.739,0.588l-2.729,0.586l-2.739,0.588l-1.876,0.402l0.402,1.877L9.522,23.486z
		 M26.892,17.067l1.584-0.338l0.248,1.158l-0.83,1.283l-2.741,0.587L26.892,17.067z M21.427,18.243l2.738-0.588l-1.739,2.688
		l-2.739,0.588L21.427,18.243z M15.957,19.415l2.739-0.588l-1.738,2.689l-2.74,0.588L15.957,19.415z"/>
	<path fill="#FFFFFF" d="M27.054,24.083H24.25h-2.79h-2.8h-2.792h-1.807l0.366,0.365h1.075l-0.61,0.609
		c0.041,0.112,0.064,0.232,0.064,0.355c0,0.592-0.472,1.063-1.053,1.063h-0.43l-0.236,0.237h-2.801l0.235-0.237h-0.228
		c-0.581,0-1.053-0.471-1.053-1.053V24.97l-0.208,0.207v-0.729H9.39v-0.365H8.815v1.46v1.534h1.255h2.802h2.791h2.802h2.788h2.802
		h2.791h2.283v-2.282v-0.712H27.054z M18.829,26.713h-2.802l2.265-2.265h2.804L18.829,26.713z M24.423,26.713h-2.802l2.263-2.265
		h2.802L24.423,26.713z M28.765,26.713h-1.553l1.553-1.554V26.713z"/>
	<path fill="#FFFFFF" d="M10.472,21.294h-0.029c-0.38,0-0.688,0.309-0.688,0.688v3.441c0,0.38,0.307,0.688,0.688,0.688h3.461
		c0.38,0,0.687-0.308,0.687-0.688v-0.009c0-0.183-0.072-0.356-0.201-0.485l-3.432-3.433C10.829,21.367,10.653,21.294,10.472,21.294
		 M10.496,25.856c-0.292,0-0.527-0.236-0.527-0.527s0.236-0.527,0.527-0.527s0.526,0.236,0.526,0.527S10.787,25.856,10.496,25.856
		 M13.756,24.802c0.292,0,0.527,0.236,0.527,0.527s-0.236,0.527-0.527,0.527c-0.29,0-0.527-0.236-0.527-0.527
		S13.466,24.802,13.756,24.802 M10.496,22.606c-0.292,0-0.527-0.236-0.527-0.528c0-0.291,0.236-0.526,0.527-0.526
		s0.526,0.235,0.526,0.526C11.021,22.37,10.787,22.606,10.496,22.606"/>
	<path fill="#FFFFFF" d="M9.39,27.436v11.069c0,0.396,0.321,0.72,0.718,0.72h17.731c0.396,0,0.719-0.322,0.719-0.72V27.436H9.39z
		 M18.249,33.788l-4.037,2.344c-0.381,0.222-0.858-0.055-0.858-0.491V31.02c0-0.437,0.471-0.711,0.852-0.498l4.037,2.278
		C18.626,33.016,18.632,33.566,18.249,33.788 M21.596,35.532c0,0.274-0.224,0.5-0.498,0.5H20.16c-0.275,0-0.5-0.226-0.5-0.5v-4.453
		c0-0.274,0.225-0.498,0.5-0.498h0.938c0.274,0,0.498,0.224,0.498,0.498V35.532z M24.592,35.532c0,0.274-0.223,0.5-0.498,0.5h-0.94
		c-0.273,0-0.5-0.226-0.5-0.5v-4.453c0-0.274,0.227-0.498,0.5-0.498h0.94c0.275,0,0.498,0.224,0.498,0.498V35.532z"/>
</g>
<g>
	<g>
		<g>
			<g>
				<g>
					<defs>
						<path id="SVGID_4_" d="M74.094,17.937l-0.914,2.501c-0.028,0.082-0.028,0.175,0,0.257c0.431,1.191,0.551,1.48,1.004,2.633
							h-1.737c-0.211,0-0.402,0.127-0.479,0.322l-0.558,1.373c-0.14,0.34,0.11,0.711,0.479,0.711h3.258
							c0.271,0.67,0.541,1.286,0.796,1.881c0.161,0.381,0.487,0.561,0.813,0.561h1.646c0.325,0,0.704-0.197,0.522-0.633
							l-4.134-9.625c-0.063-0.152-0.202-0.229-0.344-0.229C74.301,17.688,74.152,17.772,74.094,17.937"/>
					</defs>
					<clipPath id="SVGID_5_">
						<use xlink:href="#SVGID_4_"  overflow="visible"/>
					</clipPath>
					
						<linearGradient id="SVGID_6_" gradientUnits="userSpaceOnUse" x1="-1220.5962" y1="5.9951" x2="-1220.0964" y2="5.9951" gradientTransform="matrix(0 23.3429 23.3429 0 -64.7485 28508.2148)">
						<stop  offset="0" style="stop-color:#E30613"/>
						<stop  offset="0.1446" style="stop-color:#E30613"/>
						<stop  offset="0.2757" style="stop-color:#DB0813"/>
						<stop  offset="0.4738" style="stop-color:#C70D14"/>
						<stop  offset="0.7133" style="stop-color:#A51615"/>
						<stop  offset="0.7805" style="stop-color:#9A1915"/>
						<stop  offset="1" style="stop-color:#9A1915"/>
					</linearGradient>
					<rect x="71.269" y="17.688" clip-path="url(#SVGID_5_)" fill="url(#SVGID_6_)" width="7.836" height="10.486"/>
				</g>
			</g>
		</g>
	</g>
</g>
<g>
	<g>
		<g>
			<g>
				<g>
					<defs>
						<path id="SVGID_7_" d="M48.234,19.601c0.452,1.266,0.94,2.533,1.411,3.727h-2.822C47.311,22.114,47.763,20.921,48.234,19.601
							 M46.949,16.146l-4.884,11.396c-0.181,0.437,0.198,0.633,0.524,0.633h1.574c0.398,0,0.723-0.18,0.886-0.562
							c0.271-0.649,0.543-1.265,0.796-1.88h4.759c0.271,0.67,0.542,1.285,0.796,1.88c0.162,0.382,0.488,0.562,0.813,0.562h1.646
							c0.326,0,0.706-0.196,0.524-0.633l-4.866-11.396c-0.235-0.561-0.778-0.851-1.284-0.851
							C47.601,15.295,47.13,15.711,46.949,16.146"/>
					</defs>
					<clipPath id="SVGID_8_">
						<use xlink:href="#SVGID_7_"  overflow="visible"/>
					</clipPath>
					
						<linearGradient id="SVGID_9_" gradientUnits="userSpaceOnUse" x1="-1220.5962" y1="7.3213" x2="-1220.0964" y2="7.3213" gradientTransform="matrix(0 23.3429 23.3429 0 -122.6704 28508.2148)">
						<stop  offset="0" style="stop-color:#E30613"/>
						<stop  offset="0.1446" style="stop-color:#E30613"/>
						<stop  offset="0.2757" style="stop-color:#DB0813"/>
						<stop  offset="0.4738" style="stop-color:#C70D14"/>
						<stop  offset="0.7133" style="stop-color:#A51615"/>
						<stop  offset="0.7805" style="stop-color:#9A1915"/>
						<stop  offset="1" style="stop-color:#9A1915"/>
					</linearGradient>
					<rect x="41.884" y="15.295" clip-path="url(#SVGID_8_)" fill="url(#SVGID_9_)" width="12.682" height="12.88"/>
				</g>
			</g>
		</g>
	</g>
</g>
<g>
	<g>
		<g>
			<g>
				<g>
					<defs>
						<path id="SVGID_10_" d="M55.067,18.644v8.917c0,0.34,0.276,0.614,0.615,0.614h1.7c0.362,0,0.598-0.233,0.598-0.614
							l-0.066-5.622c-0.004-0.287-0.101-0.564-0.275-0.793l-2.051-2.678c-0.061-0.079-0.145-0.114-0.228-0.114
							C55.212,18.354,55.067,18.466,55.067,18.644"/>
					</defs>
					<clipPath id="SVGID_11_">
						<use xlink:href="#SVGID_10_"  overflow="visible"/>
					</clipPath>
					
						<linearGradient id="SVGID_12_" gradientUnits="userSpaceOnUse" x1="-1220.5957" y1="6.8799" x2="-1220.0966" y2="6.8799" gradientTransform="matrix(0 23.3429 23.3429 0 -104.061 28508.2148)">
						<stop  offset="0" style="stop-color:#E30613"/>
						<stop  offset="0.1446" style="stop-color:#E30613"/>
						<stop  offset="0.2757" style="stop-color:#DB0813"/>
						<stop  offset="0.4738" style="stop-color:#C70D14"/>
						<stop  offset="0.7133" style="stop-color:#A51615"/>
						<stop  offset="0.7805" style="stop-color:#9A1915"/>
						<stop  offset="1" style="stop-color:#9A1915"/>
					</linearGradient>
					<rect x="55.067" y="18.354" clip-path="url(#SVGID_11_)" fill="url(#SVGID_12_)" width="2.913" height="9.821"/>
				</g>
			</g>
		</g>
	</g>
</g>
<path fill="#1E1E1E" d="M59.066,14.767c0-0.208,0.043-0.411,0.127-0.606c0.085-0.196,0.202-0.368,0.353-0.519
	s0.319-0.268,0.509-0.353c0.188-0.085,0.395-0.128,0.616-0.128c0.209,0,0.411,0.043,0.606,0.128c0.196,0.085,0.369,0.202,0.52,0.353
	c0.149,0.15,0.267,0.322,0.352,0.519c0.085,0.195,0.128,0.398,0.128,0.606c0,0.223-0.043,0.428-0.128,0.617
	c-0.085,0.189-0.202,0.357-0.352,0.508c-0.15,0.15-0.323,0.268-0.52,0.354c-0.195,0.084-0.397,0.127-0.606,0.127
	c-0.222,0-0.428-0.043-0.616-0.127c-0.189-0.086-0.358-0.203-0.509-0.354s-0.268-0.318-0.353-0.508
	C59.109,15.194,59.066,14.989,59.066,14.767"/>
<path fill="#1E1E1E" d="M73.997,11.989c-0.224-0.156-0.457-0.236-0.705-0.236c-0.221,0-0.403,0.072-0.547,0.215
	c-0.146,0.145-0.217,0.328-0.217,0.55s0.071,0.407,0.217,0.558c0.144,0.15,0.326,0.225,0.547,0.225h1.058
	c0.209,0,0.365,0.065,0.472,0.196c0.104,0.13,0.155,0.261,0.155,0.391c0,0.157-0.053,0.298-0.155,0.421
	c-0.104,0.125-0.263,0.187-0.472,0.187h-3.092c-0.183,0-0.33-0.062-0.438-0.187c-0.111-0.123-0.166-0.264-0.166-0.421
	c0-0.13,0.055-0.261,0.166-0.391c0.108-0.131,0.258-0.196,0.438-0.196h0.334c-0.117-0.144-0.188-0.294-0.218-0.449
	c-0.024-0.157-0.039-0.287-0.039-0.393c0-0.534,0.187-0.979,0.56-1.331c0.371-0.353,0.832-0.528,1.379-0.528
	c0.263,0,0.517,0.047,0.765,0.137c0.248,0.092,0.463,0.229,0.646,0.411c0.129,0.131,0.193,0.269,0.193,0.412
	c0,0.183-0.059,0.319-0.176,0.409c-0.117,0.093-0.248,0.138-0.393,0.138C74.193,12.105,74.09,12.066,73.997,11.989"/>
<path fill="#1E1E1E" d="M72.772,19.601l1.035-2.781c0.268-0.723-0.25-1.516-1.02-1.524h-0.015c-0.633,0-1.104,0.416-1.285,0.851
	l-4.883,11.396c-0.182,0.436,0.197,0.633,0.523,0.633h1.574c0.396,0,0.723-0.18,0.887-0.561c0.271-0.65,0.543-1.266,0.795-1.881
	l0.979-2.406C71.851,22.114,72.303,20.921,72.772,19.601"/>
<path fill="#1E1E1E" d="M65.922,16.96c0-0.797-0.67-1.447-1.466-1.447s-1.447,0.65-1.447,1.447l0.054,5.979l-7.718-10.111
	l0.004,0.006c-0.416-0.634-1.267-0.811-1.9-0.395c-0.633,0.416-0.81,1.267-0.394,1.9l2.012,2.656l2.841,3.709l5.192,6.838
	c0.416,0.543,0.741,0.633,1.085,0.633h1.176c0.362,0,0.579-0.271,0.579-0.577L65.922,16.96z"/>
<g>
	<g>
		<g>
			<g>
				<g>
					<defs>
						<path id="SVGID_13_" d="M44.144,31.939h-0.018c-0.765,0-1.405,0.463-1.405,1.388v10.278c0,0.371,0.23,0.604,0.604,0.604h1.673
							c0.355,0,0.587-0.23,0.587-0.604v-3.933h3.823c0.782,0,1.423-0.553,1.423-1.334c0-0.78-0.641-1.334-1.423-1.334h-3.823v-2.397
							h4.623c0.782,0,1.423-0.553,1.423-1.334c0-0.78-0.641-1.334-1.423-1.334H44.144z"/>
					</defs>
					<clipPath id="SVGID_14_">
						<use xlink:href="#SVGID_13_"  overflow="visible"/>
					</clipPath>
					
						<linearGradient id="SVGID_15_" gradientUnits="userSpaceOnUse" x1="-1219.9053" y1="3.6606" x2="-1219.4055" y2="3.6606" gradientTransform="matrix(0 23.3429 23.3429 0 -38.2642 28508.2148)">
						<stop  offset="0" style="stop-color:#E30613"/>
						<stop  offset="0.1446" style="stop-color:#E30613"/>
						<stop  offset="0.2757" style="stop-color:#DB0813"/>
						<stop  offset="0.4738" style="stop-color:#C70D14"/>
						<stop  offset="0.7133" style="stop-color:#A51615"/>
						<stop  offset="0.7805" style="stop-color:#9A1915"/>
						<stop  offset="1" style="stop-color:#9A1915"/>
					</linearGradient>
					<rect x="42.721" y="31.939" clip-path="url(#SVGID_14_)" fill="url(#SVGID_15_)" width="8.909" height="12.271"/>
				</g>
			</g>
		</g>
	</g>
</g>
<g>
	<g>
		<g>
			<g>
				<g>
					<defs>
						<path id="SVGID_16_" d="M53.102,33.188v9.938c0,0.674,0.551,1.084,1.191,1.084h5.939c0.835,0,1.404-0.586,1.404-1.299
							c0-0.711-0.569-1.279-1.404-1.279h-4.268v-8.444c0-0.782-0.658-1.424-1.441-1.424C53.742,31.764,53.102,32.402,53.102,33.188"
							/>
					</defs>
					<clipPath id="SVGID_17_">
						<use xlink:href="#SVGID_16_"  overflow="visible"/>
					</clipPath>
					
						<linearGradient id="SVGID_18_" gradientUnits="userSpaceOnUse" x1="-1219.9053" y1="3.2188" x2="-1219.4055" y2="3.2188" gradientTransform="matrix(0 23.3429 23.3429 0 -17.7485 28508.2148)">
						<stop  offset="0" style="stop-color:#E30613"/>
						<stop  offset="0.1446" style="stop-color:#E30613"/>
						<stop  offset="0.2757" style="stop-color:#DB0813"/>
						<stop  offset="0.4738" style="stop-color:#C70D14"/>
						<stop  offset="0.7133" style="stop-color:#A51615"/>
						<stop  offset="0.7805" style="stop-color:#9A1915"/>
						<stop  offset="1" style="stop-color:#9A1915"/>
					</linearGradient>
					<rect x="53.102" y="31.764" clip-path="url(#SVGID_17_)" fill="url(#SVGID_18_)" width="8.535" height="12.446"/>
				</g>
			</g>
		</g>
	</g>
</g>
<g>
	<g>
		<g>
			<g>
				<g>
					<defs>
						<path id="SVGID_19_" d="M63.297,33.188v10.42c0,0.371,0.232,0.604,0.605,0.604h1.671c0.356,0,0.587-0.231,0.587-0.604v-10.42
							c0-0.782-0.657-1.424-1.44-1.424C63.938,31.764,63.297,32.402,63.297,33.188"/>
					</defs>
					<clipPath id="SVGID_20_">
						<use xlink:href="#SVGID_19_"  overflow="visible"/>
					</clipPath>
					
						<linearGradient id="SVGID_21_" gradientUnits="userSpaceOnUse" x1="-1219.9053" y1="2.8916" x2="-1219.4055" y2="2.8916" gradientTransform="matrix(0 23.3429 23.3429 0 -2.7485 28508.2148)">
						<stop  offset="0" style="stop-color:#E30613"/>
						<stop  offset="0.1446" style="stop-color:#E30613"/>
						<stop  offset="0.2757" style="stop-color:#DB0813"/>
						<stop  offset="0.4738" style="stop-color:#C70D14"/>
						<stop  offset="0.7133" style="stop-color:#A51615"/>
						<stop  offset="0.7805" style="stop-color:#9A1915"/>
						<stop  offset="1" style="stop-color:#9A1915"/>
					</linearGradient>
					<rect x="63.297" y="31.764" clip-path="url(#SVGID_20_)" fill="url(#SVGID_21_)" width="2.863" height="12.446"/>
				</g>
			</g>
		</g>
	</g>
</g>
<g>
	<g>
		<g>
			<g>
				<g>
					<defs>
						<path id="SVGID_22_" d="M75.359,32.368l-2.366,3.129l-2.383-3.129c-0.357-0.466-0.802-0.604-1.191-0.604
							c-0.836,0-1.44,0.657-1.44,1.424c0,0.442,0.16,0.767,0.354,1.015l2.812,3.717l-3.06,4.037
							c-0.196,0.248-0.354,0.565-0.354,1.014c0,0.767,0.604,1.425,1.438,1.425c0.394,0,0.837-0.146,1.191-0.604l2.633-3.451
							l2.612,3.447c0.354,0.463,0.802,0.604,1.191,0.604c0.836,0,1.438-0.658,1.438-1.425c0-0.442-0.158-0.766-0.354-1.014
							l-3.06-4.037l2.812-3.72c0.194-0.245,0.354-0.565,0.354-1.012c0-0.767-0.604-1.424-1.44-1.424
							C76.158,31.764,75.715,31.902,75.359,32.368"/>
					</defs>
					<clipPath id="SVGID_23_">
						<use xlink:href="#SVGID_22_"  overflow="visible"/>
					</clipPath>
					
						<linearGradient id="SVGID_24_" gradientUnits="userSpaceOnUse" x1="-1219.9053" y1="2.4985" x2="-1219.4038" y2="2.4985" gradientTransform="matrix(0 23.3429 23.3429 0 14.6577 28508.2148)">
						<stop  offset="0" style="stop-color:#E30613"/>
						<stop  offset="0.1446" style="stop-color:#E30613"/>
						<stop  offset="0.2757" style="stop-color:#DB0813"/>
						<stop  offset="0.4738" style="stop-color:#C70D14"/>
						<stop  offset="0.7133" style="stop-color:#A51615"/>
						<stop  offset="0.7805" style="stop-color:#9A1915"/>
						<stop  offset="1" style="stop-color:#9A1915"/>
					</linearGradient>
					<rect x="67.729" y="31.764" clip-path="url(#SVGID_23_)" fill="url(#SVGID_24_)" width="10.508" height="12.625"/>
				</g>
			</g>
		</g>
	</g>
</g>
<g>
	<path fill="#2273A0" d="M120.021,18.845l3.781-11.302l-3.055,0.094l-6.413,15.626c13.679-3.526,20.58,7.266,20.58,7.266
		C130.619,19.896,120.021,18.845,120.021,18.845"/>
	<path fill="#185684" d="M113.527,23.97l4.719-11.524l-1.678,0.164l-6.651,14.833c13.511-5.389,22.067,0.711,22.067,0.711
		C124.082,20.477,113.527,23.97,113.527,23.97"/>
	<path fill="#2D9AD4" d="M125.863,3.518l-4.947,14.776c0,0,11.383,1.995,14.889,13.293l0.018-16.317
		C135.82,15.27,135.076,7.746,125.863,3.518"/>
	<path fill="#F08134" d="M149.689,3.362l-13.174,11.923l0.303,16.316l19.777-13.554L149.689,3.362z M137.553,15.581l11.621-10.506
		l5.176,11.486l-16.513,11.376L137.553,15.581z M147.857,23.329l-1.607,1.087c-0.412,0.256-0.984,0.336-1.159-0.06
		c-0.217-0.352-0.104-0.854,0.195-1.048l1.63-1.048c0.3-0.193,0.79-0.123,1.096,0.158C148.209,22.667,148.25,23.06,147.857,23.329"
		/>
	<path fill="#185684" d="M101.906,43.568c0.035-0.277,0.08-0.547,0.139-0.801c0.059-0.256,0.133-0.492,0.219-0.716
		c0.088-0.219,0.184-0.407,0.287-0.563c0.105-0.157,0.221-0.271,0.35-0.341c0.127-0.058,0.291-0.115,0.494-0.183
		c0.205-0.063,0.395-0.085,0.576-0.069c0.18,0.02,0.313,0.101,0.407,0.244c0.093,0.147,0.087,0.399-0.017,0.756
		c-0.047,0.199-0.088,0.445-0.123,0.738c-0.034,0.299-0.057,0.617-0.061,0.959c-0.007,0.344,0.004,0.686,0.025,1.027
		c0.023,0.341,0.066,0.659,0.131,0.945c0.063,0.293,0.148,0.537,0.262,0.742c0.108,0.199,0.246,0.334,0.407,0.391
		c0.337,0.115,0.626,0.104,0.869-0.033c0.245-0.143,0.471-0.354,0.678-0.646c0.082-0.127,0.183-0.234,0.298-0.321
		c0.116-0.089,0.211-0.123,0.286-0.113c0.076,0.013,0.114,0.086,0.114,0.228c0,0.14-0.075,0.371-0.227,0.694
		c-0.162,0.339-0.369,0.634-0.619,0.89c-0.248,0.256-0.527,0.453-0.834,0.601c-0.309,0.146-0.635,0.229-0.981,0.253
		c-0.347,0.021-0.696-0.029-1.045-0.156c-0.347-0.117-0.632-0.281-0.853-0.498c-0.221-0.215-0.392-0.498-0.512-0.859
		c-0.123-0.36-0.205-0.799-0.246-1.315C101.891,44.902,101.883,44.287,101.906,43.568 M102.688,37.354
		c0.129-0.252,0.322-0.41,0.584-0.467c0.26-0.059,0.515-0.051,0.766,0.018c0.249,0.07,0.464,0.19,0.645,0.359
		c0.18,0.168,0.252,0.358,0.219,0.582c-0.049,0.268-0.195,0.494-0.445,0.687c-0.248,0.19-0.623,0.262-1.123,0.219
		c-0.139-0.015-0.264-0.063-0.373-0.155c-0.109-0.094-0.197-0.207-0.27-0.341c-0.069-0.136-0.106-0.282-0.114-0.444
		C102.568,37.646,102.605,37.496,102.688,37.354"/>
	<path fill="#185684" d="M121.077,49.52c-1.138-0.097-2.03-0.566-2.679-1.418c-0.65-0.854-1.096-1.981-1.34-3.386
		c-0.093-0.498-0.154-1.008-0.182-1.53c-0.029-0.522-0.051-1.043-0.063-1.556c-0.01-0.519-0.019-1.028-0.019-1.532
		c0-0.505-0.004-0.994-0.017-1.472c-0.348,0.048-0.649,0.288-0.904,0.726c-0.256,0.435-0.475,0.965-0.652,1.601
		c-0.18,0.631-0.328,1.313-0.443,2.051c-0.115,0.739-0.219,1.433-0.305,2.089c-0.088,0.657-0.158,1.223-0.217,1.704
		c-0.06,0.481-0.117,0.774-0.176,0.876c-0.068,0.167-0.186,0.293-0.348,0.387c-0.162,0.092-0.34,0.146-0.529,0.164
		c-0.191,0.019-0.383,0-0.576-0.052c-0.191-0.055-0.345-0.144-0.46-0.271c-0.278-0.301-0.493-0.707-0.644-1.211
		c-0.151-0.504-0.238-1.013-0.26-1.523c-0.048-1.227-0.139-2.482-0.271-3.764c-0.134-1.281-0.335-2.514-0.603-3.697
		c-0.08,0.061-0.164,0.12-0.252,0.182c-0.086,0.063-0.172,0.157-0.261,0.281c-0.087,0.119-0.181,0.282-0.276,0.479
		c-0.101,0.195-0.203,0.453-0.306,0.766c-0.081,0.243-0.157,0.579-0.226,1.01c-0.069,0.43-0.131,0.902-0.184,1.426
		c-0.054,0.522-0.099,1.064-0.14,1.637c-0.039,0.566-0.076,1.107-0.104,1.623c-0.027,0.519-0.051,0.981-0.068,1.396
		c-0.018,0.41-0.032,0.728-0.043,0.944c-0.014,0.175-0.104,0.316-0.271,0.427s-0.361,0.171-0.582,0.185
		c-0.22,0.012-0.441-0.031-0.66-0.125c-0.221-0.091-0.383-0.25-0.486-0.468c-0.164-0.325-0.27-0.688-0.313-1.09
		c-0.048-0.397-0.063-0.81-0.045-1.224c0.02-0.418,0.059-0.83,0.121-1.237c0.063-0.405,0.125-0.786,0.186-1.146
		c0.045-0.313,0.113-0.717,0.207-1.213c0.094-0.49,0.211-1.009,0.357-1.545c0.145-0.542,0.321-1.068,0.531-1.592
		c0.206-0.523,0.457-0.975,0.746-1.35c0.291-0.377,0.629-0.646,1.018-0.812c0.389-0.163,0.827-0.153,1.313,0.021
		c0.314,0.115,0.58,0.371,0.801,0.766c0.223,0.396,0.4,0.871,0.54,1.426c0.14,0.557,0.247,1.162,0.321,1.819
		c0.076,0.655,0.134,1.295,0.166,1.922c0.035,0.626,0.057,1.204,0.062,1.739c0.005,0.531,0.015,0.955,0.026,1.27
		c0.093-0.242,0.199-0.576,0.32-0.998c0.123-0.425,0.264-0.897,0.418-1.412c0.155-0.517,0.332-1.051,0.522-1.601
		c0.19-0.551,0.401-1.08,0.633-1.583c0.231-0.505,0.483-0.958,0.749-1.365c0.268-0.406,0.553-0.714,0.854-0.921
		c0.302-0.212,0.623-0.301,0.967-0.271c0.341,0.029,0.703,0.222,1.087,0.582c0.256,0.242,0.465,0.634,0.635,1.175
		c0.168,0.542,0.313,1.149,0.437,1.834c0.121,0.687,0.229,1.403,0.32,2.157c0.094,0.752,0.188,1.461,0.286,2.121
		c0.101,0.662,0.206,1.24,0.324,1.731c0.114,0.496,0.265,0.829,0.452,1c0.277,0.279,0.544,0.456,0.8,0.531
		c0.257,0.077,0.481,0.12,0.679,0.133c0.198,0.01,0.368,0.017,0.512,0.017c0.146,0,0.248,0.065,0.306,0.19
		c0.046,0.106,0.032,0.222-0.044,0.34c-0.073,0.124-0.193,0.232-0.355,0.332c-0.164,0.099-0.367,0.181-0.609,0.243
		C121.616,49.52,121.354,49.538,121.077,49.52"/>
	<path fill="#185684" d="M125.93,40.768c-0.033,0.15-0.135,0.275-0.297,0.373c-0.162,0.101-0.347,0.201-0.554,0.307
		c-0.211,0.103-0.425,0.22-0.646,0.346c-0.222,0.13-0.408,0.296-0.559,0.506c-0.229,0.336-0.395,0.738-0.486,1.199
		c-0.093,0.466-0.136,0.906-0.131,1.33c0.004,0.423,0.059,0.791,0.156,1.097c0.1,0.31,0.225,0.464,0.374,0.464
		c0.188,0,0.381-0.089,0.583-0.264c0.202-0.173,0.385-0.374,0.548-0.6c0.162-0.226,0.297-0.455,0.399-0.697
		c0.104-0.236,0.156-0.42,0.156-0.546c0-0.13-0.007-0.304-0.019-0.531c-0.013-0.226-0.011-0.448,0.01-0.669
		c0.019-0.221,0.052-0.412,0.104-0.575c0.051-0.161,0.141-0.249,0.269-0.26c0.127-0.015,0.281-0.04,0.46-0.088
		c0.182-0.045,0.354-0.052,0.514-0.021c0.162,0.038,0.295,0.15,0.391,0.344c0.102,0.188,0.138,0.517,0.113,0.98
		c-0.033,0.939,0.014,1.648,0.139,2.13c0.13,0.484,0.381,0.765,0.751,0.845c0.255,0.049,0.483-0.014,0.687-0.184
		c0.203-0.169,0.385-0.354,0.547-0.564c0.162-0.207,0.302-0.396,0.418-0.564c0.115-0.168,0.209-0.232,0.281-0.2
		c0.079,0.035,0.107,0.181,0.084,0.435c-0.021,0.258-0.107,0.543-0.26,0.863c-0.15,0.316-0.373,0.635-0.67,0.954
		c-0.295,0.32-0.675,0.567-1.139,0.741c-0.245,0.092-0.471,0.139-0.68,0.139s-0.397-0.029-0.565-0.089
		c-0.167-0.057-0.315-0.138-0.442-0.243c-0.13-0.104-0.246-0.221-0.348-0.348c-0.23-0.289-0.419-0.648-0.559-1.078
		c-0.115,0.279-0.277,0.523-0.484,0.73c-0.178,0.187-0.403,0.356-0.68,0.514c-0.279,0.156-0.621,0.245-1.027,0.268
		c-0.407,0.017-0.787-0.114-1.148-0.381c-0.357-0.265-0.645-0.625-0.859-1.08c-0.215-0.449-0.332-0.976-0.348-1.572
		c-0.018-0.598,0.113-1.226,0.391-1.887c0.187-0.431,0.431-0.795,0.73-1.099c0.303-0.302,0.622-0.547,0.967-0.74
		c0.342-0.188,0.686-0.329,1.025-0.419c0.342-0.083,0.648-0.134,0.922-0.146c0.271-0.012,0.492,0.012,0.661,0.063
		S125.954,40.675,125.93,40.768"/>
	<path fill="#185684" d="M134.368,41.971c0.069-0.779,0.129-1.51,0.173-2.195c0.037-0.59,0.064-1.176,0.089-1.754
		c0.021-0.582,0.021-1.021,0-1.326c-0.022-0.288,0.044-0.555,0.2-0.799c0.154-0.242,0.34-0.453,0.549-0.627
		c0.208-0.175,0.417-0.307,0.624-0.399c0.21-0.093,0.358-0.138,0.451-0.138c0.095,0,0.149,0.229,0.167,0.692
		c0.02,0.466,0.02,1.065,0,1.804c-0.018,0.735-0.04,1.566-0.068,2.494c-0.029,0.93-0.037,1.862-0.027,2.805
		c0.014,0.865,0.063,1.574,0.156,2.121c0.094,0.543,0.213,0.972,0.357,1.277c0.145,0.309,0.301,0.524,0.461,0.654
		c0.162,0.127,0.318,0.211,0.471,0.252c0.148,0.04,0.276,0.066,0.383,0.078c0.104,0.014,0.174,0.052,0.207,0.121
		c0.049,0.104,0.01,0.236-0.11,0.398c-0.124,0.166-0.304,0.305-0.541,0.418c-0.238,0.117-0.519,0.178-0.843,0.184
		c-0.325,0.007-0.668-0.09-1.024-0.285c-0.304-0.163-0.53-0.382-0.681-0.655c-0.149-0.271-0.256-0.54-0.313-0.81
		c-0.069-0.299-0.101-0.614-0.086-0.938c-0.258,0.464-0.558,0.868-0.905,1.22c-0.15,0.148-0.318,0.293-0.506,0.435
		c-0.183,0.14-0.387,0.259-0.607,0.362c-0.219,0.104-0.459,0.188-0.713,0.244c-0.256,0.062-0.527,0.078-0.818,0.056
		c-0.313-0.023-0.596-0.151-0.844-0.377c-0.25-0.226-0.459-0.511-0.627-0.854c-0.168-0.34-0.289-0.724-0.365-1.146
		c-0.072-0.422-0.1-0.848-0.078-1.271c0.023-0.423,0.104-0.829,0.245-1.218c0.14-0.389,0.341-0.725,0.608-0.999
		c0.197-0.196,0.405-0.347,0.627-0.453c0.219-0.104,0.442-0.173,0.668-0.2c0.227-0.027,0.455-0.027,0.68,0
		c0.227,0.027,0.438,0.074,0.635,0.131C133.421,41.41,133.891,41.641,134.368,41.971 M131.654,43.532
		c-0.105,0.278-0.174,0.571-0.202,0.877c-0.026,0.309-0.034,0.59-0.017,0.845c0.017,0.255,0.053,0.473,0.111,0.646
		c0.061,0.17,0.129,0.267,0.21,0.275c0.162,0.049,0.333,0.014,0.513-0.105c0.181-0.113,0.42-0.351,0.722-0.709
		c0.139-0.187,0.282-0.412,0.428-0.678c0.144-0.27,0.267-0.531,0.366-0.783c0.098-0.256,0.158-0.483,0.181-0.678
		c0.022-0.199-0.004-0.314-0.087-0.349c-0.093-0.035-0.24-0.069-0.443-0.104c-0.203-0.037-0.418-0.039-0.646-0.02
		c-0.226,0.023-0.444,0.091-0.66,0.203C131.917,43.061,131.758,43.253,131.654,43.532"/>
	<path fill="#185684" d="M138.439,41.324c-0.129-0.071-0.244-0.108-0.349-0.12c-0.104-0.015-0.2-0.021-0.289-0.021
		c-0.086,0-0.161-0.009-0.225-0.026c-0.062-0.019-0.119-0.072-0.167-0.164c-0.032-0.082,0.021-0.193,0.167-0.332
		c0.146-0.138,0.339-0.255,0.583-0.349c0.244-0.093,0.515-0.127,0.818-0.11c0.301,0.017,0.592,0.137,0.867,0.354
		c0.242,0.211,0.442,0.409,0.602,0.601c0.156,0.192,0.279,0.362,0.373,0.514c0.104,0.174,0.181,0.343,0.226,0.506
		c0.327-0.313,0.663-0.575,1.011-0.784c0.303-0.183,0.639-0.338,1.012-0.451c0.369-0.117,0.738-0.123,1.111-0.018
		c0.092,0.034,0.137,0.107,0.131,0.215c-0.006,0.11-0.054,0.232-0.14,0.357c-0.089,0.131-0.207,0.249-0.356,0.367
		c-0.151,0.113-0.33,0.195-0.539,0.244c-0.404,0.094-0.728,0.266-0.967,0.521c-0.236,0.255-0.42,0.551-0.545,0.895
		c-0.13,0.343-0.209,0.709-0.244,1.098c-0.037,0.387-0.054,0.764-0.054,1.124c0.013,0.754-0.093,1.312-0.313,1.678
		c-0.219,0.363-0.514,0.56-0.887,0.58c-0.43,0.022-0.748-0.173-0.957-0.592c-0.209-0.416-0.313-1.124-0.313-2.12
		c0.011-0.628,0.02-1.173,0.02-1.637c0-0.463-0.02-0.854-0.054-1.176c-0.035-0.317-0.094-0.57-0.174-0.756
		C138.705,41.54,138.588,41.404,138.439,41.324"/>
	<path fill="#185684" d="M149.275,40.768c-0.035,0.15-0.135,0.275-0.297,0.373c-0.162,0.101-0.346,0.201-0.556,0.307
		c-0.21,0.103-0.425,0.22-0.646,0.346c-0.221,0.13-0.405,0.296-0.557,0.506c-0.23,0.336-0.393,0.738-0.486,1.199
		c-0.094,0.466-0.139,0.906-0.131,1.33c0.008,0.425,0.058,0.791,0.155,1.097c0.101,0.31,0.226,0.464,0.375,0.464
		c0.187,0,0.38-0.089,0.58-0.264c0.204-0.173,0.388-0.374,0.552-0.6c0.16-0.226,0.293-0.455,0.399-0.697
		c0.103-0.236,0.155-0.42,0.155-0.546c0-0.13-0.008-0.304-0.02-0.531c-0.011-0.226-0.007-0.448,0.01-0.669
		c0.02-0.221,0.053-0.412,0.104-0.575c0.054-0.161,0.143-0.249,0.271-0.26c0.129-0.015,0.279-0.04,0.461-0.088
		c0.181-0.045,0.35-0.052,0.514-0.021c0.162,0.038,0.292,0.15,0.391,0.344c0.1,0.188,0.137,0.517,0.114,0.98
		c-0.036,0.939,0.011,1.648,0.14,2.13c0.127,0.484,0.375,0.765,0.746,0.845c0.256,0.049,0.483-0.014,0.688-0.184
		c0.205-0.169,0.387-0.354,0.548-0.564c0.161-0.207,0.302-0.396,0.418-0.564c0.118-0.168,0.209-0.232,0.28-0.2
		c0.08,0.035,0.107,0.181,0.086,0.435c-0.022,0.258-0.11,0.543-0.26,0.863c-0.152,0.316-0.375,0.635-0.67,0.954
		c-0.298,0.32-0.676,0.567-1.141,0.741c-0.243,0.092-0.468,0.139-0.678,0.139c-0.209,0-0.397-0.029-0.565-0.089
		c-0.168-0.057-0.315-0.138-0.444-0.243c-0.127-0.104-0.242-0.221-0.347-0.348c-0.231-0.289-0.418-0.648-0.558-1.078
		c-0.116,0.279-0.277,0.523-0.485,0.73c-0.177,0.187-0.399,0.356-0.68,0.514s-0.619,0.245-1.026,0.268
		c-0.406,0.017-0.787-0.114-1.148-0.381c-0.358-0.265-0.646-0.625-0.86-1.08c-0.213-0.449-0.329-0.976-0.347-1.572
		c-0.02-0.598,0.111-1.226,0.392-1.887c0.185-0.431,0.429-0.795,0.729-1.099c0.303-0.302,0.625-0.547,0.965-0.74
		c0.344-0.188,0.687-0.329,1.027-0.419c0.342-0.083,0.647-0.134,0.92-0.146c0.275-0.012,0.496,0.012,0.666,0.063
		C149.227,40.602,149.299,40.675,149.275,40.768"/>
	<path fill="#185684" d="M157.244,39.652c0.046,0.094,0.039,0.166-0.02,0.217c-0.059,0.054-0.142,0.104-0.25,0.16
		c-0.111,0.051-0.238,0.113-0.377,0.188c-0.139,0.076-0.271,0.184-0.398,0.323c-0.129,0.14-0.233,0.317-0.321,0.539
		s-0.131,0.499-0.131,0.835c-0.013,0.336,0.063,0.66,0.233,0.977c0.168,0.313,0.377,0.614,0.617,0.912
		c0.246,0.295,0.512,0.586,0.803,0.868c0.287,0.286,0.549,0.574,0.781,0.871c0.231,0.295,0.416,0.599,0.549,0.903
		c0.133,0.31,0.176,0.623,0.131,0.947c-0.061,0.325-0.241,0.602-0.549,0.825c-0.308,0.226-0.683,0.4-1.123,0.522
		c-0.44,0.119-0.914,0.186-1.426,0.199c-0.51,0.013-0.988-0.031-1.435-0.131c-0.447-0.099-0.833-0.252-1.157-0.461
		c-0.324-0.207-0.527-0.476-0.609-0.799c-0.127-0.476-0.164-0.877-0.113-1.203c0.054-0.322,0.146-0.594,0.289-0.807
		c0.14-0.219,0.297-0.382,0.468-0.504c0.176-0.125,0.325-0.217,0.454-0.29c0.266-0.147,0.443-0.147,0.529,0
		c0.086,0.153,0.033,0.391-0.164,0.715c-0.096,0.163-0.116,0.345-0.069,0.545c0.045,0.204,0.153,0.397,0.319,0.576
		c0.172,0.179,0.385,0.336,0.646,0.462c0.26,0.13,0.557,0.198,0.896,0.206c0.205,0.013,0.418-0.008,0.633-0.062
		c0.216-0.049,0.393-0.131,0.529-0.242c0.142-0.108,0.226-0.242,0.256-0.398c0.025-0.156-0.032-0.334-0.186-0.531
		c-0.15-0.193-0.41-0.445-0.781-0.748c-0.373-0.3-0.75-0.633-1.139-0.998c-0.388-0.367-0.73-0.754-1.025-1.168
		c-0.297-0.41-0.442-0.824-0.442-1.242c0-0.822,0.146-1.428,0.442-1.812c0.295-0.382,0.774-0.631,1.437-0.749
		c0.323-0.057,0.59-0.085,0.8-0.076c0.207,0.006,0.373,0.031,0.496,0.076c0.121,0.051,0.211,0.104,0.268,0.165
		C157.163,39.534,157.208,39.598,157.244,39.652"/>
	<path fill="#185684" d="M163.35,39.652c0.047,0.094,0.041,0.166-0.019,0.217c-0.06,0.054-0.144,0.104-0.252,0.16
		c-0.108,0.051-0.235,0.113-0.376,0.188c-0.139,0.076-0.271,0.184-0.398,0.323c-0.129,0.14-0.236,0.317-0.322,0.539
		c-0.088,0.222-0.131,0.499-0.131,0.835c-0.013,0.336,0.067,0.66,0.235,0.977c0.167,0.313,0.373,0.614,0.616,0.912
		c0.244,0.295,0.512,0.586,0.8,0.868c0.292,0.286,0.554,0.574,0.783,0.871c0.231,0.295,0.416,0.599,0.549,0.903
		c0.133,0.31,0.179,0.623,0.131,0.947c-0.06,0.325-0.239,0.602-0.549,0.825c-0.306,0.226-0.681,0.4-1.122,0.522
		c-0.441,0.119-0.915,0.186-1.426,0.199c-0.512,0.013-0.988-0.031-1.436-0.131c-0.449-0.099-0.832-0.252-1.156-0.461
		c-0.323-0.207-0.529-0.476-0.609-0.799c-0.128-0.476-0.165-0.877-0.111-1.203c0.053-0.322,0.146-0.594,0.287-0.807
		c0.139-0.219,0.297-0.382,0.469-0.504c0.176-0.125,0.324-0.217,0.453-0.29c0.267-0.147,0.442-0.147,0.531,0
		c0.084,0.153,0.031,0.391-0.165,0.715c-0.095,0.163-0.118,0.345-0.071,0.545c0.047,0.204,0.152,0.397,0.32,0.576
		c0.169,0.179,0.385,0.336,0.645,0.462c0.263,0.13,0.561,0.198,0.897,0.206c0.209,0.013,0.419-0.008,0.638-0.062
		c0.211-0.049,0.39-0.131,0.528-0.242c0.14-0.108,0.224-0.242,0.251-0.398c0.03-0.156-0.031-0.334-0.182-0.531
		c-0.148-0.193-0.412-0.445-0.782-0.748c-0.371-0.3-0.749-0.633-1.14-0.998c-0.389-0.367-0.729-0.754-1.025-1.168
		c-0.295-0.41-0.443-0.824-0.443-1.242c0-0.822,0.148-1.428,0.443-1.812c0.296-0.382,0.775-0.631,1.436-0.749
		c0.324-0.057,0.59-0.085,0.802-0.076c0.209,0.006,0.374,0.031,0.493,0.076c0.123,0.051,0.213,0.104,0.271,0.165
		C163.27,39.534,163.314,39.598,163.35,39.652"/>
	<path fill="#185684" d="M170.012,40.768c-0.035,0.15-0.135,0.275-0.296,0.373c-0.164,0.101-0.349,0.201-0.557,0.307
		c-0.209,0.103-0.423,0.22-0.646,0.346c-0.219,0.13-0.404,0.296-0.557,0.506c-0.23,0.336-0.395,0.738-0.486,1.199
		c-0.094,0.466-0.137,0.906-0.133,1.33c0.008,0.423,0.061,0.791,0.157,1.097c0.101,0.31,0.226,0.464,0.376,0.464
		c0.184,0,0.379-0.089,0.583-0.264c0.202-0.173,0.384-0.374,0.547-0.6c0.161-0.226,0.296-0.455,0.397-0.697
		c0.105-0.236,0.158-0.42,0.158-0.546c0-0.13-0.008-0.304-0.019-0.531c-0.013-0.226-0.009-0.448,0.01-0.669
		c0.017-0.221,0.054-0.412,0.104-0.575c0.052-0.161,0.142-0.249,0.271-0.26c0.125-0.015,0.28-0.04,0.459-0.088
		c0.179-0.045,0.351-0.052,0.515-0.021c0.162,0.038,0.293,0.15,0.391,0.344c0.1,0.188,0.137,0.517,0.113,0.98
		c-0.033,0.939,0.012,1.648,0.139,2.13c0.128,0.484,0.377,0.765,0.748,0.845c0.256,0.049,0.484-0.014,0.688-0.184
		c0.205-0.169,0.387-0.354,0.549-0.564c0.162-0.207,0.301-0.396,0.418-0.564c0.117-0.168,0.209-0.232,0.277-0.2
		c0.08,0.035,0.111,0.181,0.088,0.435c-0.022,0.258-0.109,0.543-0.261,0.863c-0.151,0.316-0.373,0.635-0.668,0.954
		c-0.297,0.32-0.676,0.567-1.14,0.741c-0.243,0.092-0.471,0.139-0.68,0.139s-0.396-0.029-0.564-0.089
		c-0.17-0.057-0.316-0.138-0.444-0.243c-0.129-0.104-0.241-0.221-0.35-0.348c-0.229-0.289-0.414-0.648-0.554-1.078
		c-0.119,0.279-0.279,0.523-0.49,0.73c-0.174,0.187-0.397,0.356-0.678,0.514c-0.279,0.157-0.619,0.245-1.025,0.268
		c-0.406,0.017-0.788-0.114-1.146-0.381c-0.359-0.265-0.646-0.625-0.861-1.08c-0.215-0.449-0.329-0.976-0.348-1.572
		c-0.018-0.598,0.113-1.226,0.394-1.887c0.183-0.431,0.428-0.795,0.729-1.099c0.301-0.302,0.623-0.547,0.965-0.74
		c0.342-0.188,0.687-0.329,1.027-0.419c0.342-0.083,0.648-0.134,0.921-0.146c0.271-0.012,0.494,0.012,0.66,0.063
		C169.963,40.602,170.036,40.675,170.012,40.768"/>
</g>
<g>
	<path fill="#8E8164" d="M95.967,31.966c0,0.464-0.374,0.987-1.037,0.987c-0.354,0-0.712-0.233-1.066-0.508
		c-0.324-0.247-0.622-0.494-0.942-0.781c-0.944,0.784-2.043,1.287-3.327,1.287c-2.076,0-3.508-1.211-3.508-2.906
		c0-1.227,0.742-2.152,2.009-2.934c-0.619-0.741-1.053-1.561-1.053-2.538c0-1.566,1.192-2.62,3.032-2.62
		c1.767,0,3.029,1.054,3.029,2.587c0,0.926-0.51,2.046-1.808,2.87l1.5,1.377c0.308-0.411,0.603-0.85,0.884-1.314
		c0.184-0.295,0.525-0.479,0.883-0.479c0.576,0,1.039,0.479,1.039,1.053c0,0.169-0.039,0.358-0.254,0.703
		c-0.306,0.477-0.634,0.955-0.971,1.389c0.355,0.299,0.773,0.623,1.225,1.021C95.83,31.377,95.967,31.579,95.967,31.966z
		 M89.639,30.957c0.635,0,1.207-0.247,1.752-0.646l-1.639-1.517c-0.113-0.106-0.234-0.202-0.339-0.31
		c-0.626,0.375-1.058,0.881-1.058,1.471C88.352,30.57,88.841,30.957,89.639,30.957z M89.156,24.597c0,0.524,0.295,1.002,0.742,1.498
		l0.06-0.031c0.7-0.386,1.101-0.699,1.101-1.466c0-0.543-0.418-0.961-0.992-0.961C89.542,23.635,89.156,24.054,89.156,24.597z"/>
</g>
</svg>
