<?xml version="1.0" encoding="utf-8"?>
<!-- Generator: Adobe Illustrator 16.0.0, SVG Export Plug-In . SVG Version: 6.00 Build 0)  -->
<!DOCTYPE svg PUBLIC "-//W3C//DTD SVG 1.1//EN" "http://www.w3.org/Graphics/SVG/1.1/DTD/svg11.dtd">
<svg version="1.1" id="Layer_1" xmlns="http://www.w3.org/2000/svg" xmlns:xlink="http://www.w3.org/1999/xlink" x="0px" y="0px"
	 width="186.333px" height="53px" viewBox="0 0 186.333 53" enable-background="new 0 0 186.333 53" xml:space="preserve">
<g>
	<path fill="#8E8164" d="M100.905,33.278c0,0.464-0.375,0.987-1.037,0.987c-0.355,0-0.713-0.233-1.066-0.508
		c-0.324-0.247-0.623-0.494-0.943-0.781c-0.943,0.784-2.043,1.287-3.326,1.287c-2.076,0-3.508-1.211-3.508-2.906
		c0-1.227,0.742-2.152,2.009-2.934c-0.619-0.741-1.053-1.561-1.053-2.538c0-1.566,1.192-2.62,3.033-2.62
		c1.766,0,3.029,1.054,3.029,2.587c0,0.926-0.51,2.046-1.809,2.87l1.5,1.377c0.309-0.411,0.604-0.85,0.885-1.314
		c0.184-0.295,0.525-0.479,0.883-0.479c0.576,0,1.039,0.479,1.039,1.053c0,0.169-0.039,0.358-0.254,0.703
		c-0.307,0.477-0.635,0.955-0.971,1.389c0.355,0.299,0.773,0.623,1.225,1.021C100.768,32.689,100.905,32.892,100.905,33.278z
		 M94.577,32.27c0.635,0,1.206-0.247,1.751-0.646l-1.638-1.517c-0.113-0.106-0.234-0.202-0.34-0.31
		c-0.625,0.375-1.058,0.881-1.058,1.471C93.29,31.883,93.778,32.27,94.577,32.27z M94.093,25.91c0,0.523,0.296,1.002,0.742,1.497
		l0.06-0.03c0.701-0.387,1.102-0.699,1.102-1.467c0-0.543-0.419-0.961-0.993-0.961C94.479,24.947,94.093,25.367,94.093,25.91z"/>
</g>
<g>
	<path fill="#2273A0" d="M126.883,18.58l4.082-12.204l-3.297,0.101l-6.926,16.873c14.771-3.808,22.223,7.845,22.223,7.845
		C138.325,19.716,126.883,18.58,126.883,18.58"/>
	<path fill="#185684" d="M119.872,24.114l5.094-12.443l-1.812,0.177l-7.182,16.016c14.588-5.819,23.829,0.768,23.829,0.768
		C131.266,20.342,119.872,24.114,119.872,24.114"/>
	<path fill="#2D9AD4" d="M133.19,2.03l-5.342,15.955c0,0,12.291,2.154,16.076,14.354l0.019-17.619
		C143.943,14.72,143.138,6.595,133.19,2.03"/>
	<path fill="#F08134" d="M158.918,1.862l-14.227,12.875l0.327,17.619l21.356-14.636L158.918,1.862z M145.814,15.055l12.548-11.344
		l5.588,12.402l-17.83,12.286L145.814,15.055z M156.939,23.422l-1.735,1.173c-0.445,0.277-1.063,0.363-1.252-0.063
		c-0.234-0.38-0.113-0.923,0.211-1.132l1.76-1.132c0.324-0.208,0.854-0.132,1.183,0.171
		C157.32,22.708,157.364,23.132,156.939,23.422"/>
	<path fill="#185684" d="M108.479,44.313c0.037-0.289,0.085-0.568,0.145-0.834c0.062-0.267,0.139-0.514,0.229-0.746
		c0.092-0.229,0.191-0.426,0.3-0.588c0.109-0.164,0.229-0.283,0.364-0.354c0.131-0.06,0.303-0.121,0.516-0.19
		c0.213-0.064,0.41-0.088,0.6-0.072c0.188,0.02,0.328,0.104,0.426,0.255c0.097,0.153,0.091,0.417-0.018,0.788
		c-0.049,0.207-0.092,0.465-0.127,0.771c-0.037,0.312-0.06,0.644-0.063,1c-0.007,0.358,0.003,0.714,0.026,1.071
		c0.024,0.355,0.069,0.688,0.137,0.986c0.066,0.305,0.156,0.561,0.271,0.773c0.114,0.209,0.258,0.348,0.426,0.407
		c0.352,0.121,0.653,0.108,0.906-0.034c0.256-0.148,0.491-0.37,0.707-0.674c0.086-0.133,0.189-0.245,0.311-0.336
		c0.121-0.092,0.221-0.128,0.299-0.118c0.079,0.013,0.119,0.09,0.119,0.237c0,0.145-0.078,0.386-0.236,0.724
		c-0.169,0.353-0.384,0.66-0.645,0.927c-0.26,0.268-0.551,0.473-0.871,0.627c-0.32,0.15-0.661,0.238-1.023,0.264
		c-0.361,0.021-0.727-0.031-1.09-0.163c-0.361-0.122-0.659-0.294-0.889-0.521c-0.229-0.223-0.407-0.52-0.534-0.896
		s-0.214-0.833-0.257-1.372S108.456,45.063,108.479,44.313 M109.295,37.833c0.133-0.263,0.336-0.428,0.608-0.488
		c0.271-0.06,0.536-0.052,0.798,0.02c0.26,0.073,0.483,0.198,0.672,0.374c0.187,0.176,0.263,0.376,0.228,0.606
		c-0.05,0.279-0.204,0.517-0.465,0.716c-0.259,0.199-0.649,0.273-1.171,0.229c-0.144-0.014-0.274-0.066-0.389-0.163
		c-0.115-0.097-0.207-0.216-0.281-0.354c-0.072-0.142-0.111-0.295-0.119-0.463C109.17,38.137,109.209,37.98,109.295,37.833"/>
	<path fill="#185684" d="M128.472,50.52c-1.187-0.102-2.117-0.593-2.794-1.479c-0.678-0.89-1.143-2.067-1.397-3.53
		c-0.096-0.52-0.159-1.051-0.188-1.597c-0.03-0.545-0.053-1.087-0.065-1.622c-0.011-0.539-0.019-1.072-0.019-1.598
		c0-0.526-0.004-1.037-0.018-1.534c-0.361,0.05-0.677,0.3-0.943,0.755c-0.267,0.453-0.493,1.008-0.68,1.67
		c-0.188,0.657-0.343,1.37-0.464,2.139c-0.12,0.771-0.228,1.493-0.317,2.178c-0.092,0.686-0.164,1.275-0.226,1.777
		s-0.122,0.809-0.183,0.914c-0.072,0.174-0.192,0.305-0.362,0.401c-0.169,0.098-0.354,0.153-0.553,0.172
		c-0.2,0.019-0.399,0-0.601-0.054c-0.199-0.057-0.359-0.149-0.479-0.281c-0.29-0.314-0.515-0.736-0.671-1.264
		c-0.158-0.525-0.249-1.055-0.271-1.588c-0.049-1.278-0.144-2.59-0.281-3.926c-0.139-1.336-0.349-2.621-0.627-3.854
		c-0.084,0.062-0.172,0.124-0.263,0.188c-0.091,0.066-0.181,0.164-0.272,0.293c-0.09,0.125-0.188,0.295-0.289,0.497
		c-0.104,0.206-0.211,0.474-0.317,0.8c-0.085,0.254-0.164,0.604-0.235,1.053c-0.072,0.447-0.137,0.941-0.191,1.486
		s-0.102,1.111-0.145,1.707c-0.041,0.592-0.08,1.155-0.108,1.693c-0.029,0.54-0.054,1.023-0.072,1.454
		c-0.019,0.428-0.033,0.758-0.045,0.985c-0.013,0.182-0.106,0.33-0.282,0.444c-0.176,0.116-0.377,0.179-0.607,0.191
		c-0.229,0.013-0.459-0.031-0.688-0.13c-0.229-0.094-0.399-0.26-0.507-0.487c-0.172-0.339-0.28-0.717-0.327-1.135
		c-0.049-0.416-0.065-0.845-0.046-1.276c0.02-0.436,0.061-0.867,0.126-1.291c0.065-0.423,0.131-0.82,0.192-1.195
		c0.047-0.326,0.119-0.746,0.217-1.264c0.097-0.512,0.221-1.052,0.373-1.611c0.15-0.564,0.335-1.115,0.554-1.66
		c0.216-0.545,0.478-1.016,0.778-1.406c0.304-0.393,0.656-0.674,1.062-0.846c0.404-0.17,0.862-0.159,1.369,0.02
		c0.327,0.122,0.604,0.389,0.835,0.799c0.23,0.412,0.418,0.908,0.563,1.487c0.146,0.579,0.258,1.212,0.336,1.897
		c0.08,0.683,0.139,1.35,0.174,2.004c0.035,0.652,0.058,1.256,0.063,1.813c0.006,0.556,0.016,0.996,0.028,1.324
		c0.097-0.253,0.208-0.601,0.335-1.042c0.127-0.442,0.273-0.936,0.436-1.473s0.346-1.095,0.545-1.668
		c0.199-0.574,0.42-1.127,0.66-1.651c0.242-0.526,0.504-0.999,0.781-1.423s0.575-0.745,0.889-0.961
		c0.314-0.221,0.649-0.313,1.008-0.282c0.355,0.03,0.734,0.231,1.134,0.608c0.267,0.252,0.485,0.659,0.662,1.224
		c0.175,0.565,0.327,1.2,0.454,1.914s0.238,1.463,0.334,2.249c0.098,0.785,0.197,1.523,0.3,2.213
		c0.104,0.689,0.215,1.292,0.338,1.806c0.12,0.517,0.276,0.864,0.472,1.042c0.289,0.292,0.567,0.477,0.834,0.555
		c0.268,0.08,0.502,0.125,0.707,0.139c0.207,0.01,0.385,0.016,0.534,0.016c0.153,0,0.259,0.069,0.318,0.2
		c0.048,0.11,0.034,0.229-0.046,0.354c-0.077,0.129-0.202,0.242-0.371,0.346c-0.172,0.104-0.383,0.188-0.637,0.254
		C129.034,50.52,128.761,50.539,128.472,50.52"/>
	<path fill="#185684" d="M133.534,41.393c-0.035,0.156-0.141,0.287-0.31,0.389c-0.169,0.104-0.362,0.21-0.578,0.318
		c-0.22,0.107-0.442,0.229-0.673,0.361c-0.23,0.134-0.426,0.309-0.581,0.528c-0.24,0.35-0.412,0.769-0.509,1.25
		c-0.096,0.485-0.141,0.944-0.135,1.387c0.004,0.44,0.06,0.824,0.162,1.144c0.104,0.322,0.234,0.482,0.391,0.482
		c0.195,0,0.396-0.092,0.607-0.273c0.211-0.181,0.401-0.391,0.571-0.625c0.169-0.234,0.31-0.476,0.418-0.728
		c0.108-0.247,0.163-0.438,0.163-0.569c0-0.136-0.007-0.316-0.02-0.555c-0.012-0.234-0.01-0.467,0.01-0.697
		c0.019-0.229,0.055-0.43,0.109-0.6c0.053-0.169,0.146-0.26,0.28-0.271c0.132-0.014,0.293-0.041,0.479-0.091
		c0.188-0.047,0.367-0.054,0.535-0.02c0.17,0.038,0.307,0.155,0.407,0.356c0.104,0.197,0.144,0.538,0.119,1.023
		c-0.036,0.98,0.013,1.72,0.144,2.221c0.136,0.506,0.396,0.797,0.783,0.881c0.266,0.051,0.504-0.014,0.715-0.19
		c0.213-0.177,0.402-0.37,0.571-0.589c0.169-0.217,0.313-0.414,0.435-0.59s0.219-0.242,0.293-0.209
		c0.084,0.037,0.113,0.188,0.089,0.453c-0.022,0.268-0.113,0.566-0.271,0.899c-0.158,0.331-0.39,0.663-0.699,0.996
		c-0.308,0.334-0.703,0.592-1.188,0.772c-0.255,0.096-0.49,0.145-0.708,0.145c-0.219,0-0.415-0.031-0.59-0.092
		c-0.175-0.06-0.329-0.145-0.462-0.254c-0.135-0.109-0.256-0.23-0.362-0.362c-0.241-0.302-0.437-0.677-0.581-1.125
		c-0.121,0.292-0.291,0.546-0.507,0.762c-0.185,0.195-0.42,0.373-0.708,0.536c-0.292,0.163-0.648,0.256-1.072,0.279
		c-0.424,0.016-0.82-0.12-1.197-0.398c-0.373-0.275-0.672-0.652-0.896-1.125c-0.225-0.47-0.346-1.018-0.363-1.641
		s0.119-1.277,0.408-1.967c0.193-0.448,0.448-0.83,0.762-1.146c0.314-0.314,0.648-0.57,1.008-0.771
		c0.356-0.196,0.715-0.344,1.07-0.437c0.356-0.087,0.676-0.14,0.961-0.153c0.283-0.012,0.514,0.012,0.689,0.066
		S133.558,41.295,133.534,41.393"/>
	<path fill="#185684" d="M142.333,42.646c0.072-0.813,0.135-1.573,0.181-2.289c0.038-0.615,0.067-1.228,0.093-1.83
		c0.021-0.605,0.021-1.065,0-1.383c-0.023-0.301,0.045-0.578,0.208-0.832c0.162-0.254,0.354-0.474,0.572-0.654
		c0.218-0.182,0.436-0.319,0.651-0.417c0.219-0.097,0.375-0.144,0.471-0.144c0.099,0,0.156,0.24,0.174,0.723
		c0.02,0.486,0.02,1.111,0,1.88c-0.018,0.768-0.042,1.635-0.071,2.603c-0.03,0.969-0.04,1.941-0.028,2.924
		c0.013,0.903,0.066,1.643,0.162,2.213c0.099,0.566,0.224,1.013,0.373,1.332c0.151,0.321,0.313,0.547,0.48,0.683
		c0.17,0.132,0.334,0.22,0.49,0.263c0.156,0.042,0.289,0.069,0.399,0.081c0.107,0.015,0.181,0.054,0.216,0.126
		c0.051,0.11,0.01,0.247-0.115,0.417c-0.129,0.173-0.315,0.316-0.564,0.435c-0.248,0.123-0.539,0.187-0.879,0.191
		c-0.339,0.008-0.695-0.093-1.068-0.297c-0.315-0.17-0.554-0.398-0.709-0.684c-0.156-0.281-0.267-0.563-0.326-0.844
		c-0.072-0.313-0.104-0.641-0.09-0.979c-0.269,0.484-0.58,0.906-0.945,1.271c-0.156,0.155-0.332,0.307-0.526,0.453
		c-0.19,0.146-0.403,0.27-0.633,0.379s-0.479,0.194-0.745,0.254c-0.266,0.063-0.55,0.082-0.854,0.058
		c-0.326-0.024-0.621-0.158-0.879-0.394c-0.261-0.234-0.479-0.531-0.654-0.89c-0.176-0.354-0.301-0.755-0.381-1.196
		c-0.076-0.44-0.104-0.883-0.082-1.324c0.024-0.441,0.108-0.864,0.256-1.27c0.146-0.406,0.355-0.755,0.636-1.042
		c0.205-0.206,0.423-0.362,0.653-0.473c0.229-0.109,0.462-0.181,0.697-0.21c0.234-0.028,0.473-0.028,0.707,0
		c0.235,0.029,0.457,0.078,0.661,0.138C141.346,42.063,141.834,42.303,142.333,42.646 M139.502,44.275
		c-0.11,0.291-0.181,0.597-0.211,0.914c-0.027,0.322-0.035,0.615-0.017,0.881c0.017,0.267,0.056,0.492,0.116,0.674
		c0.063,0.178,0.135,0.277,0.219,0.288c0.17,0.051,0.348,0.013,0.535-0.11c0.188-0.119,0.438-0.365,0.752-0.74
		c0.145-0.193,0.295-0.43,0.445-0.707c0.15-0.279,0.277-0.554,0.382-0.815c0.103-0.267,0.165-0.504,0.188-0.708
		c0.024-0.207-0.004-0.328-0.09-0.362c-0.097-0.037-0.251-0.073-0.464-0.11c-0.211-0.037-0.435-0.039-0.672-0.019
		c-0.235,0.024-0.465,0.095-0.688,0.211C139.776,43.782,139.611,43.984,139.502,44.275"/>
	<path fill="#185684" d="M146.579,41.973c-0.134-0.074-0.254-0.113-0.363-0.125c-0.108-0.015-0.209-0.021-0.301-0.021
		c-0.09,0-0.168-0.009-0.234-0.028c-0.065-0.019-0.124-0.076-0.174-0.172c-0.034-0.085,0.022-0.201,0.174-0.345
		c0.15-0.144,0.354-0.267,0.607-0.363c0.256-0.097,0.537-0.134,0.854-0.116c0.314,0.018,0.617,0.143,0.906,0.37
		c0.252,0.22,0.461,0.427,0.627,0.626c0.162,0.201,0.291,0.379,0.389,0.535c0.109,0.182,0.188,0.357,0.234,0.527
		c0.342-0.326,0.691-0.6,1.054-0.818c0.315-0.189,0.666-0.352,1.055-0.47c0.386-0.123,0.771-0.128,1.159-0.019
		c0.096,0.036,0.143,0.112,0.137,0.225c-0.006,0.115-0.056,0.242-0.146,0.373c-0.093,0.136-0.216,0.26-0.371,0.383
		c-0.159,0.119-0.345,0.203-0.563,0.254c-0.423,0.097-0.758,0.277-1.008,0.545c-0.246,0.266-0.438,0.575-0.568,0.934
		c-0.135,0.356-0.219,0.738-0.254,1.144c-0.039,0.403-0.056,0.796-0.056,1.172c0.013,0.786-0.097,1.367-0.327,1.75
		c-0.229,0.379-0.537,0.583-0.926,0.604c-0.447,0.024-0.779-0.18-0.997-0.617c-0.218-0.434-0.327-1.172-0.327-2.211
		c0.012-0.654,0.02-1.223,0.02-1.707c0-0.482-0.02-0.891-0.055-1.226c-0.037-0.331-0.099-0.595-0.182-0.788
		C146.855,42.197,146.734,42.057,146.579,41.973"/>
	<path fill="#185684" d="M157.879,41.393c-0.037,0.156-0.141,0.287-0.31,0.389c-0.17,0.104-0.36,0.21-0.579,0.318
		c-0.219,0.107-0.443,0.229-0.673,0.361c-0.229,0.134-0.423,0.309-0.581,0.528c-0.24,0.35-0.408,0.769-0.507,1.25
		c-0.097,0.485-0.144,0.944-0.136,1.387c0.007,0.442,0.06,0.824,0.162,1.144c0.104,0.322,0.233,0.482,0.391,0.482
		c0.193,0,0.396-0.092,0.605-0.273c0.213-0.181,0.403-0.391,0.574-0.625c0.168-0.234,0.307-0.476,0.418-0.728
		c0.106-0.247,0.161-0.438,0.161-0.569c0-0.136-0.007-0.316-0.019-0.555c-0.012-0.234-0.008-0.467,0.01-0.697
		c0.02-0.229,0.055-0.43,0.107-0.6c0.056-0.169,0.148-0.26,0.281-0.271c0.135-0.014,0.293-0.041,0.481-0.091
		c0.188-0.047,0.364-0.054,0.535-0.02c0.169,0.038,0.305,0.155,0.407,0.356c0.104,0.197,0.143,0.538,0.119,1.023
		c-0.037,0.98,0.012,1.72,0.146,2.221c0.132,0.506,0.392,0.797,0.778,0.881c0.267,0.051,0.504-0.014,0.717-0.19
		c0.214-0.177,0.402-0.37,0.57-0.589c0.17-0.217,0.315-0.414,0.437-0.59c0.123-0.176,0.218-0.242,0.292-0.209
		c0.085,0.037,0.113,0.188,0.09,0.453c-0.023,0.268-0.115,0.566-0.271,0.899c-0.158,0.331-0.391,0.663-0.698,0.996
		c-0.31,0.334-0.704,0.592-1.188,0.772c-0.254,0.096-0.488,0.145-0.707,0.145c-0.218,0-0.414-0.031-0.59-0.092
		c-0.175-0.06-0.33-0.145-0.463-0.254c-0.134-0.109-0.254-0.23-0.361-0.362c-0.242-0.302-0.437-0.677-0.582-1.125
		c-0.121,0.292-0.289,0.546-0.506,0.762c-0.185,0.195-0.418,0.373-0.709,0.536s-0.646,0.256-1.07,0.279
		c-0.424,0.016-0.821-0.12-1.198-0.398c-0.374-0.275-0.673-0.652-0.897-1.125c-0.223-0.47-0.344-1.018-0.361-1.641
		c-0.02-0.623,0.117-1.277,0.408-1.967c0.191-0.448,0.446-0.83,0.763-1.146c0.313-0.314,0.649-0.57,1.005-0.771
		c0.357-0.196,0.715-0.344,1.07-0.437c0.357-0.087,0.677-0.14,0.961-0.153c0.287-0.012,0.517,0.012,0.692,0.066
		C157.829,41.219,157.904,41.295,157.879,41.393"/>
	<path fill="#185684" d="M166.189,40.23c0.048,0.097,0.041,0.172-0.021,0.225c-0.06,0.056-0.146,0.109-0.26,0.167
		c-0.117,0.053-0.248,0.118-0.394,0.196c-0.144,0.08-0.282,0.19-0.416,0.339c-0.134,0.144-0.243,0.331-0.335,0.561
		c-0.092,0.231-0.137,0.521-0.137,0.871c-0.013,0.351,0.067,0.688,0.244,1.019c0.176,0.326,0.393,0.641,0.644,0.951
		c0.256,0.308,0.534,0.611,0.838,0.905c0.3,0.297,0.571,0.599,0.813,0.908c0.242,0.308,0.434,0.623,0.572,0.942
		c0.139,0.322,0.184,0.65,0.137,0.988c-0.063,0.34-0.252,0.627-0.571,0.861c-0.321,0.234-0.712,0.417-1.171,0.545
		c-0.461,0.125-0.954,0.193-1.487,0.207c-0.531,0.014-1.031-0.032-1.496-0.134c-0.467-0.104-0.868-0.265-1.207-0.483
		c-0.339-0.216-0.55-0.494-0.635-0.832c-0.134-0.496-0.173-0.915-0.119-1.254c0.056-0.338,0.153-0.62,0.301-0.842
		c0.146-0.227,0.31-0.398,0.488-0.526c0.183-0.129,0.339-0.226,0.474-0.302c0.276-0.154,0.463-0.154,0.553,0
		c0.091,0.161,0.033,0.407-0.172,0.746c-0.099,0.17-0.121,0.359-0.072,0.568c0.047,0.213,0.16,0.414,0.335,0.601
		c0.177,0.187,0.399,0.351,0.673,0.481c0.271,0.136,0.581,0.207,0.936,0.215c0.215,0.014,0.436-0.008,0.659-0.063
		c0.226-0.053,0.409-0.137,0.554-0.253c0.146-0.114,0.233-0.254,0.266-0.417c0.027-0.163-0.034-0.348-0.192-0.554
		c-0.157-0.203-0.428-0.464-0.815-0.78c-0.389-0.313-0.783-0.66-1.188-1.042s-0.763-0.786-1.07-1.217
		c-0.309-0.429-0.461-0.86-0.461-1.296c0-0.858,0.152-1.489,0.461-1.889c0.309-0.398,0.809-0.658,1.498-0.78
		c0.338-0.06,0.615-0.089,0.834-0.081c0.217,0.007,0.39,0.033,0.518,0.081c0.126,0.051,0.221,0.105,0.279,0.172
		C166.104,40.105,166.152,40.171,166.189,40.23"/>
	<path fill="#185684" d="M172.557,40.23c0.049,0.097,0.042,0.172-0.02,0.225c-0.062,0.056-0.148,0.109-0.263,0.167
		c-0.114,0.053-0.246,0.118-0.392,0.196c-0.145,0.08-0.282,0.19-0.416,0.339c-0.135,0.144-0.246,0.331-0.336,0.561
		c-0.092,0.231-0.137,0.521-0.137,0.871c-0.013,0.351,0.07,0.688,0.245,1.019c0.175,0.326,0.39,0.641,0.644,0.951
		c0.255,0.308,0.533,0.611,0.834,0.905c0.305,0.297,0.576,0.599,0.816,0.908c0.242,0.308,0.434,0.623,0.572,0.942
		c0.139,0.322,0.186,0.65,0.137,0.988c-0.063,0.34-0.25,0.627-0.572,0.861c-0.318,0.234-0.709,0.417-1.17,0.545
		c-0.461,0.125-0.955,0.193-1.487,0.207s-1.03-0.032-1.497-0.134c-0.467-0.104-0.866-0.265-1.205-0.483
		c-0.338-0.216-0.553-0.494-0.637-0.832c-0.133-0.496-0.172-0.915-0.116-1.254c0.055-0.338,0.153-0.62,0.299-0.842
		c0.146-0.227,0.31-0.398,0.49-0.526c0.182-0.129,0.338-0.226,0.472-0.302c0.277-0.154,0.462-0.154,0.555,0
		c0.088,0.161,0.032,0.407-0.172,0.746c-0.099,0.17-0.123,0.359-0.074,0.568c0.049,0.213,0.158,0.414,0.334,0.601
		s0.4,0.351,0.672,0.481c0.273,0.136,0.584,0.207,0.936,0.215c0.219,0.014,0.438-0.008,0.664-0.063
		c0.221-0.053,0.406-0.137,0.553-0.253c0.146-0.114,0.232-0.254,0.262-0.417c0.031-0.163-0.033-0.348-0.189-0.554
		c-0.156-0.203-0.43-0.464-0.816-0.78c-0.387-0.313-0.781-0.66-1.188-1.042s-0.762-0.786-1.07-1.217
		c-0.308-0.429-0.463-0.86-0.463-1.296c0-0.858,0.155-1.489,0.463-1.889c0.309-0.398,0.809-0.658,1.496-0.78
		c0.34-0.06,0.616-0.089,0.835-0.081c0.22,0.007,0.392,0.033,0.517,0.081c0.129,0.051,0.221,0.105,0.281,0.172
		C172.472,40.105,172.519,40.171,172.557,40.23"/>
	<path fill="#185684" d="M179.504,41.393c-0.037,0.156-0.141,0.287-0.309,0.389c-0.171,0.104-0.363,0.21-0.58,0.318
		c-0.218,0.107-0.441,0.229-0.672,0.361c-0.229,0.134-0.423,0.309-0.581,0.528c-0.241,0.35-0.411,0.769-0.508,1.25
		c-0.097,0.485-0.142,0.944-0.137,1.387c0.007,0.44,0.062,0.824,0.163,1.144c0.104,0.322,0.234,0.482,0.392,0.482
		c0.192,0,0.396-0.092,0.608-0.273c0.211-0.181,0.4-0.391,0.57-0.625c0.168-0.234,0.309-0.476,0.416-0.728
		c0.109-0.247,0.164-0.438,0.164-0.569c0-0.136-0.008-0.316-0.019-0.555c-0.013-0.234-0.009-0.467,0.01-0.697
		c0.017-0.229,0.056-0.43,0.108-0.6c0.054-0.169,0.147-0.26,0.281-0.271c0.131-0.014,0.293-0.041,0.479-0.091
		c0.187-0.047,0.364-0.054,0.536-0.02c0.168,0.038,0.306,0.155,0.406,0.356c0.104,0.197,0.143,0.538,0.119,1.023
		c-0.035,0.98,0.012,1.72,0.144,2.221c0.134,0.506,0.394,0.797,0.78,0.881c0.267,0.051,0.506-0.014,0.717-0.19
		c0.213-0.177,0.402-0.37,0.572-0.589c0.17-0.217,0.314-0.414,0.436-0.59c0.123-0.176,0.218-0.242,0.29-0.209
		c0.084,0.037,0.116,0.188,0.091,0.453c-0.023,0.268-0.113,0.566-0.271,0.899c-0.157,0.331-0.389,0.663-0.696,0.996
		c-0.31,0.334-0.705,0.592-1.188,0.772c-0.254,0.096-0.49,0.145-0.709,0.145c-0.217,0-0.412-0.031-0.589-0.092
		c-0.177-0.06-0.329-0.145-0.463-0.254c-0.135-0.109-0.253-0.23-0.364-0.362c-0.24-0.302-0.433-0.677-0.578-1.125
		c-0.123,0.292-0.291,0.546-0.51,0.762c-0.182,0.195-0.416,0.373-0.707,0.536s-0.646,0.256-1.07,0.279
		c-0.424,0.016-0.822-0.12-1.196-0.398c-0.375-0.275-0.675-0.652-0.897-1.125c-0.224-0.47-0.345-1.018-0.363-1.641
		c-0.018-0.623,0.119-1.277,0.41-1.967c0.19-0.448,0.446-0.83,0.76-1.146c0.313-0.314,0.65-0.57,1.007-0.771
		c0.356-0.196,0.715-0.344,1.071-0.437c0.356-0.087,0.677-0.14,0.961-0.153c0.283-0.012,0.515,0.012,0.688,0.066
		C179.454,41.219,179.529,41.295,179.504,41.393"/>
</g>
<g>
	<g>
		<g>
			<g>
				<g>
					<defs>
						<path id="SVGID_1_" d="M1.764,26.499c0,10.729,8.698,19.428,19.428,19.428c10.728,0,19.426-8.698,19.426-19.428
							c0-10.728-8.698-19.426-19.426-19.426C10.461,7.073,1.764,15.769,1.764,26.499"/>
					</defs>
					<clipPath id="SVGID_2_">
						<use xlink:href="#SVGID_1_"  overflow="visible"/>
					</clipPath>
					
						<linearGradient id="SVGID_3_" gradientUnits="userSpaceOnUse" x1="-1120.9399" y1="563.9785" x2="-1120.4209" y2="563.9785" gradientTransform="matrix(0 -74.8353 74.8353 0 -42184.3945 -83839.9531)">
						<stop  offset="0.069" style="stop-color:#FFCB21"/>
						<stop  offset="0.1256" style="stop-color:#FFC028"/>
						<stop  offset="0.2239" style="stop-color:#FFA43B"/>
						<stop  offset="0.352" style="stop-color:#FF765B"/>
						<stop  offset="0.5032" style="stop-color:#FF3785"/>
						<stop  offset="0.6239" style="stop-color:#FF00AB"/>
						<stop  offset="1" style="stop-color:#6E9AFF"/>
					</linearGradient>
					<rect x="1.764" y="7.073" clip-path="url(#SVGID_2_)" fill="url(#SVGID_3_)" width="38.854" height="38.854"/>
				</g>
			</g>
		</g>
	</g>
	<g id="ZIK_1_">
		<path fill="#1E1E1E" d="M53.585,42.585c0,0.81-0.658,1.41-1.467,1.41h-7.386c-0.808,0-1.466-0.658-1.466-1.468
			c0-0.377,0.131-0.715,0.451-1.146l5.602-7.537h-4.625c-0.808,0-1.447-0.604-1.447-1.409c0-0.81,0.639-1.408,1.447-1.408h7.312
			c0.809,0,1.448,0.639,1.448,1.445c0,0.28-0.095,0.563-0.433,1.016l-5.62,7.688h4.717C52.928,41.175,53.585,41.775,53.585,42.585z"
			/>
		<path fill="#1E1E1E" d="M57.537,43.354V32.341c0-0.827,0.677-1.504,1.504-1.504s1.522,0.677,1.522,1.504v11.017
			c0,0.396-0.244,0.641-0.62,0.641h-1.767C57.78,43.995,57.537,43.751,57.537,43.354z"/>
		<path fill="#1E1E1E" d="M75.809,42.564c0,0.996-0.732,1.543-1.541,1.543c-0.395,0-0.771-0.188-1.09-0.51l-4.324-4.475v4.229
			c0,0.396-0.244,0.642-0.621,0.642h-1.767c-0.396,0-0.639-0.244-0.639-0.642V32.341c0-0.827,0.676-1.504,1.502-1.504
			c0.828,0,1.522,0.677,1.522,1.504v2.988l4.324-4.08c0.262-0.242,0.602-0.412,1.033-0.412c0.752,0,1.41,0.658,1.41,1.447
			c0,0.432-0.227,0.825-0.51,1.09l-4.08,3.815c1.469,1.465,2.916,2.818,4.346,4.359C75.622,41.813,75.809,42.245,75.809,42.564z"/>
	</g>
	<g id="Equalizer_3_">
		<path fill="#FFFFFF" d="M23.939,38.202L23.939,38.202c-1.192,0-2.158-0.966-2.158-2.158V23.88c0-1.193,0.966-2.16,2.158-2.16l0,0
			c1.193,0,2.159,0.967,2.159,2.16v12.164C26.099,37.236,25.132,38.202,23.939,38.202z"/>
		<path fill="#FFFFFF" d="M17.471,34.489L17.471,34.489c-1.193,0-2.16-0.968-2.16-2.16V19.777c0-1.191,0.967-2.159,2.16-2.159l0,0
			c1.191,0,2.159,0.968,2.159,2.159v12.552C19.628,33.521,18.662,34.489,17.471,34.489z"/>
		<path fill="#FFFFFF" d="M10.938,32.087L10.938,32.087c-1.192,0-2.159-0.967-2.159-2.16v-3.346c0-1.191,0.967-2.158,2.159-2.158
			l0,0c1.192,0,2.159,0.966,2.159,2.158v3.346C13.098,31.12,12.13,32.087,10.938,32.087z"/>
		<path fill="#FFFFFF" d="M30.504,32.134L30.504,32.134c-1.193,0-2.16-0.965-2.16-2.157v-2.976c0-1.191,0.967-2.16,2.16-2.16l0,0
			c1.191,0,2.159,0.966,2.159,2.16v2.976C32.664,31.169,31.696,32.134,30.504,32.134z"/>
	</g>
	<g id="ANA_1_">
		<path fill="#1E1E1E" d="M82.229,26.302l-4.141-9.642c-0.135-0.313-0.582-0.302-0.701,0.02l-0.914,2.506
			c-0.029,0.082-0.029,0.175,0,0.257c0.428,1.194,0.551,1.483,1.008,2.638h-1.744c-0.213,0-0.4,0.128-0.479,0.323l-0.559,1.375
			c-0.141,0.34,0.109,0.713,0.479,0.713h3.262c0.273,0.67,0.545,1.288,0.799,1.883c0.162,0.381,0.488,0.563,0.814,0.563h1.648
			C82.028,26.938,82.411,26.739,82.229,26.302z"/>
		<path fill="#1E1E1E" d="M55.112,26.938h-1.649c-0.326,0-0.652-0.182-0.815-0.563c-0.254-0.598-0.525-1.215-0.798-1.884h-4.767
			c-0.254,0.617-0.525,1.232-0.797,1.884c-0.163,0.381-0.489,0.563-0.888,0.563H43.82c-0.326,0-0.707-0.199-0.525-0.637
			l4.894-11.417c0.181-0.435,0.653-0.852,1.287-0.852c0.507,0,1.051,0.29,1.287,0.852l4.876,11.417
			C55.819,26.739,55.438,26.938,55.112,26.938z M50.89,22.081c-0.471-1.196-0.96-2.464-1.414-3.733
			c-0.471,1.324-0.924,2.52-1.414,3.733H50.89z"/>
		<path fill="#1E1E1E" d="M57.325,17.388v8.935c0,0.34,0.276,0.615,0.616,0.615h1.704c0.363,0,0.6-0.236,0.6-0.615l-0.068-5.631
			c-0.004-0.289-0.1-0.568-0.275-0.798l-2.054-2.682C57.675,16.992,57.325,17.111,57.325,17.388z"/>
	</g>
	<g id="AN_1_">
		
			<linearGradient id="SVGID_4_" gradientUnits="userSpaceOnUse" x1="-6.2017" y1="-282.4048" x2="-6.2017" y2="-264.2998" gradientTransform="matrix(1 0 0 -1 69.1401 -255.6045)">
			<stop  offset="0.069" style="stop-color:#FFCB21"/>
			<stop  offset="0.1256" style="stop-color:#FFC028"/>
			<stop  offset="0.2239" style="stop-color:#FFA43B"/>
			<stop  offset="0.352" style="stop-color:#FF765B"/>
			<stop  offset="0.5032" style="stop-color:#FF3785"/>
			<stop  offset="0.6239" style="stop-color:#FF00AB"/>
			<stop  offset="1" style="stop-color:#6E9AFF"/>
		</linearGradient>
		<path fill="url(#SVGID_4_)" d="M61.33,13.505c0-0.209,0.043-0.414,0.127-0.608c0.086-0.197,0.203-0.37,0.354-0.521
			s0.32-0.268,0.511-0.354c0.188-0.086,0.396-0.127,0.617-0.127c0.208,0,0.412,0.041,0.606,0.127
			c0.197,0.085,0.371,0.201,0.521,0.354c0.149,0.15,0.269,0.323,0.353,0.521c0.086,0.194,0.129,0.397,0.129,0.608
			c0,0.221-0.043,0.428-0.129,0.616c-0.084,0.19-0.203,0.36-0.353,0.511c-0.149,0.149-0.323,0.268-0.521,0.353
			c-0.194,0.085-0.398,0.127-0.606,0.127c-0.224,0-0.429-0.042-0.617-0.127c-0.19-0.085-0.36-0.203-0.511-0.353
			c-0.15-0.15-0.268-0.32-0.354-0.511C61.373,13.933,61.33,13.726,61.33,13.505z"/>
		
			<linearGradient id="SVGID_5_" gradientUnits="userSpaceOnUse" x1="6.9683" y1="-282.3994" x2="6.9683" y2="-264.2997" gradientTransform="matrix(1 0 0 -1 69.1401 -255.6045)">
			<stop  offset="0.069" style="stop-color:#FFCB21"/>
			<stop  offset="0.1256" style="stop-color:#FFC028"/>
			<stop  offset="0.2239" style="stop-color:#FFA43B"/>
			<stop  offset="0.352" style="stop-color:#FF765B"/>
			<stop  offset="0.5032" style="stop-color:#FF3785"/>
			<stop  offset="0.6239" style="stop-color:#FF00AB"/>
			<stop  offset="1" style="stop-color:#6E9AFF"/>
		</linearGradient>
		<path fill="url(#SVGID_5_)" d="M77.292,10.72c-0.223-0.156-0.457-0.234-0.705-0.234c-0.223,0-0.404,0.072-0.549,0.215
			c-0.145,0.145-0.217,0.328-0.217,0.549c0,0.223,0.072,0.408,0.217,0.559c0.145,0.152,0.326,0.227,0.549,0.227h1.061
			c0.209,0,0.365,0.064,0.473,0.196c0.104,0.13,0.154,0.261,0.154,0.392c0,0.156-0.053,0.297-0.154,0.422
			c-0.105,0.123-0.264,0.186-0.473,0.186h-3.1c-0.184,0-0.33-0.063-0.439-0.186c-0.109-0.125-0.166-0.266-0.166-0.422
			c0-0.131,0.057-0.262,0.166-0.392c0.109-0.132,0.26-0.196,0.439-0.196h0.334c-0.117-0.145-0.189-0.294-0.215-0.451
			c-0.027-0.156-0.039-0.287-0.039-0.392c0-0.536,0.186-0.979,0.559-1.333s0.833-0.53,1.382-0.53c0.262,0,0.518,0.047,0.766,0.137
			c0.248,0.092,0.465,0.229,0.645,0.412c0.131,0.131,0.195,0.27,0.195,0.414c0,0.184-0.059,0.319-0.176,0.41
			c-0.117,0.092-0.248,0.137-0.393,0.137C77.489,10.839,77.385,10.8,77.292,10.72z"/>
		<g>
			
				<linearGradient id="SVGID_6_" gradientUnits="userSpaceOnUse" x1="4.3652" y1="-282.3999" x2="4.3652" y2="-264.299" gradientTransform="matrix(1 0 0 -1 69.1401 -255.6045)">
				<stop  offset="0.069" style="stop-color:#FFCB21"/>
				<stop  offset="0.1256" style="stop-color:#FFC028"/>
				<stop  offset="0.2239" style="stop-color:#FFA43B"/>
				<stop  offset="0.352" style="stop-color:#FF765B"/>
				<stop  offset="0.5032" style="stop-color:#FF3785"/>
				<stop  offset="0.6239" style="stop-color:#FF00AB"/>
				<stop  offset="1" style="stop-color:#6E9AFF"/>
			</linearGradient>
			<path fill="url(#SVGID_6_)" d="M76.065,18.347l1.037-2.787c0.27-0.725-0.25-1.518-1.021-1.527c-0.004,0-0.01,0-0.016,0
				c-0.635,0-1.105,0.417-1.287,0.852l-4.895,11.417c-0.18,0.438,0.201,0.637,0.527,0.637h1.574c0.398,0,0.727-0.182,0.891-0.563
				c0.27-0.652,0.543-1.268,0.797-1.884l0.979-2.411C75.141,20.867,75.596,19.671,76.065,18.347z"/>
		</g>
		
			<linearGradient id="SVGID_7_" gradientUnits="userSpaceOnUse" x1="-7.4893" y1="-282.4009" x2="-7.4893" y2="-264.2977" gradientTransform="matrix(1 0 0 -1 69.1401 -255.6045)">
			<stop  offset="0.069" style="stop-color:#FFCB21"/>
			<stop  offset="0.1256" style="stop-color:#FFC028"/>
			<stop  offset="0.2239" style="stop-color:#FFA43B"/>
			<stop  offset="0.352" style="stop-color:#FF765B"/>
			<stop  offset="0.5032" style="stop-color:#FF3785"/>
			<stop  offset="0.6239" style="stop-color:#FF00AB"/>
			<stop  offset="1" style="stop-color:#6E9AFF"/>
		</linearGradient>
		<path fill="url(#SVGID_7_)" d="M68.199,15.701c0-0.797-0.671-1.449-1.469-1.449c-0.797,0-1.45,0.652-1.45,1.449l0.054,5.991
			l-7.73-10.132l0.003,0.007c-0.417-0.634-1.269-0.812-1.903-0.396c-0.634,0.418-0.811,1.27-0.394,1.903l2.016,2.662l2.844,3.716
			l5.203,6.849c0.416,0.545,0.744,0.639,1.088,0.639h1.178c0.361,0,0.58-0.273,0.58-0.58L68.199,15.701z"/>
	</g>
</g>
</svg>
