<?xml version="1.0" encoding="utf-8"?>
<!-- Generator: Adobe Illustrator 16.0.0, SVG Export Plug-In . SVG Version: 6.00 Build 0)  -->
<!DOCTYPE svg PUBLIC "-//W3C//DTD SVG 1.1//EN" "http://www.w3.org/Graphics/SVG/1.1/DTD/svg11.dtd">
<svg version="1.1" id="Calque_1" xmlns="http://www.w3.org/2000/svg" xmlns:xlink="http://www.w3.org/1999/xlink" x="0px" y="0px"
	 width="400px" height="138.945px" viewBox="0 0 400 138.945" enable-background="new 0 0 400 138.945" xml:space="preserve">
<radialGradient id="SVGID_1_" cx="678.5039" cy="600.991" r="235.6041" gradientTransform="matrix(0.9822 0 0 0.8512 -612.23 -485.8922)" gradientUnits="userSpaceOnUse">
	<stop  offset="0.3363" style="stop-color:#ED1C24"/>
	<stop  offset="1" style="stop-color:#E53935"/>
</radialGradient>
<polygon fill="url(#SVGID_1_)" points="401.158,94.991 203.221,124.991 -1.158,94.991 -1.158,0 401.158,0 "/>
<g>
	<g>
		<path fill="#FFFFFF" d="M142.932,80.422c0,0.988-0.499,1.486-1.453,1.486h-2.52c-0.99,0-1.488-0.498-1.488-1.486V64.118
			c0-1.525,1.222-2.748,2.711-2.748c1.526,0,2.749,1.223,2.749,2.748L142.932,80.422L142.932,80.422z"/>
		<path fill="#FFFFFF" d="M179.346,68.967v11.455c0,0.99-0.497,1.488-1.449,1.488h-2.521c-0.992,0-1.488-0.498-1.488-1.488v-9.849
			c0-2.557-1.564-3.972-3.78-3.972c-2.175,0-3.815,1.337-3.815,3.895v9.926c0,0.99-0.499,1.488-1.453,1.488h-2.52
			c-0.991,0-1.489-0.498-1.489-1.488v-9.849c0-2.557-1.564-3.972-3.777-3.972c-2.177,0-3.818,1.414-3.818,3.972v9.849
			c0,0.99-0.497,1.488-1.451,1.488h-2.52c-0.993,0-1.489-0.498-1.489-1.488V64.119c0-1.526,1.22-2.749,2.708-2.749
			c1.414,0,2.557,1.031,2.71,2.408c1.223-1.376,3.133-2.408,5.917-2.408c2.979,0,4.698,1.185,5.957,2.442
			c1.602-1.525,3.892-2.442,6.564-2.442C176.712,61.37,179.346,64.616,179.346,68.967"/>
		<path fill="#FFFFFF" d="M203.586,64.118V80.42c0,0.99-0.499,1.488-1.454,1.488h-2.518c-0.994,0-1.488-0.498-1.488-1.488v-0.268
			c-1.568,1.488-3.398,2.139-5.347,2.139c-5.498,0-10.189-4.66-10.189-10.498c0-5.764,4.692-10.423,10.189-10.423
			c2.027,0,3.893,0.574,5.459,1.91c0.344-1.105,1.376-1.91,2.595-1.91C202.359,61.37,203.586,62.593,203.586,64.118 M198.125,71.793
			c0-2.828-2.255-5.078-5.117-5.078c-2.788,0-5.115,2.25-5.115,5.078c0,2.898,2.327,5.152,5.115,5.152
			C195.87,76.945,198.125,74.695,198.125,71.793"/>
		<path fill="#FFFFFF" d="M131.05,50.817c0-4.688,3.728-8.321,8.416-8.321c4.663,0,8.391,3.633,8.391,8.321
			c0,4.665-3.728,8.298-8.391,8.298C134.778,59.115,131.05,55.482,131.05,50.817"/>
		<path fill="#FFFFFF" d="M117.739,47.351h-0.024c-1.407,0.002-2.527,1.194-2.527,2.601v28.88c0,1.408,1.12,2.604,2.527,2.605h0.024
			c9.567,0,17.211-7.453,17.211-17.022C134.95,54.801,127.306,47.351,117.739,47.351"/>
	</g>
	<g>
		<path fill="#FFFFFF" d="M230.135,64.306c0,1.437-0.435,2.661-1.306,3.669c-0.876,1.007-2.096,1.7-3.669,2.077v0.096
			c1.854,0.23,3.262,0.796,4.22,1.691c0.955,0.898,1.435,2.107,1.435,3.631c0,2.217-0.805,3.939-2.409,5.176
			c-1.606,1.23-3.901,1.848-6.882,1.848c-2.5,0-4.716-0.416-6.646-1.244v-4.143c0.889,0.453,1.875,0.818,2.943,1.102
			c1.069,0.287,2.133,0.426,3.179,0.426c1.609,0,2.795-0.271,3.563-0.818c0.763-0.543,1.146-1.42,1.146-2.628
			c0-1.083-0.438-1.85-1.321-2.3c-0.88-0.451-2.286-0.676-4.222-0.676h-1.748v-3.734h1.782c1.786,0,3.088-0.234,3.912-0.698
			c0.823-0.467,1.238-1.269,1.238-2.403c0-1.743-1.092-2.614-3.276-2.614c-0.754,0-1.524,0.125-2.308,0.378
			c-0.782,0.252-1.648,0.688-2.607,1.308l-2.254-3.356c2.102-1.51,4.604-2.267,7.515-2.267c2.385,0,4.266,0.484,5.645,1.448
			C229.446,61.239,230.135,62.585,230.135,64.306z"/>
		<path fill="#FFFFFF" d="M241.759,67.471c2.226,0,3.997,0.625,5.316,1.875c1.319,1.25,1.979,2.961,1.979,5.135
			c0,2.572-0.796,4.551-2.378,5.938c-1.588,1.385-3.855,2.078-6.803,2.078c-2.563,0-4.633-0.416-6.206-1.246v-4.203
			c0.828,0.441,1.795,0.801,2.897,1.078c1.101,0.277,2.146,0.418,3.132,0.418c2.972,0,4.456-1.219,4.456-3.652
			c0-2.32-1.536-3.482-4.613-3.482c-0.555,0-1.17,0.055-1.841,0.167c-0.672,0.112-1.218,0.229-1.639,0.354l-1.938-1.039
			l0.871-11.733h12.484v4.125h-8.22l-0.425,4.521l0.55-0.11C240.021,67.543,240.815,67.471,241.759,67.471z"/>
		<path fill="#FFFFFF" d="M267.789,70.666c0,4.021-0.659,6.998-1.973,8.932c-1.318,1.93-3.35,2.896-6.088,2.896
			c-2.656,0-4.657-1-6.01-2.994c-1.346-1.992-2.024-4.938-2.024-8.834c0-4.062,0.657-7.057,1.973-8.984
			c1.309-1.925,3.331-2.891,6.062-2.891c2.655,0,4.663,1.008,6.023,3.025C267.113,63.831,267.789,66.784,267.789,70.666z
			 M256.531,70.666c0,2.826,0.242,4.851,0.734,6.072c0.484,1.223,1.307,1.836,2.463,1.836c1.133,0,1.953-0.621,2.457-1.859
			c0.504-1.237,0.754-3.254,0.754-6.049c0-2.823-0.252-4.852-0.761-6.084c-0.509-1.233-1.326-1.851-2.45-1.851
			c-1.144,0-1.964,0.618-2.457,1.851C256.776,65.814,256.531,67.843,256.531,70.666z"/>
		<path fill="#FFFFFF" d="M286.23,70.666c0,4.021-0.66,6.998-1.973,8.932c-1.318,1.93-3.35,2.896-6.088,2.896
			c-2.656,0-4.657-1-6.01-2.994c-1.347-1.992-2.024-4.938-2.024-8.834c0-4.062,0.656-7.057,1.972-8.984
			c1.308-1.925,3.331-2.891,6.062-2.891c2.655,0,4.662,1.008,6.022,3.025C285.553,63.831,286.23,66.784,286.23,70.666z
			 M274.973,70.666c0,2.826,0.242,4.851,0.734,6.072c0.484,1.223,1.306,1.836,2.463,1.836c1.133,0,1.953-0.621,2.457-1.859
			c0.504-1.237,0.754-3.254,0.754-6.049c0-2.823-0.252-4.852-0.762-6.084c-0.509-1.233-1.325-1.851-2.449-1.851
			c-1.144,0-1.964,0.618-2.457,1.851C275.217,65.814,274.973,67.843,274.973,70.666z"/>
	</g>
</g>
</svg>
