<?xml version="1.0" encoding="utf-8"?>
<!-- Generator: Adobe Illustrator 25.4.0, SVG Export Plug-In . SVG Version: 6.00 Build 0)  -->
<svg version="1.1" id="Calque_1" xmlns="http://www.w3.org/2000/svg" xmlns:xlink="http://www.w3.org/1999/xlink" x="0px" y="0px"
	 viewBox="0 0 400 138.9" style="enable-background:new 0 0 400 138.9;" xml:space="preserve">
<style type="text/css">
	.st0{fill:url(#SVGID_1_);}
	.st1{fill:#FFFFFF;}
</style>
<radialGradient id="SVGID_1_" cx="-1614.3013" cy="-1256.1245" r="235.6046" gradientTransform="matrix(0.9822 0 0 0.8512 1639.7632 1094.8835)" gradientUnits="userSpaceOnUse">
	<stop  offset="0" style="stop-color:#E53935"/>
	<stop  offset="0.9826" style="stop-color:#ED1C24"/>
</radialGradient>
<polygon class="st0" points="401.2,95 203.2,125 -1.2,95 -1.2,0 401.2,0 "/>
<g>
	<g>
		<path class="st1" d="M151.8,80.4c0,1-0.5,1.5-1.5,1.5h-2.5c-1,0-1.5-0.5-1.5-1.5V64.1c0-1.5,1.2-2.7,2.7-2.7s2.7,1.2,2.7,2.7
			L151.8,80.4L151.8,80.4z"/>
		<path class="st1" d="M188.1,69v11.4c0,1-0.5,1.5-1.4,1.5h-2.5c-1,0-1.5-0.5-1.5-1.5v-9.8c0-2.6-1.6-4-3.8-4s-3.8,1.3-3.8,3.9v9.9
			c0,1-0.5,1.5-1.5,1.5h-2.5c-1,0-1.5-0.5-1.5-1.5v-9.8c0-2.6-1.6-4-3.8-4s-3.8,1.4-3.8,4v9.8c0,1-0.5,1.5-1.5,1.5H158
			c-1,0-1.5-0.5-1.5-1.5V64.1c0-1.5,1.2-2.7,2.7-2.7c1.4,0,2.6,1,2.7,2.4c1.2-1.4,3.1-2.4,5.9-2.4c3,0,4.7,1.2,6,2.4
			c1.6-1.5,3.9-2.4,6.6-2.4C185.4,61.4,188.1,64.6,188.1,69"/>
		<path class="st1" d="M212.3,64.1v16.3c0,1-0.5,1.5-1.5,1.5h-2.5c-1,0-1.5-0.5-1.5-1.5v-0.3c-1.6,1.5-3.4,2.1-5.3,2.1
			c-5.5,0-10.2-4.7-10.2-10.5s4.7-10.4,10.2-10.4c2,0,3.9,0.6,5.5,1.9c0.3-1.1,1.4-1.9,2.6-1.9C211.1,61.4,212.3,62.6,212.3,64.1
			 M206.8,71.8c0-2.8-2.3-5.1-5.1-5.1s-5.1,2.3-5.1,5.1c0,2.9,2.3,5.2,5.1,5.2C204.6,76.9,206.8,74.7,206.8,71.8"/>
		<path class="st1" d="M139.8,50.8c0-4.7,3.7-8.3,8.4-8.3s8.4,3.6,8.4,8.3s-3.7,8.3-8.4,8.3C143.6,59.1,139.8,55.5,139.8,50.8"/>
		<path class="st1" d="M126.6,47.4L126.6,47.4c-1.4,0-2.6,1.2-2.6,2.6v28.9c0,1.4,1.1,2.6,2.5,2.6l0,0c9.6,0,17.2-7.5,17.2-17
			C143.8,54.8,136.1,47.4,126.6,47.4"/>
	</g>
	<g>
		<path class="st1" d="M257.7,70.7c0,4-0.7,7-2,8.9c-1.3,1.9-3.4,2.9-6.1,2.9s-4.7-1-6-3s-2-4.9-2-8.8c0-4.1,0.7-7.1,2-9
			s3.3-2.9,6.1-2.9c2.7,0,4.7,1,6,3C257,63.8,257.7,66.8,257.7,70.7z M246.3,70.7c0,2.8,0.2,4.8,0.7,6.1c0.5,1.2,1.3,1.8,2.5,1.8
			c1.1,0,2-0.6,2.5-1.9c0.5-1.2,0.8-3.3,0.8-6.1c0-2.8-0.3-4.9-0.8-6.1c-0.5-1.2-1.3-1.9-2.4-1.9s-2,0.6-2.5,1.9
			S246.3,67.8,246.3,70.7z"/>
		<path class="st1" d="M276,70.7c0,4-0.7,7-2,8.9s-3.4,2.9-6.1,2.9s-4.7-1-6-3c-1.4-2-2-4.9-2-8.8c0-4.1,0.7-7.1,2-9
			s3.3-2.9,6.1-2.9c2.7,0,4.7,1,6,3C275.5,63.8,276,66.8,276,70.7z M264.8,70.7c0,2.8,0.2,4.8,0.7,6.1c0.5,1.2,1.3,1.8,2.5,1.8
			c1.1,0,2-0.6,2.5-1.9c0.5-1.2,0.8-3.3,0.8-6.1c0-2.8-0.3-4.9-0.8-6.1c-0.5-1.2-1.3-1.9-2.5-1.9c-1.1,0-2,0.6-2.5,1.9
			S264.8,67.8,264.8,70.7z"/>
		<path class="st1" d="M231.6,67.1c2.2,0,4,0.6,5.3,1.9s2,3,2,5.1c0,2.6-0.8,4.6-2.4,5.9c-1.6,1.4-3.9,2.1-6.8,2.1
			c-2.6,0-4.6-0.4-6.2-1.2v-4.2c0.8,0.4,1.8,0.8,2.9,1.1c1.1,0.3,2.1,0.4,3.1,0.4c3,0,4.5-1.2,4.5-3.7c0-2.3-1.5-3.5-4.6-3.5
			c-0.6,0-1.2,0.1-1.8,0.2c-0.7,0.1-1.2,0.2-1.6,0.4l-1.9-1l0.9-11.7h12.5V63h-8.2l-0.4,4.5l0.6-0.1
			C229.9,67.2,230.8,67.1,231.6,67.1z"/>
	</g>
</g>
<g>
</g>
</svg>
