<?xml version="1.0" encoding="utf-8"?>
<!-- Generator: Adobe Illustrator 16.0.0, SVG Export Plug-In . SVG Version: 6.00 Build 0)  -->
<!DOCTYPE svg PUBLIC "-//W3C//DTD SVG 1.1//EN" "http://www.w3.org/Graphics/SVG/1.1/DTD/svg11.dtd">
<svg version="1.1" id="Calque_1" xmlns="http://www.w3.org/2000/svg" xmlns:xlink="http://www.w3.org/1999/xlink" x="0px" y="0px"
	 width="400px" height="138.945px" viewBox="0 0 400 138.945" enable-background="new 0 0 400 138.945" xml:space="preserve">
<radialGradient id="SVGID_1_" cx="678.5039" cy="600.991" r="235.6041" gradientTransform="matrix(0.9822 0 0 0.8512 -612.23 -485.8922)" gradientUnits="userSpaceOnUse">
	<stop  offset="0" style="stop-color:#E53935"/>
	<stop  offset="0.9826" style="stop-color:#ED1C24"/>
</radialGradient>
<polygon fill="url(#SVGID_1_)" points="401.158,94.991 203.221,124.991 -1.158,94.991 -1.158,0 401.158,0 "/>
<g>
	<g>
		<path fill="#FFFFFF" d="M143.109,80.422c0,0.988-0.498,1.488-1.453,1.488h-2.52c-0.99,0-1.488-0.5-1.488-1.488V64.119
			c0-1.525,1.222-2.748,2.711-2.748c1.526,0,2.749,1.223,2.749,2.748L143.109,80.422L143.109,80.422z"/>
		<path fill="#FFFFFF" d="M179.523,68.97v11.452c0,0.988-0.497,1.488-1.45,1.488h-2.521c-0.992,0-1.488-0.496-1.488-1.488v-9.848
			c0-2.557-1.566-3.972-3.78-3.972c-2.175,0-3.816,1.334-3.816,3.894v9.926c0,0.988-0.498,1.488-1.453,1.488h-2.519
			c-0.994,0-1.489-0.496-1.489-1.488v-9.848c0-2.557-1.564-3.972-3.777-3.972c-2.177,0-3.818,1.412-3.818,3.972v9.848
			c0,0.988-0.497,1.488-1.451,1.488h-2.519c-0.994,0-1.489-0.496-1.489-1.488V64.12c0-1.526,1.22-2.749,2.708-2.749
			c1.414,0,2.557,1.031,2.71,2.41c1.222-1.376,3.13-2.41,5.916-2.41c2.979,0,4.698,1.185,5.958,2.444
			c1.601-1.528,3.892-2.444,6.564-2.444C176.89,61.371,179.523,64.617,179.523,68.97"/>
		<path fill="#FFFFFF" d="M203.764,64.119v16.303c0,0.988-0.499,1.486-1.454,1.486h-2.518c-0.994,0-1.489-0.498-1.489-1.486v-0.27
			c-1.567,1.488-3.398,2.141-5.347,2.141c-5.498,0-10.189-4.656-10.189-10.5c0-5.763,4.692-10.422,10.189-10.422
			c2.024,0,3.893,0.574,5.459,1.91c0.345-1.105,1.376-1.91,2.596-1.91C202.537,61.371,203.764,62.594,203.764,64.119
			 M198.303,71.793c0-2.827-2.255-5.079-5.117-5.079c-2.788,0-5.115,2.254-5.115,5.079c0,2.9,2.327,5.154,5.115,5.154
			C196.048,76.947,198.303,74.693,198.303,71.793"/>
		<path fill="#FFFFFF" d="M131.228,50.818c0-4.688,3.728-8.322,8.416-8.322c4.664,0,8.391,3.635,8.391,8.322
			c0,4.665-3.728,8.298-8.391,8.298C134.956,59.115,131.228,55.483,131.228,50.818"/>
		<path fill="#FFFFFF" d="M117.917,47.352h-0.025c-1.409,0.002-2.527,1.194-2.527,2.601v28.879c0,1.406,1.118,2.602,2.527,2.604
			h0.025c9.567,0,17.211-7.453,17.211-17.021C135.128,54.802,127.484,47.352,117.917,47.352"/>
	</g>
	<g>
		<path fill="#FFFFFF" d="M224.338,82.181h-4.861V68.858l0.046-2.189l0.078-2.394c-0.811,0.807-1.37,1.339-1.688,1.592l-2.646,2.126
			l-2.346-2.931l7.416-5.905h3.997L224.338,82.181L224.338,82.181z"/>
		<path fill="#FFFFFF" d="M246.844,82.181h-16.096v-3.387l5.781-5.84c1.711-1.756,2.834-2.969,3.357-3.65
			c0.526-0.678,0.902-1.306,1.13-1.883c0.232-0.576,0.35-1.176,0.35-1.797c0-0.922-0.255-1.607-0.761-2.062
			c-0.509-0.45-1.191-0.677-2.043-0.677c-0.885,0-1.758,0.206-2.597,0.616c-0.841,0.404-1.717,0.99-2.629,1.747l-2.647-3.133
			c1.134-0.967,2.073-1.65,2.817-2.048c0.744-0.399,1.56-0.706,2.438-0.921c0.886-0.215,1.872-0.324,2.963-0.324
			c1.44,0,2.712,0.261,3.813,0.786c1.102,0.526,1.958,1.264,2.568,2.208c0.604,0.944,0.912,2.027,0.912,3.245
			c0,1.061-0.188,2.056-0.558,2.981c-0.375,0.931-0.953,1.884-1.736,2.859c-0.782,0.977-2.159,2.369-4.129,4.174l-2.964,2.787v0.223
			h10.036L246.844,82.181L246.844,82.181z"/>
		<path fill="#FFFFFF" d="M265.159,70.668c0,4.023-0.659,6.996-1.974,8.93c-1.318,1.932-3.352,2.898-6.087,2.898
			c-2.657,0-4.658-1-6.01-2.996c-1.347-1.99-2.025-4.934-2.025-8.832c0-4.063,0.655-7.058,1.973-8.985
			c1.309-1.927,3.331-2.891,6.062-2.891c2.654,0,4.662,1.008,6.022,3.027C264.48,63.832,265.159,66.785,265.159,70.668z
			 M253.9,70.668c0,2.826,0.243,4.848,0.734,6.074c0.484,1.221,1.307,1.836,2.464,1.836c1.132,0,1.952-0.621,2.456-1.861
			c0.505-1.24,0.754-3.252,0.754-6.049c0-2.823-0.252-4.852-0.761-6.083c-0.509-1.233-1.325-1.851-2.45-1.851
			c-1.144,0-1.964,0.618-2.457,1.851C254.146,65.815,253.9,67.844,253.9,70.668z"/>
		<path fill="#FFFFFF" d="M283.6,70.668c0,4.023-0.655,6.996-1.975,8.93c-1.316,1.932-3.35,2.898-6.086,2.898
			c-2.656,0-4.657-1-6.01-2.996c-1.349-1.99-2.026-4.934-2.026-8.832c0-4.063,0.657-7.058,1.975-8.985
			c1.309-1.927,3.328-2.891,6.062-2.891c2.653,0,4.662,1.008,6.023,3.027C282.924,63.832,283.6,66.785,283.6,70.668z
			 M272.342,70.668c0,2.826,0.244,4.848,0.737,6.074c0.489,1.221,1.312,1.836,2.462,1.836c1.133,0,1.951-0.621,2.457-1.861
			s0.754-3.252,0.754-6.049c0-2.823-0.254-4.852-0.761-6.083c-0.51-1.233-1.326-1.851-2.452-1.851c-1.144,0-1.962,0.618-2.457,1.851
			C272.586,65.815,272.342,67.844,272.342,70.668z"/>
	</g>
</g>
</svg>
