<?xml version="1.0" encoding="utf-8"?>
<!-- Generator: Adobe Illustrator 16.0.0, SVG Export Plug-In . SVG Version: 6.00 Build 0)  -->
<!DOCTYPE svg PUBLIC "-//W3C//DTD SVG 1.1//EN" "http://www.w3.org/Graphics/SVG/1.1/DTD/svg11.dtd">
<svg version="1.1" id="Calque_1" xmlns="http://www.w3.org/2000/svg" xmlns:xlink="http://www.w3.org/1999/xlink" x="0px" y="0px"
	 width="400px" height="138.945px" viewBox="0 0 400 138.945" enable-background="new 0 0 400 138.945" xml:space="preserve">
<polygon fill="#BBDEFB" points="401.158,94.991 203.221,124.991 -1.158,94.991 -1.158,0 401.158,0 "/>
<g>
	<g>
		<g>
			<path fill="#161616" d="M151.444,80.422c0,0.988-0.499,1.488-1.451,1.488h-2.52c-0.992,0-1.49-0.5-1.49-1.488V64.119
				c0-1.525,1.222-2.748,2.711-2.748c1.526,0,2.749,1.223,2.749,2.748L151.444,80.422L151.444,80.422z"/>
			<path fill="#161616" d="M187.857,68.97v11.452c0,0.99-0.497,1.488-1.449,1.488h-2.521c-0.992,0-1.488-0.496-1.488-1.488v-9.848
				c0-2.558-1.564-3.972-3.78-3.972c-2.175,0-3.816,1.334-3.816,3.894v9.926c0,0.99-0.498,1.488-1.45,1.488h-2.52
				c-0.994,0-1.492-0.496-1.492-1.488v-9.848c0-2.558-1.564-3.972-3.777-3.972c-2.177,0-3.818,1.412-3.818,3.972v9.848
				c0,0.99-0.497,1.488-1.451,1.488h-2.52c-0.993,0-1.489-0.496-1.489-1.488V64.12c0-1.526,1.22-2.749,2.711-2.749
				c1.412,0,2.557,1.031,2.708,2.409c1.223-1.376,3.133-2.409,5.917-2.409c2.979,0,4.698,1.185,5.957,2.444
				c1.601-1.528,3.894-2.444,6.564-2.444C185.224,61.371,187.857,64.617,187.857,68.97"/>
			<path fill="#161616" d="M212.098,64.119v16.303c0,0.988-0.499,1.486-1.449,1.486h-2.523c-0.993,0-1.488-0.498-1.488-1.486v-0.27
				c-1.564,1.488-3.398,2.141-5.347,2.141c-5.496,0-10.189-4.656-10.189-10.5c0-5.763,4.694-10.422,10.189-10.422
				c2.026,0,3.894,0.574,5.462,1.91c0.342-1.105,1.373-1.91,2.593-1.91C210.871,61.371,212.098,62.594,212.098,64.119
				 M206.637,71.793c0-2.826-2.255-5.078-5.117-5.078c-2.787,0-5.114,2.254-5.114,5.078c0,2.9,2.327,5.154,5.114,5.154
				C204.382,76.947,206.637,74.693,206.637,71.793"/>
			<path fill="#ED1C24" d="M139.564,50.818c0-4.688,3.726-8.322,8.414-8.322c4.663,0,8.391,3.634,8.391,8.322
				c0,4.665-3.728,8.298-8.391,8.298C143.29,59.115,139.564,55.483,139.564,50.818"/>
			<path fill="#ED1C24" d="M126.251,47.352h-0.024c-1.407,0.002-2.527,1.194-2.527,2.601v28.879c0,1.408,1.12,2.604,2.527,2.605
				h0.024c9.567,0,17.211-7.453,17.211-17.022C143.462,54.802,135.818,47.352,126.251,47.352"/>
		</g>
	</g>
	<g>
		<path fill="#161616" d="M239.544,82.181h-16.095v-3.389l5.781-5.84c1.711-1.754,2.832-2.969,3.354-3.649
			c0.527-0.676,0.903-1.304,1.133-1.881c0.232-0.576,0.348-1.176,0.348-1.797c0-0.922-0.253-1.609-0.761-2.062
			c-0.514-0.45-1.191-0.677-2.043-0.677c-0.893,0-1.759,0.206-2.597,0.616c-0.842,0.406-1.717,0.99-2.634,1.747l-2.643-3.133
			c1.135-0.967,2.073-1.65,2.818-2.048c0.745-0.399,1.56-0.706,2.439-0.921c0.884-0.215,1.87-0.324,2.961-0.324
			c1.44,0,2.713,0.261,3.813,0.787c1.101,0.525,1.958,1.262,2.563,2.205c0.61,0.946,0.917,2.027,0.917,3.245
			c0,1.061-0.188,2.056-0.558,2.983c-0.375,0.931-0.953,1.883-1.735,2.858c-0.782,0.977-2.159,2.369-4.135,4.174l-2.958,2.785v0.223
			h10.029L239.544,82.181L239.544,82.181z"/>
		<path fill="#161616" d="M257.86,70.668c0,4.021-0.66,6.996-1.974,8.93c-1.318,1.932-3.349,2.898-6.087,2.898
			c-2.657,0-4.658-1-6.01-2.994s-2.025-4.938-2.025-8.834c0-4.063,0.657-7.058,1.973-8.985c1.309-1.925,3.331-2.891,6.062-2.891
			c2.654,0,4.662,1.008,6.022,3.025C257.182,63.832,257.86,66.785,257.86,70.668z M246.602,70.668c0,2.826,0.243,4.848,0.734,6.074
			c0.484,1.221,1.307,1.836,2.464,1.836c1.132,0,1.952-0.621,2.456-1.861c0.505-1.24,0.754-3.254,0.754-6.049
			c0-2.823-0.252-4.852-0.766-6.084c-0.509-1.233-1.32-1.851-2.445-1.851c-1.148,0-1.969,0.618-2.457,1.851
			C246.847,65.815,246.602,67.844,246.602,70.668z"/>
		<path fill="#161616" d="M276.301,70.668c0,4.021-0.659,6.996-1.973,8.93c-1.318,1.932-3.35,2.898-6.088,2.898
			c-2.656,0-4.657-1-6.01-2.994c-1.346-1.994-2.024-4.938-2.024-8.834c0-4.063,0.657-7.058,1.973-8.985
			c1.309-1.925,3.331-2.891,6.062-2.891c2.655,0,4.663,1.008,6.023,3.025C275.625,63.832,276.301,66.785,276.301,70.668z
			 M265.043,70.668c0,2.826,0.242,4.848,0.734,6.074c0.484,1.221,1.307,1.836,2.463,1.836c1.133,0,1.953-0.621,2.457-1.861
			s0.754-3.254,0.754-6.049c0-2.823-0.252-4.852-0.761-6.084c-0.509-1.233-1.326-1.851-2.45-1.851c-1.144,0-1.964,0.618-2.457,1.851
			C265.288,65.815,265.043,67.844,265.043,70.668z"/>
	</g>
</g>
</svg>
