<?xml version="1.0" encoding="utf-8"?>
<!-- Generator: Adobe Illustrator 25.4.0, SVG Export Plug-In . SVG Version: 6.00 Build 0)  -->
<svg version="1.1" id="Calque_1" xmlns="http://www.w3.org/2000/svg" xmlns:xlink="http://www.w3.org/1999/xlink" x="0px" y="0px"
	 viewBox="0 0 400 138.9" style="enable-background:new 0 0 400 138.9;" xml:space="preserve">
<style type="text/css">
	.st0{fill:url(#SVGID_1_);}
	.st1{clip-path:url(#SVGID_00000128473537032450299990000009414928866371399582_);}
	.st2{fill:#D3001A;}
	.st3{fill:#FFC30E;}
	.st4{fill:#F70045;}
	.st5{fill:#FFFFFF;}
</style>
<radialGradient id="SVGID_1_" cx="-1621.2604" cy="1787.5907" r="235.6046" gradientTransform="matrix(0.9822 0 0 -0.8512 1646.5984 1547.2676)" gradientUnits="userSpaceOnUse">
	<stop  offset="0" style="stop-color:#E53935"/>
	<stop  offset="0.9826" style="stop-color:#ED1C24"/>
</radialGradient>
<polygon class="st0" points="401.2,95 203.2,125 -1.2,95 -1.2,0 401.2,0 "/>
<g>
	<g>
		<defs>
			<polygon id="SVGID_00000119085985420279524860000008492583649088524726_" points="401.2,95 203.2,125 -1.2,95 -1.2,0 401.2,0 			
				"/>
		</defs>
		<clipPath id="SVGID_00000002356590347816867880000002533572344236262840_">
			<use xlink:href="#SVGID_00000119085985420279524860000008492583649088524726_"  style="overflow:visible;"/>
		</clipPath>
		<g style="clip-path:url(#SVGID_00000002356590347816867880000002533572344236262840_);">
			<g>
				<g>
					<polygon class="st2" points="5.8,71.3 113.3,0 189,0 24.8,111.3 5.8,111.3 					"/>
					<polygon class="st3" points="0,71.3 107.5,0 186.5,0 15.1,111.3 0,111.3 					"/>
					<g>
						<path class="st4" d="M5.7,63.6L83.4,12c0.1-0.1,0.2-0.3,0.1-0.4c-0.1-0.1-0.3-0.2-0.4-0.1L5.4,63.1c-0.1,0.1-0.2,0.3-0.1,0.4
							C5.4,63.6,5.6,63.6,5.7,63.6z"/>
					</g>
					<g>
						<path class="st4" d="M5.6,59.1l68.7-45.6c0.1-0.1,0.2-0.3,0.1-0.4C74.3,13,74.1,13,74,13.1L5.3,58.6c-0.1,0.1-0.2,0.3-0.1,0.4
							C5.3,59.1,5.5,59.2,5.6,59.1z"/>
					</g>
					<g>
						<path class="st4" d="M141.9,37.3c0.1-0.1,0.2-0.3,0.1-0.4c-0.1-0.1-0.3-0.2-0.4-0.1L63.1,88c-0.2,0.1-0.2,0.3-0.1,0.4
							c0.1,0.1,0.3,0.2,0.4,0.1L141.9,37.3C141.9,37.3,141.9,37.3,141.9,37.3z"/>
					</g>
				</g>
			</g>
			<g>
				<path class="st2" d="M49.9,74.5c0.3,0.4,0.2,1-0.3,1.3l-1.5,1c-0.5,0.3-1,0.5-2,0.1l-12.8-4.5l6.1,9c0.3,0.5,0.2,1-0.3,1.3
					l-2.2,1.5c-0.5,0.3-1,0.2-1.3-0.3L26.4,70c-0.7-1.1-0.4-2.5,0.6-3.2c0.6-0.4,1.3-0.5,2.6-0.1L42.2,71L36.8,63
					c-0.7-1-0.4-2.5,0.7-3.2c1-0.7,2.5-0.4,3.2,0.6L49.9,74.5z"/>
				<path class="st2" d="M49.1,67.1c-2.4-3.6-1.4-8.4,2.2-10.8c3.6-2.4,8.4-1.4,10.8,2.2c2.4,3.7,1.4,8.5-2.2,10.9
					C56.3,71.7,51.5,70.8,49.1,67.1z M58.8,60.7c-1.2-1.8-3.5-2.2-5.3-1.1c-1.7,1.1-2.3,3.5-1.1,5.3c1.2,1.8,3.6,2.3,5.3,1.1
					C59.5,64.9,60,62.5,58.8,60.7z"/>
				<path class="st2" d="M72.5,44.8l6.9,10.4c0.3,0.4,0.2,0.8-0.2,1.1l-2.1,1.4c-0.4,0.3-0.8,0.2-1.1-0.2l-0.5-0.8
					c-0.2,1.4-0.8,3-2.5,4.1c-2.9,1.9-6.1,0.8-7.9-2L61,52.4c-0.6-1-0.4-2.2,0.6-2.8c1-0.6,2.2-0.4,2.9,0.6l3.5,5.4
					c1,1.6,2.6,1.8,4,0.9c1.4-0.9,1.8-2.5,0.7-4.1L69.1,47c-0.6-1-0.4-2.2,0.6-2.8C70.6,43.5,71.9,43.8,72.5,44.8z"/>
				<path class="st2" d="M86.5,35.7c0.2,0.4,0.3,0.7,0.4,1l2,11.8c0.2,1-0.2,1.9-0.9,2.4c-0.8,0.5-1.7,0.5-2.5-0.1l-10-6.5
					c-0.3-0.2-0.6-0.4-0.8-0.8c-0.6-1-0.4-2.4,0.6-3C76,40,77,40,77.9,40.7c2.1,1.5,4.2,3,6.3,4.5c-0.6-2.5-1.1-5.1-1.7-7.6
					c-0.2-1.1,0.2-2.1,0.9-2.5C84.5,34.4,85.9,34.8,86.5,35.7z"/>
				<path class="st2" d="M103.3,33.4l-8.2,5.4c1.3,1,3.3,0.9,5-0.3c1.1-0.7,1.8-1.7,2.2-2.4c0.2-0.4,0.4-0.7,0.8-0.9
					c0.8-0.5,2-0.4,2.5,0.5c0.4,0.6,0.4,1.4,0,2.2c-0.7,1.3-2.3,2.8-3.6,3.7c-4.1,2.7-8.7,1.9-11.2-1.9c-2.4-3.6-1.6-8.4,2.2-10.9
					c3.5-2.3,8.5-1.2,10.4,1.8C104.3,31.9,104,32.9,103.3,33.4z M99.7,32.3c-1.1-1.1-3.1-1.3-4.6-0.3c-1.6,1-2.1,2.9-1.6,4.4
					L99.7,32.3z"/>
				<path class="st2" d="M114.9,16.9l6.7,10.2c0.4,0.6,0.3,1.1-0.3,1.5l-1.6,1c-0.6,0.4-1.1,0.3-1.5-0.3l-0.1-0.2
					c-0.4,1.6-1.2,2.7-2.5,3.5c-3.4,2.3-8.3,1.3-10.7-2.4c-2.4-3.6-1.4-8.4,2.1-10.7c1.3-0.8,2.7-1.2,4.2-1.1
					c-0.2-0.8,0.1-1.8,0.8-2.3C113,15.6,114.2,15.9,114.9,16.9z M114.6,23.9c-1.2-1.8-3.5-2.2-5.3-1.1c-1.7,1.1-2.3,3.5-1.1,5.3
					c1.2,1.8,3.6,2.3,5.3,1.1C115.3,28.1,115.8,25.7,114.6,23.9z"/>
				<path class="st2" d="M129.3,7.4l6.9,10.4c0.3,0.4,0.2,0.8-0.2,1.1l-2.1,1.4c-0.4,0.3-0.8,0.2-1.1-0.2l-0.5-0.8
					c-0.2,1.4-0.8,3-2.5,4.1c-2.9,1.9-6.1,0.8-7.9-2l-4.2-6.4c-0.6-1-0.4-2.2,0.6-2.8c1-0.6,2.2-0.4,2.9,0.6l3.5,5.4
					c1,1.6,2.6,1.8,4,0.9c1.4-0.9,1.8-2.5,0.8-4.1l-3.5-5.4c-0.6-1-0.4-2.2,0.6-2.8C127.4,6.1,128.6,6.4,129.3,7.4z"/>
			</g>
			<g>
				<path class="st5" d="M47.7,74.3c0.3,0.4,0.2,1-0.3,1.3l-1.5,1c-0.5,0.3-1,0.5-2,0.1l-12.8-4.5l6.1,9c0.3,0.5,0.2,1-0.3,1.3
					L34.7,84c-0.5,0.3-1,0.2-1.3-0.3l-9.2-13.9c-0.7-1.1-0.4-2.5,0.6-3.2c0.6-0.4,1.3-0.5,2.6-0.1l12.6,4.3l-5.3-7.9
					c-0.7-1-0.4-2.5,0.7-3.2c1-0.7,2.5-0.4,3.2,0.6L47.7,74.3z"/>
				<path class="st5" d="M46.8,66.9c-2.4-3.6-1.4-8.4,2.2-10.8c3.6-2.4,8.4-1.4,10.8,2.2c2.4,3.7,1.4,8.5-2.2,10.9
					C54.1,71.5,49.3,70.6,46.8,66.9z M56.6,60.5c-1.2-1.8-3.5-2.2-5.3-1.1c-1.7,1.1-2.3,3.5-1.1,5.3c1.2,1.8,3.6,2.3,5.3,1.1
					C57.3,64.6,57.8,62.3,56.6,60.5z"/>
				<path class="st5" d="M70.3,44.6L77.2,55c0.3,0.4,0.2,0.8-0.2,1.1l-2.1,1.4c-0.4,0.3-0.8,0.2-1.1-0.2l-0.5-0.8
					c-0.2,1.4-0.8,3-2.5,4.1c-2.9,1.9-6.1,0.8-7.9-2l-4.2-6.4c-0.6-1-0.4-2.2,0.6-2.8c1-0.6,2.2-0.4,2.9,0.6l3.5,5.4
					c1,1.6,2.6,1.8,4,0.9c1.4-0.9,1.8-2.5,0.8-4.1l-3.5-5.4c-0.6-1-0.4-2.2,0.6-2.8C68.4,43.3,69.7,43.6,70.3,44.6z"/>
				<path class="st5" d="M84.3,35.5c0.2,0.4,0.3,0.7,0.4,1l2,11.8c0.2,1-0.2,1.9-0.9,2.4c-0.8,0.5-1.7,0.5-2.5-0.1l-10-6.5
					c-0.3-0.2-0.6-0.4-0.8-0.8c-0.6-1-0.4-2.4,0.6-3c0.7-0.5,1.8-0.5,2.7,0.2c2.1,1.5,4.2,3,6.3,4.5c-0.6-2.5-1.1-5.1-1.7-7.6
					c-0.2-1.1,0.2-2.1,0.9-2.5C82.3,34.2,83.7,34.5,84.3,35.5z"/>
				<path class="st5" d="M101.1,33.2l-8.2,5.4c1.3,1,3.3,0.9,5-0.3c1.1-0.7,1.8-1.7,2.2-2.4c0.2-0.4,0.4-0.7,0.8-0.9
					c0.8-0.5,2-0.4,2.5,0.5c0.4,0.6,0.4,1.4,0,2.2c-0.7,1.3-2.3,2.8-3.6,3.7c-4.1,2.7-8.7,1.9-11.2-1.9c-2.4-3.6-1.6-8.4,2.2-10.9
					c3.5-2.3,8.5-1.2,10.4,1.8C102.1,31.7,101.8,32.7,101.1,33.2z M97.5,32.1c-1.1-1.1-3.1-1.3-4.6-0.3c-1.6,1-2.1,2.9-1.6,4.4
					L97.5,32.1z"/>
				<path class="st5" d="M112.6,16.7l6.7,10.2c0.4,0.6,0.3,1.1-0.3,1.5l-1.6,1c-0.6,0.4-1.1,0.3-1.5-0.3l-0.1-0.2
					c-0.4,1.6-1.2,2.7-2.5,3.5c-3.4,2.3-8.3,1.3-10.7-2.4c-2.4-3.6-1.4-8.4,2.1-10.7c1.3-0.8,2.7-1.2,4.2-1.1
					c-0.2-0.8,0.1-1.8,0.8-2.3C110.7,15.4,112,15.7,112.6,16.7z M112.4,23.7c-1.2-1.8-3.5-2.2-5.3-1.1c-1.7,1.1-2.3,3.5-1.1,5.3
					c1.2,1.8,3.6,2.3,5.3,1.1C113.1,27.8,113.6,25.5,112.4,23.7z"/>
				<path class="st5" d="M127,7.2l6.9,10.4c0.3,0.4,0.2,0.8-0.2,1.1l-2.1,1.4c-0.4,0.3-0.8,0.2-1.1-0.2l-0.5-0.8
					c-0.2,1.4-0.8,3-2.5,4.1c-2.9,1.9-6.1,0.8-7.9-2l-4.2-6.4c-0.6-1-0.4-2.2,0.6-2.8c1-0.6,2.2-0.4,2.9,0.6l3.5,5.4
					c1,1.6,2.6,1.8,4,0.9c1.4-0.9,1.8-2.5,0.8-4.1l-3.5-5.4c-0.6-1-0.4-2.2,0.6-2.8C125.1,5.9,126.4,6.2,127,7.2z"/>
			</g>
		</g>
	</g>
</g>
<g>
	<g>
		<path class="st5" d="M162.3,80.4c0,1-0.5,1.5-1.5,1.5h-2.5c-1,0-1.5-0.5-1.5-1.5V64.1c0-1.5,1.2-2.7,2.7-2.7
			c1.5,0,2.7,1.2,2.7,2.7L162.3,80.4L162.3,80.4z"/>
		<path class="st5" d="M198.7,69v11.5c0,1-0.5,1.5-1.4,1.5h-2.5c-1,0-1.5-0.5-1.5-1.5v-9.8c0-2.6-1.6-4-3.8-4
			c-2.2,0-3.8,1.3-3.8,3.9v9.9c0,1-0.5,1.5-1.5,1.5h-2.5c-1,0-1.5-0.5-1.5-1.5v-9.8c0-2.6-1.6-4-3.8-4c-2.2,0-3.8,1.4-3.8,4v9.8
			c0,1-0.5,1.5-1.5,1.5h-2.5c-1,0-1.5-0.5-1.5-1.5V64.1c0-1.5,1.2-2.7,2.7-2.7c1.4,0,2.6,1,2.7,2.4c1.2-1.4,3.1-2.4,5.9-2.4
			c3,0,4.7,1.2,6,2.4c1.6-1.5,3.9-2.4,6.6-2.4C196,61.4,198.7,64.6,198.7,69"/>
		<path class="st5" d="M222.9,64.1v16.3c0,1-0.5,1.5-1.5,1.5h-2.5c-1,0-1.5-0.5-1.5-1.5v-0.3c-1.6,1.5-3.4,2.1-5.3,2.1
			c-5.5,0-10.2-4.7-10.2-10.5c0-5.8,4.7-10.4,10.2-10.4c2,0,3.9,0.6,5.5,1.9c0.3-1.1,1.4-1.9,2.6-1.9
			C221.7,61.4,222.9,62.6,222.9,64.1 M217.4,71.8c0-2.8-2.3-5.1-5.1-5.1c-2.8,0-5.1,2.3-5.1,5.1c0,2.9,2.3,5.2,5.1,5.2
			C215.2,76.9,217.4,74.7,217.4,71.8"/>
		<path class="st5" d="M150.4,50.8c0-4.7,3.7-8.3,8.4-8.3c4.7,0,8.4,3.6,8.4,8.3c0,4.7-3.7,8.3-8.4,8.3
			C154.1,59.1,150.4,55.5,150.4,50.8"/>
		<path class="st5" d="M137.1,47.4L137.1,47.4c-1.4,0-2.6,1.2-2.6,2.6v28.9c0,1.4,1.1,2.6,2.5,2.6h0c9.6,0,17.2-7.5,17.2-17
			C154.3,54.8,146.6,47.4,137.1,47.4"/>
	</g>
	<g>
		<path class="st5" d="M250.4,82.2h-16.1v-3.4L240,73c1.7-1.8,2.8-3,3.4-3.7c0.5-0.7,0.9-1.3,1.1-1.9c0.2-0.6,0.3-1.2,0.3-1.8
			c0-0.9-0.3-1.6-0.8-2.1c-0.5-0.5-1.2-0.7-2-0.7c-0.9,0-1.8,0.2-2.6,0.6c-0.8,0.4-1.7,1-2.6,1.7l-2.6-3.1c1.1-1,2.1-1.7,2.8-2
			c0.7-0.4,1.6-0.7,2.4-0.9c0.9-0.2,1.9-0.3,3-0.3c1.4,0,2.7,0.3,3.8,0.8c1.1,0.5,2,1.3,2.6,2.2c0.6,0.9,0.9,2,0.9,3.2
			c0,1.1-0.2,2.1-0.6,3c-0.4,0.9-0.9,1.9-1.7,2.9c-0.8,1-2.2,2.4-4.1,4.2l-3,2.8v0.2h10L250.4,82.2L250.4,82.2z"/>
		<path class="st5" d="M268.7,70.7c0,4-0.7,7-2,8.9c-1.3,1.9-3.3,2.9-6.1,2.9c-2.7,0-4.7-1-6-3c-1.4-2-2-4.9-2-8.8
			c0-4.1,0.7-7.1,2-9c1.3-1.9,3.3-2.9,6.1-2.9c2.7,0,4.7,1,6,3C268,63.8,268.7,66.8,268.7,70.7z M257.4,70.7c0,2.8,0.2,4.8,0.7,6.1
			c0.5,1.2,1.3,1.8,2.5,1.8c1.1,0,2-0.6,2.5-1.9c0.5-1.2,0.8-3.3,0.8-6c0-2.8-0.3-4.9-0.8-6.1c-0.5-1.2-1.3-1.9-2.4-1.9
			c-1.1,0-2,0.6-2.5,1.9C257.7,65.8,257.4,67.8,257.4,70.7z"/>
		<path class="st5" d="M287.1,70.7c0,4-0.7,7-2,8.9c-1.3,1.9-3.4,2.9-6.1,2.9c-2.7,0-4.7-1-6-3c-1.3-2-2-4.9-2-8.8
			c0-4.1,0.7-7.1,2-9c1.3-1.9,3.3-2.9,6.1-2.9c2.7,0,4.7,1,6,3C286.4,63.8,287.1,66.8,287.1,70.7z M275.9,70.7
			c0,2.8,0.2,4.8,0.7,6.1c0.5,1.2,1.3,1.8,2.5,1.8c1.1,0,2-0.6,2.5-1.9s0.8-3.3,0.8-6c0-2.8-0.3-4.9-0.8-6.1
			c-0.5-1.2-1.3-1.9-2.5-1.9c-1.1,0-2,0.6-2.5,1.9C276.1,65.8,275.9,67.8,275.9,70.7z"/>
		<path class="st5" d="M305.6,70.7c0,4-0.7,7-2,8.9c-1.3,1.9-3.4,2.9-6.1,2.9c-2.7,0-4.7-1-6-3c-1.3-2-2-4.9-2-8.8
			c0-4.1,0.7-7.1,2-9c1.3-1.9,3.3-2.9,6.1-2.9c2.7,0,4.7,1,6,3C304.9,63.8,305.6,66.8,305.6,70.7z M294.3,70.7
			c0,2.8,0.2,4.8,0.7,6.1c0.5,1.2,1.3,1.8,2.5,1.8c1.1,0,2-0.6,2.5-1.9s0.8-3.3,0.8-6c0-2.8-0.3-4.9-0.8-6.1
			c-0.5-1.2-1.3-1.9-2.4-1.9c-1.1,0-2,0.6-2.5,1.9C294.5,65.8,294.3,67.8,294.3,70.7z"/>
	</g>
</g>
</svg>
