<?xml version="1.0" encoding="utf-8"?>
<!-- Generator: Adobe Illustrator 16.0.0, SVG Export Plug-In . SVG Version: 6.00 Build 0)  -->
<!DOCTYPE svg PUBLIC "-//W3C//DTD SVG 1.1//EN" "http://www.w3.org/Graphics/SVG/1.1/DTD/svg11.dtd">
<svg version="1.1" id="Calque_1" xmlns="http://www.w3.org/2000/svg" xmlns:xlink="http://www.w3.org/1999/xlink" x="0px" y="0px"
	 width="400px" height="138.945px" viewBox="0 0 400 138.945" enable-background="new 0 0 400 138.945" xml:space="preserve">
<radialGradient id="SVGID_1_" cx="678.5039" cy="600.991" r="235.6041" gradientTransform="matrix(0.9822 0 0 0.8512 -612.23 -485.8922)" gradientUnits="userSpaceOnUse">
	<stop  offset="0.0819" style="stop-color:#ED1C24"/>
	<stop  offset="1" style="stop-color:#E53935"/>
</radialGradient>
<polygon fill="url(#SVGID_1_)" points="401.158,94.991 203.221,124.991 -1.158,94.991 -1.158,0 401.158,0 "/>
<g>
	<g>
		<path fill="#FFFFFF" d="M142.932,80.422c0,0.988-0.499,1.488-1.453,1.488h-2.52c-0.99,0-1.488-0.5-1.488-1.488V64.119
			c0-1.525,1.222-2.748,2.711-2.748c1.526,0,2.749,1.223,2.749,2.748L142.932,80.422L142.932,80.422z"/>
		<path fill="#FFFFFF" d="M179.346,68.97v11.452c0,0.99-0.497,1.488-1.449,1.488h-2.521c-0.992,0-1.488-0.496-1.488-1.488v-9.848
			c0-2.558-1.564-3.972-3.78-3.972c-2.175,0-3.815,1.334-3.815,3.894v9.926c0,0.99-0.499,1.488-1.453,1.488h-2.52
			c-0.991,0-1.489-0.496-1.489-1.488v-9.848c0-2.558-1.564-3.972-3.777-3.972c-2.177,0-3.818,1.412-3.818,3.972v9.848
			c0,0.99-0.497,1.488-1.451,1.488h-2.52c-0.993,0-1.489-0.496-1.489-1.488V64.12c0-1.526,1.22-2.749,2.708-2.749
			c1.414,0,2.557,1.031,2.71,2.409c1.223-1.376,3.133-2.409,5.917-2.409c2.979,0,4.698,1.185,5.957,2.444
			c1.602-1.528,3.892-2.444,6.564-2.444C176.712,61.371,179.346,64.617,179.346,68.97"/>
		<path fill="#FFFFFF" d="M203.586,64.119v16.303c0,0.988-0.499,1.486-1.454,1.486h-2.518c-0.994,0-1.488-0.498-1.488-1.486v-0.27
			c-1.568,1.488-3.398,2.141-5.347,2.141c-5.498,0-10.189-4.656-10.189-10.5c0-5.763,4.692-10.422,10.189-10.422
			c2.027,0,3.893,0.574,5.459,1.91c0.344-1.105,1.376-1.91,2.595-1.91C202.359,61.371,203.586,62.594,203.586,64.119
			 M198.125,71.793c0-2.826-2.255-5.078-5.117-5.078c-2.788,0-5.115,2.254-5.115,5.078c0,2.9,2.327,5.154,5.115,5.154
			C195.87,76.947,198.125,74.693,198.125,71.793"/>
		<path fill="#FFFFFF" d="M131.05,50.818c0-4.688,3.728-8.322,8.416-8.322c4.663,0,8.391,3.634,8.391,8.322
			c0,4.665-3.728,8.298-8.391,8.298C134.778,59.115,131.05,55.483,131.05,50.818"/>
		<path fill="#FFFFFF" d="M117.739,47.352h-0.024c-1.407,0.002-2.527,1.194-2.527,2.601v28.879c0,1.408,1.12,2.604,2.527,2.605
			h0.024c9.567,0,17.211-7.453,17.211-17.022C134.95,54.802,127.306,47.352,117.739,47.352"/>
	</g>
	<g>
		<path fill="#FFFFFF" d="M231.032,82.181h-16.095v-3.387l5.781-5.84c1.711-1.756,2.833-2.969,3.355-3.65
			c0.527-0.677,0.903-1.305,1.132-1.882c0.232-0.576,0.349-1.176,0.349-1.797c0-0.922-0.259-1.608-0.766-2.062
			c-0.508-0.45-1.187-0.677-2.038-0.677c-0.886,0-1.758,0.206-2.597,0.616c-0.842,0.405-1.717,0.99-2.635,1.747l-2.643-3.133
			c1.135-0.967,2.073-1.65,2.818-2.048c0.745-0.399,1.56-0.706,2.439-0.921c0.885-0.215,1.87-0.324,2.961-0.324
			c1.44,0,2.708,0.261,3.813,0.787c1.101,0.525,1.958,1.263,2.563,2.206c0.61,0.945,0.917,2.027,0.917,3.245
			c0,1.061-0.188,2.056-0.562,2.982c-0.369,0.931-0.947,1.883-1.73,2.858c-0.782,0.977-2.159,2.369-4.135,4.174l-2.963,2.785v0.223
			h10.035L231.032,82.181L231.032,82.181z"/>
		<path fill="#FFFFFF" d="M249.349,70.668c0,4.023-0.66,6.996-1.974,8.93c-1.318,1.932-3.349,2.898-6.087,2.898
			c-2.657,0-4.663-1-6.01-2.996c-1.352-1.992-2.025-4.936-2.025-8.832c0-4.063,0.656-7.058,1.973-8.985
			c1.309-1.926,3.331-2.891,6.062-2.891c2.654,0,4.662,1.008,6.022,3.026C248.67,63.832,249.349,66.785,249.349,70.668z
			 M238.09,70.668c0,2.826,0.243,4.848,0.734,6.074c0.484,1.221,1.307,1.836,2.464,1.836c1.132,0,1.952-0.621,2.456-1.861
			c0.505-1.24,0.754-3.252,0.754-6.049c0-2.823-0.257-4.852-0.766-6.083c-0.509-1.233-1.32-1.851-2.445-1.851
			c-1.148,0-1.969,0.618-2.457,1.851C238.335,65.815,238.09,67.844,238.09,70.668z"/>
		<path fill="#FFFFFF" d="M267.789,70.668c0,4.023-0.659,6.996-1.974,8.93c-1.317,1.932-3.35,2.898-6.087,2.898
			c-2.656,0-4.657-1-6.01-2.996c-1.346-1.992-2.025-4.936-2.025-8.832c0-4.063,0.657-7.058,1.974-8.985
			c1.309-1.926,3.331-2.891,6.062-2.891c2.655,0,4.663,1.008,6.023,3.026C267.113,63.832,267.789,66.785,267.789,70.668z
			 M256.531,70.668c0,2.826,0.242,4.848,0.734,6.074c0.484,1.221,1.307,1.836,2.463,1.836c1.133,0,1.953-0.621,2.456-1.861
			s0.754-3.252,0.754-6.049c0-2.823-0.253-4.852-0.761-6.083c-0.508-1.233-1.326-1.851-2.451-1.851
			c-1.148,0-1.969,0.618-2.456,1.851C256.776,65.815,256.531,67.844,256.531,70.668z"/>
		<path fill="#FFFFFF" d="M286.23,70.668c0,4.023-0.66,6.996-1.973,8.93c-1.318,1.932-3.35,2.898-6.088,2.898
			c-2.656,0-4.657-1-6.01-2.996c-1.347-1.992-2.024-4.936-2.024-8.832c0-4.063,0.656-7.058,1.972-8.985
			c1.308-1.926,3.331-2.891,6.062-2.891c2.655,0,4.662,1.008,6.022,3.026C285.553,63.832,286.23,66.785,286.23,70.668z
			 M274.973,70.668c0,2.826,0.242,4.848,0.734,6.074c0.485,1.221,1.307,1.836,2.463,1.836c1.133,0,1.953-0.621,2.457-1.861
			s0.754-3.252,0.754-6.049c0-2.823-0.252-4.852-0.762-6.083c-0.509-1.233-1.325-1.851-2.449-1.851
			c-1.144,0-1.965,0.618-2.457,1.851C275.217,65.815,274.973,67.844,274.973,70.668z"/>
	</g>
</g>
</svg>
