<?xml version="1.0" encoding="utf-8"?>
<!-- Generator: Adobe Illustrator 16.0.0, SVG Export Plug-In . SVG Version: 6.00 Build 0)  -->
<!DOCTYPE svg PUBLIC "-//W3C//DTD SVG 1.1//EN" "http://www.w3.org/Graphics/SVG/1.1/DTD/svg11.dtd">
<svg version="1.1" id="Calque_1" xmlns="http://www.w3.org/2000/svg" xmlns:xlink="http://www.w3.org/1999/xlink" x="0px" y="0px"
	 width="400px" height="138.945px" viewBox="0 0 400 138.945" enable-background="new 0 0 400 138.945" xml:space="preserve">
<radialGradient id="SVGID_1_" cx="-1628.2195" cy="-1679.0569" r="235.6046" gradientTransform="matrix(0.9822 0 0 0.8512 1653.4336 1454.8835)" gradientUnits="userSpaceOnUse">
	<stop  offset="0" style="stop-color:#E53935"/>
	<stop  offset="0.9826" style="stop-color:#ED1C24"/>
</radialGradient>
<polygon fill="url(#SVGID_1_)" points="401.158,94.991 203.221,124.991 -1.158,94.991 -1.158,0 401.158,0 "/>
<g>
	<g>
		<path fill="#FFFFFF" d="M162.256,80.422c0,0.988-0.498,1.488-1.453,1.488h-2.521c-0.989,0-1.487-0.5-1.487-1.488V64.119
			c0-1.523,1.222-2.748,2.711-2.748c1.525,0,2.749,1.225,2.749,2.748L162.256,80.422L162.256,80.422z"/>
		<path fill="#FFFFFF" d="M198.67,68.97v11.45c0,0.988-0.497,1.488-1.45,1.488h-2.521c-0.992,0-1.488-0.496-1.488-1.488v-9.848
			c0-2.557-1.566-3.972-3.78-3.972c-2.175,0-3.816,1.334-3.816,3.894v9.926c0,0.988-0.497,1.488-1.452,1.488h-2.52
			c-0.994,0-1.489-0.496-1.489-1.488v-9.848c0-2.557-1.563-3.972-3.776-3.972c-2.177,0-3.818,1.412-3.818,3.972v9.848
			c0,0.988-0.497,1.488-1.451,1.488h-2.519c-0.994,0-1.489-0.496-1.489-1.488V64.12c0-1.524,1.22-2.749,2.708-2.749
			c1.414,0,2.558,1.031,2.71,2.41c1.223-1.376,3.13-2.41,5.916-2.41c2.979,0,4.698,1.187,5.958,2.444
			c1.602-1.528,3.893-2.444,6.564-2.444C196.037,61.371,198.67,64.617,198.67,68.97"/>
		<path fill="#FFFFFF" d="M222.911,64.119v16.304c0,0.987-0.498,1.485-1.453,1.485h-2.52c-0.994,0-1.488-0.498-1.488-1.485v-0.271
			c-1.566,1.488-3.397,2.141-5.348,2.141c-5.498,0-10.188-4.654-10.188-10.5c0-5.763,4.691-10.422,10.188-10.422
			c2.024,0,3.894,0.574,5.459,1.91c0.346-1.104,1.376-1.91,2.597-1.91C221.683,61.371,222.911,62.594,222.911,64.119 M217.45,71.793
			c0-2.826-2.256-5.078-5.117-5.078c-2.788,0-5.115,2.255-5.115,5.078c0,2.9,2.327,5.154,5.115,5.154
			C215.194,76.947,217.45,74.693,217.45,71.793"/>
		<path fill="#FFFFFF" d="M150.375,50.818c0-4.688,3.728-8.322,8.416-8.322c4.664,0,8.391,3.636,8.391,8.322
			c0,4.665-3.728,8.298-8.391,8.298C154.102,59.115,150.375,55.483,150.375,50.818"/>
		<path fill="#FFFFFF" d="M137.063,47.352h-0.024c-1.409,0.002-2.527,1.192-2.527,2.601v28.879c0,1.406,1.118,2.604,2.527,2.604
			h0.024c9.567,0,17.211-7.453,17.211-17.021C154.274,54.802,146.631,47.352,137.063,47.352"/>
	</g>
	<g>
		<path fill="#FFFFFF" d="M243.484,82.181h-4.86V68.858l0.047-2.189l0.078-2.394c-0.813,0.807-1.371,1.339-1.688,1.592l-2.646,2.126
			l-2.348-2.931l7.416-5.905h3.997L243.484,82.181L243.484,82.181z"/>
		<path fill="#FFFFFF" d="M284.305,70.668c0,4.023-0.659,6.996-1.974,8.932c-1.318,1.932-3.354,2.896-6.088,2.896
			c-2.656,0-4.658-1-6.011-2.996c-1.347-1.988-2.024-4.934-2.024-8.832c0-4.062,0.654-7.058,1.974-8.983
			c1.31-1.928,3.331-2.893,6.063-2.893c2.653,0,4.661,1.01,6.021,3.027C283.627,63.832,284.305,66.785,284.305,70.668z
			 M273.047,70.668c0,2.826,0.242,4.85,0.732,6.074c0.484,1.221,1.309,1.836,2.465,1.836c1.133,0,1.951-0.621,2.456-1.859
			c0.505-1.24,0.755-3.253,0.755-6.051c0-2.821-0.253-4.852-0.763-6.083c-0.509-1.231-1.324-1.851-2.449-1.851
			c-1.145,0-1.965,0.618-2.457,1.851C273.293,65.815,273.047,67.844,273.047,70.668z"/>
		<path fill="#FFFFFF" d="M302.747,70.668c0,4.023-0.654,6.996-1.976,8.932c-1.315,1.932-3.35,2.896-6.086,2.896
			c-2.656,0-4.657-1-6.01-2.996c-1.35-1.988-2.026-4.934-2.026-8.832c0-4.062,0.657-7.058,1.977-8.983
			c1.309-1.928,3.327-2.893,6.062-2.893c2.653,0,4.662,1.01,6.022,3.027C302.07,63.832,302.747,66.785,302.747,70.668z
			 M291.488,70.668c0,2.826,0.244,4.85,0.737,6.074c0.489,1.221,1.313,1.836,2.462,1.836c1.133,0,1.951-0.621,2.457-1.859
			c0.506-1.24,0.754-3.253,0.754-6.051c0-2.821-0.254-4.852-0.761-6.083c-0.511-1.231-1.326-1.851-2.452-1.851
			c-1.145,0-1.962,0.618-2.457,1.851C291.732,65.815,291.488,67.844,291.488,70.668z"/>
		<path fill="#FFFFFF" d="M258.314,67.145c2.228,0,3.997,0.625,5.316,1.875s1.979,2.961,1.979,5.135
			c0,2.572-0.796,4.551-2.378,5.938c-1.588,1.386-3.854,2.077-6.803,2.077c-2.562,0-4.633-0.416-6.206-1.246v-4.201
			c0.828,0.439,1.795,0.801,2.897,1.076c1.101,0.277,2.146,0.419,3.132,0.419c2.972,0,4.456-1.22,4.456-3.651
			c0-2.32-1.536-3.482-4.613-3.482c-0.555,0-1.17,0.057-1.841,0.167c-0.673,0.112-1.218,0.229-1.641,0.354l-1.938-1.039
			l0.871-11.733h12.483v4.125h-8.221l-0.425,4.521l0.55-0.11C256.578,67.217,257.371,67.145,258.314,67.145z"/>
	</g>
</g>
<g>
	<defs>
		<polygon id="SVGID_2_" points="401.158,94.991 203.221,124.991 -1.158,94.991 -1.158,0 401.158,0 		"/>
	</defs>
	<clipPath id="SVGID_3_">
		<use xlink:href="#SVGID_2_"  overflow="visible"/>
	</clipPath>
	<g clip-path="url(#SVGID_3_)">
		<g>
			<g>
				<polygon fill="#D3001A" points="5.834,71.306 113.334,0 189,0 24.75,111.302 5.834,111.316 				"/>
				<polygon fill="#FFC30E" points="0,71.306 107.5,0 186.5,0 15.141,111.316 0,111.316 				"/>
				<g>
					<path fill="#F70045" d="M5.704,63.553l77.667-51.534c0.133-0.087,0.168-0.266,0.081-0.398
						c-0.089-0.133-0.267-0.169-0.398-0.081L5.385,63.076c-0.132,0.089-0.168,0.265-0.079,0.397
						C5.394,63.607,5.571,63.642,5.704,63.553z"/>
				</g>
				<g>
					<path fill="#F70045" d="M5.625,59.097L74.3,13.531c0.133-0.088,0.17-0.266,0.08-0.397c-0.087-0.132-0.265-0.169-0.396-0.08
						L5.307,58.618c-0.133,0.089-0.168,0.268-0.081,0.398C5.315,59.149,5.492,59.184,5.625,59.097z"/>
				</g>
				<g>
					<path fill="#F70045" d="M141.942,37.315c0.13-0.087,0.168-0.264,0.081-0.396c-0.086-0.133-0.264-0.17-0.397-0.084
						L63.091,87.966c-0.152,0.095-0.17,0.266-0.085,0.397c0.089,0.134,0.265,0.171,0.399,0.086l78.535-51.134
						C141.94,37.315,141.94,37.314,141.942,37.315z"/>
				</g>
			</g>
		</g>
		<g>
			<path fill="#D3001A" d="M49.943,74.503c0.267,0.406,0.216,0.953-0.261,1.268l-1.55,1.022c-0.454,0.298-0.961,0.464-1.982,0.11
				l-12.791-4.506l6.056,8.979c0.33,0.501,0.225,1.014-0.253,1.328l-2.242,1.479c-0.501,0.331-1.016,0.225-1.346-0.275L26.39,69.977
				c-0.693-1.05-0.431-2.522,0.642-3.231c0.597-0.393,1.302-0.516,2.576-0.09l12.562,4.313l-5.34-7.943
				c-0.691-1.05-0.398-2.476,0.651-3.167c1.049-0.692,2.499-0.415,3.189,0.634L49.943,74.503z"/>
			<path fill="#D3001A" d="M49.07,67.105c-2.375-3.602-1.384-8.431,2.219-10.807c3.602-2.375,8.431-1.382,10.806,2.22
				c2.406,3.65,1.415,8.478-2.188,10.852C56.304,71.746,51.476,70.755,49.07,67.105z M58.779,60.704
				c-1.164-1.765-3.499-2.245-5.288-1.066c-1.742,1.149-2.269,3.516-1.105,5.28c1.195,1.814,3.578,2.263,5.32,1.112
				C59.494,64.852,59.973,62.517,58.779,60.704z"/>
			<path fill="#D3001A" d="M72.531,44.759l6.888,10.448c0.283,0.43,0.202,0.825-0.227,1.108l-2.076,1.368
				c-0.429,0.283-0.825,0.203-1.108-0.227l-0.519-0.787c-0.181,1.386-0.815,2.966-2.461,4.052c-2.934,1.936-6.074,0.753-7.868-1.966
				l-4.199-6.369c-0.629-0.955-0.369-2.221,0.561-2.834c0.954-0.629,2.221-0.369,2.851,0.585l3.539,5.367
				c1.038,1.575,2.614,1.837,3.998,0.925c1.359-0.896,1.787-2.479,0.749-4.054l-3.538-5.367c-0.629-0.954-0.37-2.221,0.561-2.835
				C70.635,43.545,71.902,43.805,72.531,44.759z"/>
			<path fill="#D3001A" d="M86.518,35.709c0.235,0.357,0.345,0.731,0.383,1.048l2,11.755c0.177,1.046-0.176,1.86-0.939,2.363
				c-0.764,0.503-1.651,0.508-2.543-0.068l-10.015-6.47c-0.276-0.16-0.577-0.408-0.813-0.765c-0.629-0.955-0.424-2.356,0.625-3.048
				c0.739-0.487,1.77-0.481,2.686,0.181c2.124,1.509,4.232,2.993,6.333,4.518c-0.573-2.531-1.108-5.053-1.657-7.6
				c-0.248-1.103,0.153-2.052,0.893-2.54C84.519,34.391,85.888,34.755,86.518,35.709z"/>
			<path fill="#D3001A" d="M103.307,33.402l-8.158,5.379c1.278,1.004,3.284,0.88,5.049-0.284c1.121-0.739,1.808-1.671,2.159-2.382
				c0.176-0.356,0.408-0.68,0.766-0.916c0.811-0.535,1.951-0.363,2.549,0.545c0.424,0.644,0.397,1.38-0.043,2.218
				c-0.688,1.343-2.281,2.769-3.617,3.65c-4.079,2.689-8.703,1.905-11.219-1.912c-2.391-3.626-1.55-8.424,2.219-10.908
				c3.53-2.329,8.454-1.194,10.42,1.789C104.328,31.941,104.022,32.93,103.307,33.402z M99.683,32.265
				c-1.12-1.075-3.068-1.331-4.643-0.294c-1.574,1.038-2.131,2.946-1.583,4.399L99.683,32.265z"/>
			<path fill="#D3001A" d="M114.851,16.859l6.715,10.186c0.409,0.621,0.303,1.135-0.293,1.528l-1.574,1.038
				c-0.621,0.408-1.135,0.303-1.544-0.317l-0.11-0.167c-0.365,1.576-1.242,2.736-2.459,3.538c-3.435,2.265-8.288,1.29-10.694-2.36
				c-2.375-3.603-1.359-8.448,2.075-10.712c1.265-0.833,2.67-1.246,4.198-1.056c-0.241-0.834,0.073-1.759,0.836-2.262
				C112.955,15.644,114.222,15.905,114.851,16.859z M114.601,23.903c-1.164-1.765-3.499-2.244-5.288-1.065
				c-1.742,1.148-2.269,3.515-1.105,5.28c1.194,1.812,3.578,2.26,5.32,1.113C115.317,28.051,115.796,25.716,114.601,23.903z"/>
			<path fill="#D3001A" d="M129.26,7.359l6.888,10.449c0.283,0.43,0.202,0.825-0.227,1.108l-2.076,1.368
				c-0.429,0.283-0.826,0.202-1.108-0.228l-0.519-0.787c-0.181,1.386-0.815,2.967-2.461,4.053c-2.934,1.934-6.074,0.753-7.868-1.966
				l-4.199-6.369c-0.629-0.955-0.369-2.221,0.561-2.835c0.954-0.628,2.221-0.368,2.851,0.586l3.538,5.367
				c1.038,1.575,2.614,1.837,3.998,0.924c1.36-0.896,1.788-2.479,0.75-4.054l-3.539-5.367c-0.628-0.954-0.369-2.221,0.561-2.834
				C127.364,6.145,128.631,6.405,129.26,7.359z"/>
		</g>
		<g>
			<path fill="#FFFFFF" d="M47.72,74.299c0.267,0.405,0.217,0.952-0.261,1.267l-1.55,1.022c-0.454,0.299-0.961,0.463-1.982,0.109
				l-12.791-4.504l6.056,8.979c0.33,0.5,0.225,1.015-0.252,1.329l-2.243,1.479c-0.501,0.33-1.015,0.226-1.346-0.276l-9.184-13.931
				c-0.693-1.05-0.431-2.523,0.643-3.231c0.597-0.393,1.302-0.515,2.576-0.089l12.562,4.313l-5.34-7.945
				c-0.691-1.049-0.398-2.476,0.651-3.167c1.049-0.692,2.499-0.415,3.189,0.634L47.72,74.299z"/>
			<path fill="#FFFFFF" d="M46.847,66.9c-2.375-3.603-1.384-8.431,2.219-10.807c3.602-2.375,8.431-1.382,10.806,2.22
				c2.407,3.65,1.415,8.478-2.188,10.852C54.082,71.542,49.254,70.551,46.847,66.9z M56.556,60.499
				c-1.164-1.765-3.499-2.245-5.288-1.066c-1.742,1.149-2.269,3.516-1.105,5.281c1.195,1.813,3.578,2.261,5.32,1.112
				C57.272,64.647,57.751,62.313,56.556,60.499z"/>
			<path fill="#FFFFFF" d="M70.309,44.554l6.888,10.448c0.284,0.43,0.202,0.825-0.227,1.108l-2.076,1.368
				c-0.429,0.283-0.825,0.203-1.108-0.227l-0.519-0.787c-0.181,1.386-0.815,2.966-2.461,4.052c-2.934,1.935-6.074,0.753-7.868-1.966
				l-4.199-6.369c-0.628-0.955-0.369-2.221,0.561-2.834c0.954-0.629,2.221-0.369,2.851,0.585l3.538,5.367
				c1.038,1.575,2.614,1.837,3.998,0.925c1.359-0.896,1.788-2.479,0.75-4.054l-3.539-5.367c-0.629-0.954-0.37-2.221,0.561-2.835
				C68.413,43.34,69.68,43.6,70.309,44.554z"/>
			<path fill="#FFFFFF" d="M84.296,35.504c0.235,0.357,0.345,0.731,0.383,1.048l2,11.755c0.177,1.046-0.176,1.86-0.939,2.363
				c-0.764,0.503-1.651,0.508-2.543-0.068l-10.015-6.47c-0.276-0.16-0.577-0.408-0.813-0.765c-0.629-0.955-0.424-2.356,0.625-3.048
				c0.74-0.487,1.77-0.482,2.686,0.181c2.124,1.509,4.232,2.993,6.333,4.518c-0.573-2.531-1.107-5.054-1.657-7.6
				c-0.248-1.103,0.153-2.052,0.893-2.54C82.297,34.186,83.666,34.55,84.296,35.504z"/>
			<path fill="#FFFFFF" d="M101.085,33.197l-8.158,5.379c1.278,1.004,3.284,0.88,5.049-0.284c1.121-0.739,1.808-1.671,2.159-2.382
				c0.176-0.356,0.408-0.68,0.766-0.916c0.811-0.535,1.951-0.363,2.549,0.545c0.425,0.644,0.397,1.38-0.043,2.218
				c-0.688,1.343-2.281,2.769-3.617,3.65c-4.079,2.689-8.703,1.905-11.219-1.912c-2.391-3.626-1.55-8.424,2.219-10.909
				c3.53-2.328,8.454-1.193,10.42,1.789C102.106,31.736,101.801,32.725,101.085,33.197z M97.461,32.06
				c-1.119-1.075-3.068-1.331-4.643-0.294c-1.574,1.038-2.13,2.946-1.583,4.399L97.461,32.06z"/>
			<path fill="#FFFFFF" d="M112.629,16.654l6.715,10.186c0.409,0.621,0.303,1.135-0.293,1.528l-1.574,1.038
				c-0.621,0.408-1.135,0.303-1.544-0.317l-0.11-0.167c-0.365,1.576-1.242,2.736-2.458,3.538c-3.435,2.265-8.288,1.29-10.694-2.36
				c-2.375-3.603-1.359-8.448,2.076-10.712c1.264-0.833,2.669-1.246,4.197-1.056c-0.241-0.834,0.073-1.759,0.836-2.262
				C110.733,15.439,112,15.699,112.629,16.654z M112.379,23.698c-1.164-1.765-3.499-2.244-5.288-1.065
				c-1.742,1.148-2.269,3.515-1.105,5.28c1.195,1.812,3.578,2.26,5.32,1.113C113.094,27.846,113.573,25.51,112.379,23.698z"/>
			<path fill="#FFFFFF" d="M127.038,7.154l6.888,10.449c0.284,0.43,0.202,0.825-0.227,1.108l-2.076,1.368
				c-0.429,0.283-0.826,0.202-1.108-0.228l-0.519-0.787c-0.181,1.386-0.815,2.967-2.461,4.053c-2.934,1.934-6.074,0.753-7.868-1.966
				l-4.199-6.369c-0.629-0.955-0.369-2.221,0.561-2.835c0.955-0.628,2.221-0.368,2.851,0.586l3.538,5.367
				c1.038,1.575,2.614,1.837,3.998,0.924c1.36-0.896,1.788-2.479,0.75-4.054l-3.539-5.367c-0.628-0.954-0.369-2.221,0.561-2.834
				C125.142,5.94,126.408,6.2,127.038,7.154z"/>
		</g>
	</g>
</g>
</svg>
