<?xml version="1.0" encoding="utf-8"?>
<!-- Generator: Adobe Illustrator 25.4.0, SVG Export Plug-In . SVG Version: 6.00 Build 0)  -->
<svg version="1.1" id="Calque_1" xmlns="http://www.w3.org/2000/svg" xmlns:xlink="http://www.w3.org/1999/xlink" x="0px" y="0px"
	 viewBox="0 0 400 138.9" style="enable-background:new 0 0 400 138.9;" xml:space="preserve">
<style type="text/css">
	.st0{fill:url(#SVGID_1_);}
	.st1{fill:#FFFFFF;}
</style>
<radialGradient id="SVGID_1_" cx="-1621.2604" cy="1787.5907" r="235.6046" gradientTransform="matrix(0.9822 0 0 -0.8512 1646.5984 1547.2676)" gradientUnits="userSpaceOnUse">
	<stop  offset="0" style="stop-color:#E53935"/>
	<stop  offset="0.9826" style="stop-color:#ED1C24"/>
</radialGradient>
<polygon class="st0" points="401.2,95 203.2,125 -1.2,95 -1.2,0 401.2,0 "/>
<g>
	<g>
		<path class="st1" d="M143.6,80.4c0,1-0.5,1.5-1.5,1.5h-2.5c-1,0-1.5-0.5-1.5-1.5V64.1c0-1.5,1.2-2.7,2.7-2.7
			c1.5,0,2.7,1.2,2.7,2.7L143.6,80.4L143.6,80.4z"/>
		<path class="st1" d="M180,69v11.4c0,1-0.5,1.5-1.5,1.5h-2.5c-1,0-1.5-0.5-1.5-1.5v-9.8c0-2.6-1.6-4-3.8-4c-2.2,0-3.8,1.3-3.8,3.9
			v9.9c0,1-0.5,1.5-1.5,1.5H163c-1,0-1.5-0.5-1.5-1.5v-9.8c0-2.6-1.6-4-3.8-4c-2.2,0-3.8,1.4-3.8,4v9.8c0,1-0.5,1.5-1.5,1.5H150
			c-1,0-1.5-0.5-1.5-1.5V64.1c0-1.5,1.2-2.7,2.7-2.7c1.4,0,2.6,1,2.7,2.4c1.2-1.4,3.1-2.4,5.9-2.4c3,0,4.7,1.2,6,2.4
			c1.6-1.5,3.9-2.4,6.6-2.4C177.4,61.4,180,64.6,180,69"/>
		<path class="st1" d="M204.3,64.1v16.3c0,1-0.5,1.5-1.5,1.5h-2.5c-1,0-1.5-0.5-1.5-1.5v-0.3c-1.6,1.5-3.4,2.1-5.3,2.1
			c-5.5,0-10.2-4.7-10.2-10.5c0-5.8,4.7-10.4,10.2-10.4c2,0,3.9,0.6,5.5,1.9c0.3-1.1,1.4-1.9,2.6-1.9
			C203.1,61.4,204.3,62.6,204.3,64.1 M198.8,71.8c0-2.8-2.3-5.1-5.1-5.1c-2.8,0-5.1,2.3-5.1,5.1c0,2.9,2.3,5.2,5.1,5.2
			C196.6,76.9,198.8,74.7,198.8,71.8"/>
		<path class="st1" d="M131.7,50.8c0-4.7,3.7-8.3,8.4-8.3c4.7,0,8.4,3.6,8.4,8.3c0,4.7-3.7,8.3-8.4,8.3
			C135.5,59.1,131.7,55.5,131.7,50.8"/>
		<path class="st1" d="M118.4,47.4L118.4,47.4c-1.4,0-2.6,1.2-2.6,2.6v28.9c0,1.4,1.1,2.6,2.5,2.6h0c9.6,0,17.2-7.5,17.2-17
			C135.6,54.8,128,47.4,118.4,47.4"/>
	</g>
	<g>
		<path class="st1" d="M224.9,82.2H220V68.9l0-2.2l0.1-2.4c-0.8,0.8-1.4,1.3-1.7,1.6l-2.6,2.1l-2.3-2.9l7.4-5.9h4L224.9,82.2
			L224.9,82.2z"/>
		<path class="st1" d="M265.7,70.7c0,4-0.7,7-2,8.9c-1.3,1.9-3.4,2.9-6.1,2.9c-2.7,0-4.7-1-6-3c-1.3-2-2-4.9-2-8.8
			c0-4.1,0.7-7.1,2-9c1.3-1.9,3.3-2.9,6.1-2.9c2.7,0,4.7,1,6,3C265,63.8,265.7,66.8,265.7,70.7z M254.4,70.7c0,2.8,0.2,4.8,0.7,6.1
			c0.5,1.2,1.3,1.8,2.5,1.8c1.1,0,2-0.6,2.5-1.9c0.5-1.2,0.8-3.3,0.8-6.1c0-2.8-0.3-4.9-0.8-6.1c-0.5-1.2-1.3-1.9-2.4-1.9
			c-1.1,0-2,0.6-2.5,1.9C254.7,65.8,254.4,67.8,254.4,70.7z"/>
		<path class="st1" d="M284.1,70.7c0,4-0.7,7-2,8.9c-1.3,1.9-3.4,2.9-6.1,2.9c-2.7,0-4.7-1-6-3c-1.4-2-2-4.9-2-8.8
			c0-4.1,0.7-7.1,2-9c1.3-1.9,3.3-2.9,6.1-2.9c2.7,0,4.7,1,6,3C283.4,63.8,284.1,66.8,284.1,70.7z M272.9,70.7
			c0,2.8,0.2,4.8,0.7,6.1c0.5,1.2,1.3,1.8,2.5,1.8c1.1,0,2-0.6,2.5-1.9c0.5-1.2,0.8-3.3,0.8-6.1c0-2.8-0.3-4.9-0.8-6.1
			c-0.5-1.2-1.3-1.9-2.5-1.9c-1.1,0-2,0.6-2.5,1.9C273.1,65.8,272.9,67.8,272.9,70.7z"/>
		<path class="st1" d="M239.7,67.1c2.2,0,4,0.6,5.3,1.9s2,3,2,5.1c0,2.6-0.8,4.6-2.4,5.9c-1.6,1.4-3.9,2.1-6.8,2.1
			c-2.6,0-4.6-0.4-6.2-1.2v-4.2c0.8,0.4,1.8,0.8,2.9,1.1c1.1,0.3,2.1,0.4,3.1,0.4c3,0,4.5-1.2,4.5-3.7c0-2.3-1.5-3.5-4.6-3.5
			c-0.6,0-1.2,0.1-1.8,0.2c-0.7,0.1-1.2,0.2-1.6,0.4l-1.9-1l0.9-11.7h12.5V63h-8.2l-0.4,4.5l0.6-0.1
			C237.9,67.2,238.7,67.1,239.7,67.1z"/>
	</g>
</g>
<g>
	<g>
		<defs>
			<polygon id="SVGID_00000064348539112589496970000016303206897781951135_" points="401.2,95 203.2,125 -1.2,95 -1.2,0 401.2,0 			
				"/>
		</defs>
		<clipPath id="SVGID_00000108280986068623185730000007088713563742262188_">
			<use xlink:href="#SVGID_00000064348539112589496970000016303206897781951135_"  style="overflow:visible;"/>
		</clipPath>
	</g>
</g>
</svg>
