<?xml version="1.0" encoding="utf-8"?>
<!-- Generator: Adobe Illustrator 16.0.0, SVG Export Plug-In . SVG Version: 6.00 Build 0)  -->
<!DOCTYPE svg PUBLIC "-//W3C//DTD SVG 1.1//EN" "http://www.w3.org/Graphics/SVG/1.1/DTD/svg11.dtd">
<svg version="1.1" id="Calque_1" xmlns="http://www.w3.org/2000/svg" xmlns:xlink="http://www.w3.org/1999/xlink" x="0px" y="0px"
	 width="400px" height="138.945px" viewBox="0 0 400 138.945" enable-background="new 0 0 400 138.945" xml:space="preserve">
<polygon fill="#BBDEFB" points="401.158,94.991 203.221,124.991 -1.158,94.991 -1.158,0 401.158,0 "/>
<g>
	<path fill="#161616" d="M73.196,57.285v4.226h6.729c1.377,0,2.502,0.97,2.502,2.346c0,1.377-1.125,2.347-2.502,2.347h-6.729v6.917
		c0,0.656-0.406,1.062-1.032,1.062h-2.942c-0.657,0-1.063-0.406-1.063-1.062V55.033c0-1.628,1.127-2.44,2.472-2.44h0.031h10.67
		c1.376,0,2.503,0.97,2.503,2.347c0,1.376-1.127,2.346-2.503,2.346L73.196,57.285L73.196,57.285z"/>
	<path fill="#161616" d="M83.96,65.892c0-4.727,3.817-8.543,8.542-8.543s8.542,3.817,8.542,8.543c0,4.788-3.817,8.604-8.542,8.604
		C87.779,74.496,83.96,70.677,83.96,65.892z M96.696,65.892c0-2.316-1.847-4.164-4.193-4.164c-2.284,0-4.193,1.848-4.193,4.164
		c0,2.379,1.909,4.225,4.193,4.225C94.85,70.115,96.696,68.269,96.696,65.892z"/>
	<path fill="#161616" d="M111.964,61.728c-2.16,0-4.13,1.753-4.13,4.288v7.291c0,0.564-0.314,0.877-0.876,0.877h-2.722
		c-0.563,0-0.876-0.312-0.876-0.877v-7.258c0-3.193,1.721-5.977,4.192-7.48c1.66-1.032,3.067-1.22,4.881-1.22
		c0.752,0,1.346,0,1.878,0.218c0.844,0.345,1.376,1.127,1.376,2.065c0,1.127-0.876,2.16-2.159,2.16
		C112.997,61.791,112.559,61.728,111.964,61.728z"/>
	<path fill="#161616" d="M128.484,59.788c0,1.222-0.939,2.192-2.159,2.192h-3.003v11.327c0,0.564-0.312,0.877-0.876,0.877h-2.722
		c-0.563,0-0.876-0.312-0.876-0.877l0.031-11.327h-0.406c-1.22,0-2.16-0.97-2.16-2.192c0-1.157,0.939-2.128,2.16-2.128h0.406v-0.156
		c0-4.537,2.597-6.978,6.133-6.978h1.752c1.408,0,2.314,1.157,2.314,2.44c0,1.283-1.157,2.284-2.346,2.284h-1.002
		c-1.376,0-2.409,0.72-2.409,2.409h3.004C127.546,57.66,128.484,58.631,128.484,59.788z"/>
	<path fill="#161616" d="M146.601,59.6v13.362c0,0.814-0.406,1.221-1.189,1.221h-2.064c-0.814,0-1.22-0.406-1.22-1.221v-0.219
		c-1.284,1.221-2.785,1.752-4.381,1.752c-4.506,0-8.354-3.816-8.354-8.604c0-4.727,3.849-8.543,8.354-8.543
		c1.658,0,3.192,0.47,4.474,1.563c0.281-0.906,1.127-1.563,2.129-1.563C145.599,57.348,146.601,58.349,146.601,59.6z
		 M142.127,65.892c0-2.316-1.847-4.164-4.194-4.164c-2.284,0-4.192,1.848-4.192,4.164c0,2.379,1.909,4.225,4.192,4.225
		C140.28,70.115,142.127,68.269,142.127,65.892z"/>
	<path fill="#161616" d="M150.198,53.061c0-1.409,1.158-2.566,2.597-2.566c1.408,0,2.566,1.157,2.566,2.566
		c0,1.438-1.158,2.597-2.566,2.597C151.356,55.658,150.198,54.5,150.198,53.061z M155.049,72.963c0,0.814-0.408,1.221-1.189,1.221
		h-2.065c-0.813,0-1.221-0.406-1.221-1.221V59.6c0-1.251,1.002-2.252,2.222-2.252c1.252,0,2.253,1,2.253,2.252V72.963
		L155.049,72.963z"/>
	<path fill="#161616" d="M169.035,71.929c0,1.252-1.001,2.254-2.253,2.254h-1.877c-2.222,0-3.379-0.377-4.193-1.283
		c-0.875-0.971-1.158-2.504-1.158-4.881v-6.038h-0.407c-1.22,0-2.158-0.97-2.158-2.192c0-1.157,0.938-2.128,2.158-2.128h0.407
		v-2.377c0-1.314,1.001-2.19,2.285-2.19c1.189,0,2.191,0.876,2.191,2.19l-0.031,2.377h2.847c1.22,0,2.16,0.97,2.16,2.128
		c0,1.222-0.939,2.192-2.16,2.192h-2.879l-0.03,5.725c0,1.597,0.688,2.004,1.971,2.004h0.877
		C168.033,69.708,169.035,70.709,169.035,71.929z"/>
	<path fill="#161616" d="M177.825,53.061c0-1.409,1.159-2.566,2.597-2.566c1.409,0,2.566,1.157,2.566,2.566
		c0,1.438-1.157,2.597-2.566,2.597C178.984,55.658,177.825,54.5,177.825,53.061z M182.675,72.963c0,0.814-0.407,1.221-1.189,1.221
		h-2.065c-0.814,0-1.22-0.406-1.22-1.221V59.6c0-1.251,1.001-2.252,2.221-2.252c1.251,0,2.253,1,2.253,2.252V72.963L182.675,72.963z
		"/>
	<path fill="#161616" d="M201.826,63.575v9.733c0,0.562-0.313,0.875-0.876,0.875h-2.725c-0.563,0-0.875-0.312-0.875-0.875v-8.419
		c0-2.065-1.283-3.255-3.098-3.255c-1.784,0-3.129,1.188-3.129,3.255v8.417c0,0.564-0.313,0.877-0.876,0.877h-2.723
		c-0.563,0-0.875-0.312-0.875-0.877V59.6c0-1.251,1.001-2.252,2.222-2.252c1.126,0,2.096,0.845,2.221,1.971
		c1.001-1.126,2.566-1.971,4.726-1.971C199.666,57.348,201.826,60.007,201.826,63.575z"/>
	<path fill="#161616" d="M215.591,71.929c0,1.252-1,2.254-2.253,2.254h-1.876c-2.223,0-3.379-0.377-4.193-1.283
		c-0.875-0.971-1.157-2.504-1.157-4.881v-6.038h-0.407c-1.222,0-2.159-0.97-2.159-2.192c0-1.157,0.938-2.128,2.159-2.128h0.407
		v-2.377c0-1.314,1.002-2.19,2.285-2.19c1.188,0,2.19,0.876,2.19,2.19l-0.03,2.377h2.848c1.219,0,2.157,0.97,2.157,2.128
		c0,1.222-0.939,2.192-2.157,2.192h-2.881l-0.029,5.725c0,1.597,0.687,2.004,1.971,2.004h0.875
		C214.591,69.708,215.591,70.709,215.591,71.929z"/>
	<path fill="#161616" d="M231.8,67.768h-10.701c0.563,1.688,2.472,2.787,4.788,2.787c1.47,0,2.658-0.439,3.411-0.877
		c0.375-0.22,0.78-0.377,1.25-0.377c1.063,0,2.002,0.846,2.002,2.036c0,0.844-0.469,1.5-1.376,2.004
		c-1.438,0.812-3.754,1.156-5.507,1.156c-5.351,0-9.105-3.502-9.105-8.511c0-4.756,3.661-8.636,8.605-8.636
		c4.63,0,8.447,4.004,8.447,7.916C233.614,67.048,232.738,67.768,231.8,67.768z M229.172,64.547
		c-0.377-1.66-2.004-3.068-4.069-3.068s-3.724,1.408-4.099,3.068H229.172z"/>
	<path fill="#161616" d="M244.283,61.728c-2.159,0-4.13,1.753-4.13,4.288v7.291c0,0.564-0.313,0.877-0.876,0.877h-2.724
		c-0.563,0-0.877-0.312-0.877-0.877v-7.258c0-3.193,1.722-5.977,4.194-7.48c1.657-1.032,3.066-1.22,4.881-1.22
		c0.75,0,1.346,0,1.878,0.218c0.843,0.345,1.375,1.127,1.375,2.065c0,1.127-0.875,2.16-2.158,2.16
		C245.313,61.791,244.878,61.728,244.283,61.728z"/>
	<path fill="#161616" d="M264.747,63.575v9.733c0,0.562-0.313,0.875-0.877,0.875h-2.723c-0.562,0-0.875-0.312-0.875-0.875v-8.419
		c0-2.065-1.283-3.255-3.099-3.255c-1.783,0-3.129,1.188-3.129,3.255v8.417c0,0.564-0.312,0.877-0.875,0.877h-2.724
		c-0.563,0-0.875-0.312-0.875-0.877V59.6c0-1.251,1-2.252,2.221-2.252c1.128,0,2.097,0.845,2.223,1.971
		c0.999-1.126,2.566-1.971,4.725-1.971C262.587,57.348,264.747,60.007,264.747,63.575z"/>
	<path fill="#161616" d="M282.644,67.768h-10.701c0.563,1.688,2.471,2.787,4.787,2.787c1.471,0,2.66-0.439,3.411-0.877
		c0.375-0.22,0.781-0.377,1.252-0.377c1.062,0,2.002,0.846,2.002,2.036c0,0.844-0.469,1.5-1.377,2.004
		c-1.438,0.812-3.754,1.156-5.506,1.156c-5.352,0-9.106-3.502-9.106-8.511c0-4.756,3.662-8.636,8.605-8.636
		c4.631,0,8.448,4.004,8.448,7.916C284.457,67.048,283.582,67.768,282.644,67.768z M280.013,64.547
		c-0.375-1.66-2.001-3.068-4.065-3.068c-2.065,0-3.724,1.408-4.099,3.068H280.013z"/>
	<path fill="#161616" d="M297.066,71.929c0,1.252-0.999,2.254-2.253,2.254h-1.876c-2.222,0-3.379-0.377-4.191-1.283
		c-0.878-0.971-1.158-2.504-1.158-4.881v-6.038h-0.407c-1.221,0-2.159-0.97-2.159-2.192c0-1.157,0.939-2.128,2.159-2.128h0.407
		v-2.377c0-1.314,1.001-2.19,2.284-2.19c1.188,0,2.19,0.876,2.19,2.19l-0.03,2.377h2.847c1.221,0,2.157,0.97,2.157,2.128
		c0,1.222-0.938,2.192-2.157,2.192h-2.881l-0.029,5.725c0,1.597,0.688,2.004,1.971,2.004h0.877
		C296.065,69.708,297.066,70.709,297.066,71.929z"/>
	<path fill="#161616" d="M320.814,67.299c0,4.757-3.66,7.195-7.792,7.195c-2.784,0-5.256-1.031-6.507-2.658
		c-0.658-0.783-0.847-1.158-0.847-1.91c0-1.315,1.064-2.44,2.41-2.44c0.719,0,1.375,0.345,1.908,0.846c0,0,1.471,1.408,3.035,1.408
		c1.751,0,2.909-1.063,2.909-2.473c0-1.407-1.187-2.347-2.753-2.347h-4.224c-1.377,0-2.41-1.064-2.285-2.628l0.562-7.479
		c0.094-1.22,1.035-2.221,2.254-2.221h8.574c1.281,0,2.314,1.063,2.314,2.314c0,1.251-1.033,2.285-2.314,2.285h-6.07l-0.25,2.941
		h1.719C317.467,60.132,320.814,62.606,320.814,67.299z"/>
	<path fill="#161616" d="M341.121,63.418c0,6.572-3.223,11.078-8.729,11.078c-5.539,0-8.73-4.506-8.73-11.078
		c0-6.635,3.191-11.14,8.73-11.14C337.898,52.278,341.121,56.783,341.121,63.418z M336.209,63.418c0-4.13-1.251-6.383-3.816-6.383
		c-2.567,0-3.816,2.253-3.816,6.383c0,4.132,1.251,6.321,3.816,6.321C334.957,69.74,336.209,67.55,336.209,63.418z"/>
</g>
</svg>
