<?xml version="1.0" encoding="utf-8"?>
<!-- Generator: Adobe Illustrator 25.4.0, SVG Export Plug-In . SVG Version: 6.00 Build 0)  -->
<svg version="1.1" id="Calque_1" xmlns="http://www.w3.org/2000/svg" xmlns:xlink="http://www.w3.org/1999/xlink" x="0px" y="0px"
	 viewBox="0 0 400 138.9" style="enable-background:new 0 0 400 138.9;" xml:space="preserve">
<style type="text/css">
	.st0{fill:url(#SVGID_1_);}
	.st1{clip-path:url(#SVGID_00000138546705791479413400000004399662683509664174_);}
	.st2{fill:#D3001A;}
	.st3{fill:#FFC30E;}
	.st4{fill:#F70045;}
	.st5{fill:#ED1C24;}
	.st6{fill:#FFFFFF;}
</style>
<radialGradient id="SVGID_1_" cx="-1621.2604" cy="1787.5907" r="235.6046" gradientTransform="matrix(0.9822 0 0 -0.8512 1646.5984 1547.2676)" gradientUnits="userSpaceOnUse">
	<stop  offset="0" style="stop-color:#E53935"/>
	<stop  offset="0.9826" style="stop-color:#ED1C24"/>
</radialGradient>
<polygon class="st0" points="401.2,95 203.2,125 -1.2,95 -1.2,0 401.2,0 "/>
<g>
	<defs>
		<polygon id="SVGID_00000084531227872200959000000017878317025184115587_" points="401.2,95 203.2,125 -1.2,95 -1.2,0 401.2,0 		
			"/>
	</defs>
	<clipPath id="SVGID_00000095303195212447319180000018237667136262507917_">
		<use xlink:href="#SVGID_00000084531227872200959000000017878317025184115587_"  style="overflow:visible;"/>
	</clipPath>
	<g style="clip-path:url(#SVGID_00000095303195212447319180000018237667136262507917_);">
		<g>
			<polygon class="st2" points="5.8,71.3 113.3,0 189,0 24.8,111.3 5.8,111.3 			"/>
			<polygon class="st3" points="0,71.3 107.5,0 186.5,0 15.1,111.3 0,111.3 			"/>
			<g>
				<path class="st4" d="M5.7,63.6L83.4,12c0.1-0.1,0.2-0.3,0.1-0.4c-0.1-0.1-0.3-0.2-0.4-0.1L5.4,63.1c-0.1,0.1-0.2,0.3-0.1,0.4
					C5.4,63.6,5.6,63.6,5.7,63.6z"/>
			</g>
			<g>
				<path class="st4" d="M5.6,59.1l68.7-45.6c0.1-0.1,0.2-0.3,0.1-0.4C74.3,13,74.1,13,74,13.1L5.3,58.6c-0.1,0.1-0.2,0.3-0.1,0.4
					C5.3,59.1,5.5,59.2,5.6,59.1z"/>
			</g>
			<g>
				<path class="st4" d="M141.9,37.3c0.1-0.1,0.2-0.3,0.1-0.4c-0.1-0.1-0.3-0.2-0.4-0.1L63.1,88c-0.2,0.1-0.2,0.3-0.1,0.4
					c0.1,0.1,0.3,0.2,0.4,0.1L141.9,37.3C141.9,37.3,141.9,37.3,141.9,37.3z"/>
			</g>
		</g>
	</g>
</g>
<g>
	<g>
		<path class="st5" d="M53.6,57.2c2.7,4.6,1.9,9.3-1.6,11.9c-1.3,0.9-2,1.4-3.3,2.4c1.2,2.2,1.8,3.3,3,5.3c0.3,0.6,0.2,1.2-0.3,1.6
			c-1,0.7-1.5,1.1-2.5,1.8c-0.6,0.4-1.1,0.3-1.4-0.3c-3.5-6.8-6-11.1-9.6-17.9c-0.7-1.3-0.3-2.9,0.7-3.7c2-1.5,3-2.2,5.1-3.7
			C47.1,52.1,51.2,53,53.6,57.2z M49.8,60.2c-1-1.6-2.7-2.1-4.1-1.2c-1.2,0.8-1.8,1.3-2.9,2.1c1.3,2.3,2,3.5,3.3,6
			c1.2-0.9,1.8-1.3,3-2.1C50.5,63.9,50.8,61.8,49.8,60.2z"/>
		<path class="st5" d="M63.1,53.2c-1.7,1.2-2.2,4-0.8,6.5c1.7,2.8,2.5,4.2,4,6.8c0.3,0.5,0.2,1-0.2,1.3c-0.9,0.6-1.3,0.9-2.2,1.6
			c-0.4,0.3-0.9,0.2-1.1-0.3c-1.5-2.6-2.3-4-4-6.8c-1.8-3.1-2.1-6.8-1-9.6c0.7-1.9,1.7-2.9,3.2-3.9c0.6-0.4,1.1-0.8,1.6-0.8
			c0.9-0.1,1.7,0.3,2.2,1.2c0.6,1.1,0.5,2.6-0.5,3.3C63.9,52.6,63.6,52.8,63.1,53.2z"/>
		<path class="st5" d="M68.1,55.3c-2.7-4.6-1.8-10.4,1.9-13c3.7-2.6,8.8-1,11.3,3.6c2.6,4.7,1.6,10.2-2,12.8
			C75.7,61.2,70.8,59.9,68.1,55.3z M78,48.3c-1.3-2.2-3.7-3-5.6-1.7c-1.8,1.3-2.2,4.1-0.9,6.4c1.3,2.3,3.8,3,5.6,1.7
			C78.9,53.3,79.3,50.6,78,48.3z"/>
		<path class="st5" d="M101.8,28.2c1.9,3.7,2.9,5.6,4.6,9.1c0.4,0.8,0.2,1.3-0.3,1.8c-0.6,0.4-0.9,0.7-1.5,1.1
			c-0.6,0.4-1.1,0.3-1.4-0.5c-1.5-3-2.3-4.6-4-7.8c-1.1-2.1-2.6-2.5-4-1.6c-1.3,0.9-1.8,2.7-0.7,4.8c1.7,3.2,2.5,4.8,4,7.9
			c0.4,0.8,0.2,1.3-0.3,1.8c-0.6,0.4-0.9,0.7-1.5,1.1c-0.6,0.4-1.1,0.3-1.5-0.5c-1.5-3-2.4-4.6-4.1-7.8C90,35.5,88.4,35,87,36
			c-1.4,1-1.8,2.8-0.7,4.9c1.7,3.2,2.6,4.8,4.1,7.8c0.4,0.8,0.3,1.3-0.3,1.8c-0.6,0.4-0.9,0.7-1.5,1.1c-0.6,0.4-1.1,0.3-1.5-0.5
			c-2.6-4.9-4.2-7.7-7.1-12.9c-0.7-1.2-0.4-2.7,0.5-3.4c0.9-0.6,2.7,0.7,2.7,0.7c0.1,0,1-3.3,2.7-4.5c1.9-1.3,4.5-0.6,4.7-0.7
			c0.4-0.2,1.4-3.7,3.1-4.8C97,23.2,99.9,24.7,101.8,28.2z"/>
		<path class="st5" d="M104.9,29.1c-2.4-4.6-1.5-10.3,1.9-12.7s8.1-0.6,10.6,3.8c2.6,4.5,1.5,10-2,12.6
			C111.8,35.3,107.3,33.8,104.9,29.1z M114.2,22.4c-1.2-2.2-3.5-3.1-5.2-1.9c-1.7,1.2-2.1,4-0.9,6.2c1.2,2.3,3.5,3.1,5.2,1.9
			C115,27.4,115.5,24.7,114.2,22.4z"/>
	</g>
	<g>
		<g>
			<g>
				<path class="st6" d="M51.5,57.1c2.7,4.6,1.9,9.3-1.6,11.9c-1.3,0.9-2,1.4-3.3,2.4c1.2,2.2,1.8,3.3,3,5.3
					c0.3,0.6,0.2,1.2-0.3,1.6c-1,0.7-1.5,1.1-2.5,1.8c-0.6,0.4-1.1,0.3-1.4-0.3c-3.5-6.8-6-11.1-9.6-17.9c-0.7-1.3-0.3-2.9,0.7-3.7
					c2-1.5,3-2.2,5.1-3.7C45,52,49.1,53,51.5,57.1z M47.7,60.1c-1-1.6-2.7-2.1-4.1-1.2c-1.2,0.8-1.8,1.3-2.9,2.1
					c1.3,2.3,2,3.5,3.3,6c1.2-0.9,1.8-1.3,3-2.1C48.4,63.9,48.7,61.8,47.7,60.1z"/>
				<path class="st6" d="M61,53.1c-1.7,1.2-2.2,4-0.8,6.5c1.7,2.8,2.5,4.2,4,6.8c0.3,0.5,0.2,1-0.2,1.3c-0.9,0.6-1.3,0.9-2.2,1.5
					c-0.4,0.3-0.9,0.2-1.1-0.3c-1.5-2.6-2.3-4-4-6.8c-1.8-3.1-2.1-6.8-1-9.6c0.7-1.9,1.7-2.9,3.2-3.9c0.6-0.4,1.1-0.8,1.6-0.8
					c0.9-0.1,1.7,0.3,2.2,1.2c0.6,1.1,0.5,2.6-0.5,3.3C61.8,52.6,61.5,52.8,61,53.1z"/>
				<path class="st6" d="M66,55.3c-2.7-4.6-1.8-10.4,1.9-13s8.8-1,11.3,3.6c2.6,4.7,1.6,10.2-2,12.8C73.6,61.2,68.7,59.9,66,55.3z
					 M75.9,48.2c-1.3-2.3-3.7-3-5.6-1.7c-1.8,1.3-2.2,4.1-0.9,6.4c1.3,2.3,3.8,3,5.6,1.7C76.8,53.3,77.2,50.5,75.9,48.2z"/>
				<path class="st6" d="M99.7,28.2c1.9,3.7,2.9,5.6,4.6,9.1c0.4,0.8,0.2,1.4-0.3,1.8c-0.6,0.4-0.9,0.7-1.5,1.1
					c-0.6,0.4-1.1,0.3-1.4-0.5c-1.5-3-2.3-4.6-4-7.8c-1.1-2.1-2.6-2.5-4-1.6c-1.3,0.9-1.8,2.7-0.7,4.8c1.7,3.2,2.5,4.8,4,7.9
					c0.4,0.8,0.2,1.3-0.3,1.8c-0.6,0.4-0.9,0.7-1.5,1.1c-0.6,0.4-1.1,0.3-1.5-0.5c-1.5-3-2.4-4.6-4.1-7.8c-1.1-2.1-2.7-2.5-4.1-1.5
					c-1.4,1-1.8,2.8-0.7,4.9c1.7,3.2,2.6,4.8,4.1,7.8c0.4,0.8,0.3,1.3-0.3,1.8c-0.6,0.4-0.9,0.7-1.5,1.1c-0.6,0.4-1.1,0.3-1.5-0.5
					c-2.6-4.9-4.2-7.7-7.1-12.9c-0.7-1.2-0.4-2.7,0.5-3.4c0.9-0.6,2.7,0.7,2.7,0.7c0.1,0,1-3.3,2.7-4.5c1.9-1.3,4.5-0.6,4.7-0.7
					c0.4-0.2,1.4-3.7,3.1-4.8C94.9,23.2,97.8,24.7,99.7,28.2z"/>
				<path class="st6" d="M102.8,29.1c-2.4-4.6-1.5-10.3,1.9-12.7c3.4-2.4,8.1-0.6,10.6,3.8c2.6,4.5,1.5,10-2,12.6
					C109.7,35.3,105.2,33.8,102.8,29.1z M112.1,22.4c-1.2-2.2-3.5-3.1-5.2-1.9c-1.7,1.2-2.1,4-0.9,6.2c1.2,2.3,3.5,3.1,5.2,1.9
					C112.9,27.4,113.4,24.7,112.1,22.4z"/>
			</g>
		</g>
	</g>
</g>
<g>
	<g>
		<path class="st6" d="M162.3,80.4c0,1-0.5,1.5-1.5,1.5h-2.5c-1,0-1.5-0.5-1.5-1.5V64.1c0-1.5,1.2-2.7,2.7-2.7
			c1.5,0,2.7,1.2,2.7,2.7L162.3,80.4L162.3,80.4z"/>
		<path class="st6" d="M198.7,69v11.5c0,1-0.5,1.5-1.4,1.5h-2.5c-1,0-1.5-0.5-1.5-1.5v-9.8c0-2.6-1.6-4-3.8-4
			c-2.2,0-3.8,1.3-3.8,3.9v9.9c0,1-0.5,1.5-1.5,1.5h-2.5c-1,0-1.5-0.5-1.5-1.5v-9.8c0-2.6-1.6-4-3.8-4c-2.2,0-3.8,1.4-3.8,4v9.8
			c0,1-0.5,1.5-1.5,1.5h-2.5c-1,0-1.5-0.5-1.5-1.5V64.1c0-1.5,1.2-2.7,2.7-2.7c1.4,0,2.6,1,2.7,2.4c1.2-1.4,3.1-2.4,5.9-2.4
			c3,0,4.7,1.2,6,2.4c1.6-1.5,3.9-2.4,6.6-2.4C196,61.4,198.7,64.6,198.7,69"/>
		<path class="st6" d="M222.9,64.1v16.3c0,1-0.5,1.5-1.5,1.5h-2.5c-1,0-1.5-0.5-1.5-1.5v-0.3c-1.6,1.5-3.4,2.1-5.3,2.1
			c-5.5,0-10.2-4.7-10.2-10.5c0-5.8,4.7-10.4,10.2-10.4c2,0,3.9,0.6,5.5,1.9c0.3-1.1,1.4-1.9,2.6-1.9
			C221.7,61.4,222.9,62.6,222.9,64.1 M217.4,71.8c0-2.8-2.3-5.1-5.1-5.1c-2.8,0-5.1,2.3-5.1,5.1c0,2.9,2.3,5.2,5.1,5.2
			C215.2,76.9,217.4,74.7,217.4,71.8"/>
		<path class="st6" d="M150.4,50.8c0-4.7,3.7-8.3,8.4-8.3c4.7,0,8.4,3.6,8.4,8.3c0,4.7-3.7,8.3-8.4,8.3
			C154.1,59.1,150.4,55.5,150.4,50.8"/>
		<path class="st6" d="M137.1,47.4L137.1,47.4c-1.4,0-2.6,1.2-2.6,2.6v28.9c0,1.4,1.1,2.6,2.5,2.6h0c9.6,0,17.2-7.5,17.2-17
			C154.3,54.8,146.6,47.4,137.1,47.4"/>
	</g>
	<g>
		<path class="st6" d="M243.5,82.2h-4.9V68.9l0-2.2l0.1-2.4c-0.8,0.8-1.4,1.3-1.7,1.6l-2.6,2.1l-2.3-2.9l7.4-5.9h4L243.5,82.2
			L243.5,82.2z"/>
		<path class="st6" d="M266,82.2h-16.1v-3.4l5.8-5.8c1.7-1.8,2.8-3,3.4-3.7c0.5-0.7,0.9-1.3,1.1-1.9c0.2-0.6,0.4-1.2,0.4-1.8
			c0-0.9-0.3-1.6-0.8-2.1c-0.5-0.5-1.2-0.7-2-0.7c-0.9,0-1.8,0.2-2.6,0.6c-0.8,0.4-1.7,1-2.6,1.7l-2.6-3.1c1.1-1,2.1-1.7,2.8-2
			c0.7-0.4,1.6-0.7,2.4-0.9c0.9-0.2,1.9-0.3,3-0.3c1.4,0,2.7,0.3,3.8,0.8c1.1,0.5,2,1.3,2.6,2.2c0.6,0.9,0.9,2,0.9,3.2
			c0,1.1-0.2,2.1-0.6,3c-0.4,0.9-1,1.9-1.7,2.9c-0.8,1-2.2,2.4-4.1,4.2l-3,2.8v0.2h10L266,82.2L266,82.2z"/>
		<path class="st6" d="M284.3,70.7c0,4-0.7,7-2,8.9c-1.3,1.9-3.4,2.9-6.1,2.9c-2.7,0-4.7-1-6-3c-1.3-2-2-4.9-2-8.8
			c0-4.1,0.7-7.1,2-9c1.3-1.9,3.3-2.9,6.1-2.9c2.7,0,4.7,1,6,3C283.6,63.8,284.3,66.8,284.3,70.7z M273,70.7c0,2.8,0.2,4.8,0.7,6.1
			c0.5,1.2,1.3,1.8,2.5,1.8c1.1,0,2-0.6,2.5-1.9c0.5-1.2,0.8-3.3,0.8-6c0-2.8-0.3-4.9-0.8-6.1c-0.5-1.2-1.3-1.9-2.5-1.9
			c-1.1,0-2,0.6-2.5,1.9C273.3,65.8,273,67.8,273,70.7z"/>
		<path class="st6" d="M302.7,70.7c0,4-0.7,7-2,8.9c-1.3,1.9-3.4,2.9-6.1,2.9c-2.7,0-4.7-1-6-3c-1.3-2-2-4.9-2-8.8
			c0-4.1,0.7-7.1,2-9c1.3-1.9,3.3-2.9,6.1-2.9c2.7,0,4.7,1,6,3C302.1,63.8,302.7,66.8,302.7,70.7z M291.5,70.7
			c0,2.8,0.2,4.8,0.7,6.1c0.5,1.2,1.3,1.8,2.5,1.8c1.1,0,2-0.6,2.5-1.9s0.8-3.3,0.8-6c0-2.8-0.3-4.9-0.8-6.1
			c-0.5-1.2-1.3-1.9-2.5-1.9c-1.1,0-2,0.6-2.5,1.9C291.7,65.8,291.5,67.8,291.5,70.7z"/>
	</g>
</g>
</svg>
