<?xml version="1.0" encoding="utf-8"?>
<!-- Generator: Adobe Illustrator 16.0.0, SVG Export Plug-In . SVG Version: 6.00 Build 0)  -->
<!DOCTYPE svg PUBLIC "-//W3C//DTD SVG 1.1//EN" "http://www.w3.org/Graphics/SVG/1.1/DTD/svg11.dtd">
<svg version="1.1" id="Layer_1" xmlns="http://www.w3.org/2000/svg" xmlns:xlink="http://www.w3.org/1999/xlink" x="0px" y="0px"
	 width="142.333px" height="53px" viewBox="0 0 142.333 53" enable-background="new 0 0 142.333 53" xml:space="preserve">
<g>
	<g>
		<g>
			<defs>
				<path id="SVGID_1_" d="M3.048,25.76c0,9.973,8.085,18.061,18.06,18.061c9.973,0,18.059-8.088,18.059-18.061
					S31.082,7.701,21.108,7.701C11.133,7.701,3.048,15.786,3.048,25.76"/>
			</defs>
			<clipPath id="SVGID_2_">
				<use xlink:href="#SVGID_1_"  overflow="visible"/>
			</clipPath>
			
				<linearGradient id="SVGID_3_" gradientUnits="userSpaceOnUse" x1="-795.4268" y1="-277.9199" x2="-794.9438" y2="-277.9199" gradientTransform="matrix(0 -74.8353 -74.8353 0 -20777.0918 -59482.1523)">
				<stop  offset="0" style="stop-color:#E30613"/>
				<stop  offset="0.1446" style="stop-color:#E30613"/>
				<stop  offset="0.2757" style="stop-color:#DB0813"/>
				<stop  offset="0.4738" style="stop-color:#C70D14"/>
				<stop  offset="0.7133" style="stop-color:#A51615"/>
				<stop  offset="0.7805" style="stop-color:#9A1915"/>
				<stop  offset="1" style="stop-color:#9A1915"/>
			</linearGradient>
			<rect x="3.048" y="7.701" clip-path="url(#SVGID_2_)" fill="url(#SVGID_3_)" width="36.119" height="36.119"/>
		</g>
	</g>
</g>
<g>
	<path fill="#8E8164" d="M98.034,31.731c0,0.462-0.369,0.988-1.035,0.988c-0.354,0-0.714-0.233-1.07-0.508
		c-0.324-0.247-0.622-0.499-0.943-0.781c-0.945,0.785-2.043,1.287-3.324,1.287c-2.08,0-3.512-1.211-3.512-2.907
		c0-1.226,0.742-2.153,2.009-2.935c-0.62-0.741-1.052-1.56-1.052-2.537c0-1.566,1.192-2.619,3.031-2.619
		c1.769,0,3.03,1.053,3.03,2.587c0,0.927-0.509,2.045-1.807,2.87l1.5,1.378c0.307-0.412,0.603-0.852,0.883-1.313
		c0.185-0.298,0.527-0.481,0.884-0.481c0.57,0,1.037,0.481,1.037,1.053c0,0.171-0.038,0.36-0.252,0.704
		c-0.307,0.477-0.634,0.951-0.972,1.388c0.355,0.3,0.774,0.624,1.224,1.02C97.901,31.143,98.034,31.344,98.034,31.731z
		 M91.705,30.722c0.635,0,1.206-0.247,1.751-0.652l-1.64-1.516c-0.111-0.107-0.229-0.197-0.337-0.306
		c-0.625,0.371-1.061,0.881-1.061,1.467C90.417,30.336,90.91,30.722,91.705,30.722z M91.221,24.36c0,0.525,0.293,1.002,0.742,1.496
		l0.062-0.03c0.698-0.387,1.099-0.698,1.099-1.466c0-0.542-0.419-0.961-0.991-0.961C91.608,23.399,91.221,23.818,91.221,24.36z"/>
</g>
<g>
	<path fill="#FFFFFF" d="M11.53,21.486l0.055-0.011l0.15-0.772l-0.151-0.704l0.913-1.41l2.739-0.588l-1.148,1.777l0.683,1.012
		l1.174-0.25l2.74-0.588l2.728-0.587l2.74-0.588l2.729-0.585l2.739-0.588l1.771-0.381l-0.381-1.77l-0.249-1.159l-1.579,0.339
		l-2.729,0.586l-2.743,0.588l-2.726,0.586l-2.739,0.588l-2.729,0.586l-2.739,0.588l-1.876,0.402l0.402,1.877L11.53,21.486z
		 M28.899,15.067l1.584-0.338l0.248,1.158l-0.83,1.283l-2.741,0.587L28.899,15.067z M23.434,16.243l2.738-0.588l-1.739,2.688
		l-2.739,0.588L23.434,16.243z M17.964,17.415l2.739-0.588l-1.738,2.689l-2.74,0.588L17.964,17.415z"/>
	<path fill="#FFFFFF" d="M29.061,22.083h-2.804h-2.789h-2.801h-2.792h-1.807l0.366,0.365h1.075l-0.61,0.609
		c0.041,0.112,0.064,0.232,0.064,0.355c0,0.592-0.472,1.063-1.053,1.063h-0.43l-0.236,0.237h-2.801l0.235-0.237H12.45
		c-0.581,0-1.053-0.471-1.053-1.053V22.97l-0.208,0.207v-0.729h0.208v-0.365h-0.575v1.46v1.534h1.255h2.802h2.791h2.802h2.788h2.802
		h2.791h2.283v-2.282v-0.712H29.061z M20.836,24.713h-2.802l2.265-2.265h2.804L20.836,24.713z M26.43,24.713h-2.802l2.263-2.265
		h2.802L26.43,24.713z M30.772,24.713h-1.553l1.553-1.554V24.713z"/>
	<path fill="#FFFFFF" d="M12.479,19.294H12.45c-0.38,0-0.688,0.309-0.688,0.688v3.441c0,0.38,0.307,0.688,0.688,0.688h3.461
		c0.38,0,0.687-0.308,0.687-0.688v-0.009c0-0.183-0.072-0.356-0.201-0.485l-3.432-3.433C12.836,19.367,12.66,19.294,12.479,19.294
		 M12.503,23.856c-0.292,0-0.527-0.236-0.527-0.527s0.236-0.527,0.527-0.527s0.526,0.236,0.526,0.527S12.794,23.856,12.503,23.856
		 M15.763,22.802c0.292,0,0.527,0.236,0.527,0.527s-0.236,0.527-0.527,0.527c-0.29,0-0.527-0.236-0.527-0.527
		S15.473,22.802,15.763,22.802 M12.503,20.606c-0.292,0-0.527-0.236-0.527-0.528c0-0.291,0.236-0.526,0.527-0.526
		s0.526,0.235,0.526,0.526C13.029,20.37,12.794,20.606,12.503,20.606"/>
	<path fill="#FFFFFF" d="M11.397,25.436v11.069c0,0.396,0.321,0.72,0.718,0.72h17.731c0.396,0,0.719-0.322,0.719-0.72V25.436H11.397
		z M20.256,31.788l-4.037,2.344c-0.381,0.222-0.858-0.055-0.858-0.491V29.02c0-0.437,0.471-0.711,0.852-0.498L20.25,30.8
		C20.634,31.016,20.639,31.566,20.256,31.788 M23.603,33.532c0,0.274-0.224,0.5-0.498,0.5h-0.938c-0.275,0-0.5-0.226-0.5-0.5v-4.453
		c0-0.274,0.225-0.498,0.5-0.498h0.938c0.274,0,0.498,0.224,0.498,0.498V33.532z M26.599,33.532c0,0.274-0.223,0.5-0.498,0.5h-0.94
		c-0.273,0-0.5-0.226-0.5-0.5v-4.453c0-0.274,0.227-0.498,0.5-0.498h0.94c0.275,0,0.498,0.224,0.498,0.498V33.532z"/>
</g>
<g>
	<g>
		<g>
			<defs>
				<path id="SVGID_4_" d="M76.101,15.937l-0.914,2.501c-0.028,0.082-0.028,0.175,0,0.257c0.431,1.191,0.551,1.48,1.004,2.633
					h-1.737c-0.211,0-0.402,0.127-0.479,0.322l-0.558,1.373c-0.14,0.34,0.11,0.711,0.479,0.711h3.258
					c0.271,0.67,0.541,1.286,0.796,1.881c0.161,0.381,0.487,0.561,0.813,0.561h1.646c0.325,0,0.704-0.197,0.522-0.633l-4.134-9.625
					c-0.063-0.152-0.202-0.229-0.344-0.229C76.308,15.688,76.159,15.772,76.101,15.937"/>
			</defs>
			<clipPath id="SVGID_5_">
				<use xlink:href="#SVGID_4_"  overflow="visible"/>
			</clipPath>
			
				<linearGradient id="SVGID_6_" gradientUnits="userSpaceOnUse" x1="-766.7295" y1="-245.9766" x2="-766.2298" y2="-245.9766" gradientTransform="matrix(0 23.3429 23.3429 0 5819.0205 17911.6641)">
				<stop  offset="0" style="stop-color:#E30613"/>
				<stop  offset="0.1446" style="stop-color:#E30613"/>
				<stop  offset="0.2757" style="stop-color:#DB0813"/>
				<stop  offset="0.4738" style="stop-color:#C70D14"/>
				<stop  offset="0.7133" style="stop-color:#A51615"/>
				<stop  offset="0.7805" style="stop-color:#9A1915"/>
				<stop  offset="1" style="stop-color:#9A1915"/>
			</linearGradient>
			<rect x="73.276" y="15.688" clip-path="url(#SVGID_5_)" fill="url(#SVGID_6_)" width="7.836" height="10.486"/>
		</g>
	</g>
</g>
<g>
	<g>
		<g>
			<defs>
				<path id="SVGID_7_" d="M50.241,17.601c0.452,1.266,0.94,2.533,1.411,3.727H48.83C49.318,20.114,49.77,18.921,50.241,17.601
					 M48.956,14.146l-4.884,11.396c-0.181,0.437,0.198,0.633,0.524,0.633h1.574c0.398,0,0.723-0.18,0.886-0.561
					c0.271-0.65,0.543-1.266,0.796-1.881h4.759c0.271,0.67,0.542,1.285,0.796,1.881c0.162,0.381,0.488,0.561,0.813,0.561h1.646
					c0.326,0,0.706-0.196,0.524-0.633l-4.866-11.396c-0.235-0.561-0.778-0.851-1.284-0.851
					C49.608,13.295,49.137,13.711,48.956,14.146"/>
			</defs>
			<clipPath id="SVGID_8_">
				<use xlink:href="#SVGID_7_"  overflow="visible"/>
			</clipPath>
			
				<linearGradient id="SVGID_9_" gradientUnits="userSpaceOnUse" x1="-766.7295" y1="-244.6504" x2="-766.2292" y2="-244.6504" gradientTransform="matrix(0 23.3429 23.3429 0 5761.0986 17911.6641)">
				<stop  offset="0" style="stop-color:#E30613"/>
				<stop  offset="0.1446" style="stop-color:#E30613"/>
				<stop  offset="0.2757" style="stop-color:#DB0813"/>
				<stop  offset="0.4738" style="stop-color:#C70D14"/>
				<stop  offset="0.7133" style="stop-color:#A51615"/>
				<stop  offset="0.7805" style="stop-color:#9A1915"/>
				<stop  offset="1" style="stop-color:#9A1915"/>
			</linearGradient>
			<rect x="43.891" y="13.295" clip-path="url(#SVGID_8_)" fill="url(#SVGID_9_)" width="12.682" height="12.88"/>
		</g>
	</g>
</g>
<g>
	<g>
		<g>
			<defs>
				<path id="SVGID_10_" d="M57.074,16.644v8.917c0,0.34,0.276,0.614,0.615,0.614h1.7c0.362,0,0.598-0.233,0.598-0.614l-0.066-5.622
					c-0.004-0.287-0.101-0.564-0.275-0.793l-2.051-2.678c-0.061-0.079-0.145-0.114-0.228-0.114
					C57.219,16.354,57.074,16.466,57.074,16.644"/>
			</defs>
			<clipPath id="SVGID_11_">
				<use xlink:href="#SVGID_10_"  overflow="visible"/>
			</clipPath>
			
				<linearGradient id="SVGID_12_" gradientUnits="userSpaceOnUse" x1="-766.7285" y1="-245.0918" x2="-766.2294" y2="-245.0918" gradientTransform="matrix(0 23.3429 23.3429 0 5779.708 17911.6641)">
				<stop  offset="0" style="stop-color:#E30613"/>
				<stop  offset="0.1446" style="stop-color:#E30613"/>
				<stop  offset="0.2757" style="stop-color:#DB0813"/>
				<stop  offset="0.4738" style="stop-color:#C70D14"/>
				<stop  offset="0.7133" style="stop-color:#A51615"/>
				<stop  offset="0.7805" style="stop-color:#9A1915"/>
				<stop  offset="1" style="stop-color:#9A1915"/>
			</linearGradient>
			<rect x="57.074" y="16.354" clip-path="url(#SVGID_11_)" fill="url(#SVGID_12_)" width="2.913" height="9.821"/>
		</g>
	</g>
</g>
<path fill="#1E1E1E" d="M61.073,12.767c0-0.208,0.043-0.411,0.127-0.606c0.085-0.196,0.202-0.368,0.353-0.519
	c0.151-0.151,0.319-0.268,0.509-0.353c0.188-0.085,0.395-0.128,0.616-0.128c0.209,0,0.411,0.043,0.606,0.128
	c0.196,0.085,0.369,0.202,0.52,0.353c0.149,0.15,0.267,0.322,0.352,0.519c0.085,0.195,0.128,0.398,0.128,0.606
	c0,0.223-0.043,0.428-0.128,0.617c-0.085,0.189-0.202,0.357-0.352,0.508c-0.15,0.15-0.323,0.268-0.52,0.354
	c-0.195,0.084-0.397,0.127-0.606,0.127c-0.222,0-0.428-0.043-0.616-0.127c-0.189-0.086-0.358-0.203-0.509-0.354
	c-0.151-0.151-0.268-0.318-0.353-0.508C61.116,13.194,61.073,12.989,61.073,12.767"/>
<path fill="#1E1E1E" d="M76.004,9.989c-0.223-0.156-0.457-0.236-0.705-0.236c-0.221,0-0.403,0.072-0.547,0.215
	c-0.146,0.145-0.217,0.328-0.217,0.55s0.071,0.407,0.217,0.558c0.144,0.15,0.326,0.225,0.547,0.225h1.058
	c0.209,0,0.365,0.065,0.472,0.196c0.104,0.13,0.155,0.261,0.155,0.391c0,0.157-0.053,0.298-0.155,0.421
	c-0.104,0.125-0.263,0.187-0.472,0.187h-3.092c-0.183,0-0.33-0.062-0.438-0.187c-0.111-0.123-0.166-0.264-0.166-0.421
	c0-0.13,0.055-0.261,0.166-0.391c0.108-0.131,0.258-0.196,0.438-0.196h0.334c-0.117-0.144-0.188-0.294-0.218-0.449
	c-0.024-0.157-0.039-0.287-0.039-0.393c0-0.534,0.187-0.979,0.56-1.331C74.273,8.775,74.734,8.6,75.281,8.6
	c0.263,0,0.517,0.047,0.765,0.137c0.248,0.092,0.463,0.229,0.646,0.411c0.129,0.131,0.193,0.269,0.193,0.412
	c0,0.183-0.059,0.319-0.176,0.409c-0.117,0.093-0.248,0.138-0.393,0.138C76.2,10.105,76.097,10.066,76.004,9.989"/>
<path fill="#1E1E1E" d="M74.78,17.601l1.035-2.781c0.268-0.723-0.25-1.516-1.02-1.524H74.78c-0.633,0-1.104,0.416-1.285,0.851
	l-4.883,11.396c-0.182,0.436,0.197,0.633,0.523,0.633h1.574c0.396,0,0.723-0.18,0.887-0.561c0.271-0.65,0.543-1.266,0.795-1.881
	l0.979-2.406C73.858,20.114,74.31,18.921,74.78,17.601"/>
<path fill="#1E1E1E" d="M67.929,14.96c0-0.797-0.67-1.447-1.466-1.447s-1.447,0.65-1.447,1.447l0.054,5.979l-7.718-10.111
	l0.004,0.006c-0.416-0.634-1.267-0.811-1.9-0.395s-0.81,1.267-0.394,1.9l2.012,2.656l2.841,3.709l5.192,6.838
	c0.416,0.543,0.741,0.633,1.085,0.633h1.176c0.362,0,0.579-0.271,0.579-0.577L67.929,14.96z"/>
<g>
	<g>
		<g>
			<defs>
				<path id="SVGID_13_" d="M46.151,29.939h-0.018c-0.765,0-1.405,0.463-1.405,1.388v10.278c0,0.371,0.23,0.604,0.604,0.604h1.673
					c0.355,0,0.587-0.23,0.587-0.604v-3.931h3.823c0.782,0,1.423-0.553,1.423-1.334c0-0.782-0.641-1.334-1.423-1.334h-3.823v-2.399
					h4.623c0.782,0,1.423-0.553,1.423-1.334c0-0.78-0.641-1.334-1.423-1.334H46.151z"/>
			</defs>
			<clipPath id="SVGID_14_">
				<use xlink:href="#SVGID_13_"  overflow="visible"/>
			</clipPath>
			
				<linearGradient id="SVGID_15_" gradientUnits="userSpaceOnUse" x1="-766.0381" y1="-248.3115" x2="-765.5389" y2="-248.3115" gradientTransform="matrix(0 23.3429 23.3429 0 5845.5049 17911.6641)">
				<stop  offset="0" style="stop-color:#E30613"/>
				<stop  offset="0.1446" style="stop-color:#E30613"/>
				<stop  offset="0.2757" style="stop-color:#DB0813"/>
				<stop  offset="0.4738" style="stop-color:#C70D14"/>
				<stop  offset="0.7133" style="stop-color:#A51615"/>
				<stop  offset="0.7805" style="stop-color:#9A1915"/>
				<stop  offset="1" style="stop-color:#9A1915"/>
			</linearGradient>
			<rect x="44.728" y="29.939" clip-path="url(#SVGID_14_)" fill="url(#SVGID_15_)" width="8.909" height="12.271"/>
		</g>
	</g>
</g>
<g>
	<g>
		<g>
			<defs>
				<path id="SVGID_16_" d="M55.109,31.188v9.938c0,0.674,0.551,1.084,1.191,1.084h5.939c0.835,0,1.404-0.586,1.404-1.299
					c0-0.711-0.569-1.279-1.404-1.279h-4.268v-8.444c0-0.783-0.658-1.424-1.441-1.424C55.749,29.764,55.109,30.402,55.109,31.188"/>
			</defs>
			<clipPath id="SVGID_17_">
				<use xlink:href="#SVGID_16_"  overflow="visible"/>
			</clipPath>
			
				<linearGradient id="SVGID_18_" gradientUnits="userSpaceOnUse" x1="-766.0386" y1="-248.7539" x2="-765.5388" y2="-248.7539" gradientTransform="matrix(0 23.3429 23.3429 0 5866.0205 17911.6641)">
				<stop  offset="0" style="stop-color:#E30613"/>
				<stop  offset="0.1446" style="stop-color:#E30613"/>
				<stop  offset="0.2757" style="stop-color:#DB0813"/>
				<stop  offset="0.4738" style="stop-color:#C70D14"/>
				<stop  offset="0.7133" style="stop-color:#A51615"/>
				<stop  offset="0.7805" style="stop-color:#9A1915"/>
				<stop  offset="1" style="stop-color:#9A1915"/>
			</linearGradient>
			<rect x="55.109" y="29.764" clip-path="url(#SVGID_17_)" fill="url(#SVGID_18_)" width="8.535" height="12.446"/>
		</g>
	</g>
</g>
<g>
	<g>
		<g>
			<defs>
				<path id="SVGID_19_" d="M65.304,31.188v10.42c0,0.371,0.232,0.604,0.605,0.604h1.671c0.356,0,0.587-0.231,0.587-0.604v-10.42
					c0-0.783-0.657-1.424-1.44-1.424C65.946,29.764,65.304,30.402,65.304,31.188"/>
			</defs>
			<clipPath id="SVGID_20_">
				<use xlink:href="#SVGID_19_"  overflow="visible"/>
			</clipPath>
			
				<linearGradient id="SVGID_21_" gradientUnits="userSpaceOnUse" x1="-766.0386" y1="-249.0811" x2="-765.5388" y2="-249.0811" gradientTransform="matrix(0 23.3429 23.3429 0 5881.0205 17911.6641)">
				<stop  offset="0" style="stop-color:#E30613"/>
				<stop  offset="0.1446" style="stop-color:#E30613"/>
				<stop  offset="0.2757" style="stop-color:#DB0813"/>
				<stop  offset="0.4738" style="stop-color:#C70D14"/>
				<stop  offset="0.7133" style="stop-color:#A51615"/>
				<stop  offset="0.7805" style="stop-color:#9A1915"/>
				<stop  offset="1" style="stop-color:#9A1915"/>
			</linearGradient>
			<rect x="65.304" y="29.764" clip-path="url(#SVGID_20_)" fill="url(#SVGID_21_)" width="2.863" height="12.446"/>
		</g>
	</g>
</g>
<g>
	<g>
		<g>
			<defs>
				<path id="SVGID_22_" d="M77.366,30.368L75,33.497l-2.383-3.129c-0.357-0.466-0.802-0.604-1.191-0.604
					c-0.836,0-1.44,0.657-1.44,1.424c0,0.442,0.16,0.765,0.354,1.013l2.812,3.717l-3.06,4.037c-0.196,0.248-0.354,0.567-0.354,1.014
					c0,0.765,0.604,1.423,1.438,1.423c0.394,0,0.837-0.144,1.191-0.604L75,38.337l2.612,3.447c0.354,0.463,0.802,0.604,1.191,0.604
					c0.836,0,1.438-0.658,1.438-1.423c0-0.444-0.158-0.766-0.354-1.014l-3.06-4.037l2.812-3.717
					c0.194-0.248,0.354-0.568,0.354-1.013c0-0.767-0.604-1.424-1.44-1.424C78.165,29.764,77.722,29.902,77.366,30.368"/>
			</defs>
			<clipPath id="SVGID_23_">
				<use xlink:href="#SVGID_22_"  overflow="visible"/>
			</clipPath>
			
				<linearGradient id="SVGID_24_" gradientUnits="userSpaceOnUse" x1="-766.0386" y1="-249.4727" x2="-765.5377" y2="-249.4727" gradientTransform="matrix(0 23.3429 23.3429 0 5898.4268 17911.6641)">
				<stop  offset="0" style="stop-color:#E30613"/>
				<stop  offset="0.1446" style="stop-color:#E30613"/>
				<stop  offset="0.2757" style="stop-color:#DB0813"/>
				<stop  offset="0.4738" style="stop-color:#C70D14"/>
				<stop  offset="0.7133" style="stop-color:#A51615"/>
				<stop  offset="0.7805" style="stop-color:#9A1915"/>
				<stop  offset="1" style="stop-color:#9A1915"/>
			</linearGradient>
			<rect x="69.737" y="29.764" clip-path="url(#SVGID_23_)" fill="url(#SVGID_24_)" width="10.508" height="12.625"/>
		</g>
	</g>
</g>
<path fill="#1C5C8C" d="M121.524,11.881c9.209,0,16.674,5.802,16.674,15.01c0,9.209-5.796,17.869-16.674,17.869
	c-9.911,0-16.671-8.734-16.671-17.943C104.853,17.608,112.318,11.881,121.524,11.881z"/>
<circle fill="#1876F0" cx="121.524" cy="26.352" r="16.672"/>
<path fill="#FEFEFE" d="M123.402,40.748v-5.443h0.031c0-1.131,0-2.262,0-3.395c0-0.59,0.005-1.182-0.004-1.771
	c-0.005-0.119,0.022-0.166,0.149-0.16c0.188,0.017,0.375,0.006,0.561,0.006c0.904,0,1.807,0,2.71,0c0.071,0,0.124,0.013,0.142-0.105
	c0.031-0.257,0.074-0.514,0.113-0.771c0.081-0.543,0.176-1.086,0.262-1.629c0.09-0.578,0.176-1.152,0.266-1.732
	c0.019-0.112,0-0.169-0.147-0.169c-1.296,0.007-2.589,0.001-3.889,0.007c-0.142,0-0.165-0.045-0.164-0.172
	c0.008-0.871-0.005-1.744,0.011-2.615c0.002-0.317,0.039-0.638,0.143-0.941c0.207-0.62,0.617-1.042,1.229-1.266
	c0.401-0.146,0.821-0.18,1.244-0.183c0.459-0.002,0.918,0,1.375-0.001c0.123-0.001,0.278,0.052,0.356-0.021
	c0.076-0.078,0.021-0.236,0.021-0.357c0.001-1.078,0-2.159,0-3.239c0-0.069,0.021-0.124-0.101-0.145
	c-0.522-0.086-1.045-0.143-1.57-0.195c-0.499-0.05-1.001-0.07-1.504-0.09c-0.342-0.014-0.682,0.028-1.021,0.056
	c-0.576,0.044-1.132,0.177-1.67,0.385c-1.104,0.428-1.945,1.162-2.518,2.198c-0.44,0.792-0.643,1.661-0.717,2.556
	c-0.029,0.365-0.041,0.735-0.039,1.104c0.01,0.921,0.002,1.843,0.008,2.763c0,0.127-0.021,0.164-0.159,0.164
	c-1.175-0.006-2.354,0-3.53-0.006c-0.137-0.001-0.156,0.037-0.156,0.161c0.006,1.367,0.006,2.73,0,4.096
	c0,0.121,0.026,0.158,0.151,0.154c1.162-0.01,2.326-0.006,3.487-0.006c0.205,0,0.205,0,0.205,0.199c0,1.707,0,3.418,0,5.123
	c0,1.695,0,3.385,0,5.077v0.095c0,0.002,0,0.006,0,0.01c0.002,0.015,0.002,0.023,0,0.035v0.228
	C120.25,40.748,121.825,40.748,123.402,40.748z"/>
</svg>
