<?xml version="1.0" encoding="utf-8"?>
<!-- Generator: Adobe Illustrator 16.0.0, SVG Export Plug-In . SVG Version: 6.00 Build 0)  -->
<!DOCTYPE svg PUBLIC "-//W3C//DTD SVG 1.1//EN" "http://www.w3.org/Graphics/SVG/1.1/DTD/svg11.dtd">
<svg version="1.1" id="Layer_1" xmlns="http://www.w3.org/2000/svg" xmlns:xlink="http://www.w3.org/1999/xlink" x="0px" y="0px"
	 width="142.333px" height="53px" viewBox="0 0 142.333 53" enable-background="new 0 0 142.333 53" xml:space="preserve">
<g>
	<g>
		<g>
			<defs>
				<path id="SVGID_1_" d="M1.68,24.76c0,10.729,8.698,19.428,19.428,19.428c10.728,0,19.426-8.698,19.426-19.428
					c0-10.729-8.698-19.427-19.426-19.427C10.378,5.333,1.68,14.03,1.68,24.76"/>
			</defs>
			<clipPath id="SVGID_2_">
				<use xlink:href="#SVGID_1_"  overflow="visible"/>
			</clipPath>
			
				<linearGradient id="SVGID_3_" gradientUnits="userSpaceOnUse" x1="-795.4316" y1="-277.9199" x2="-794.9131" y2="-277.9199" gradientTransform="matrix(0 -74.8353 -74.8353 0 -20777.0918 -59482.1523)">
				<stop  offset="0.069" style="stop-color:#FFCB21"/>
				<stop  offset="0.1256" style="stop-color:#FFC028"/>
				<stop  offset="0.2239" style="stop-color:#FFA43B"/>
				<stop  offset="0.352" style="stop-color:#FF765B"/>
				<stop  offset="0.5032" style="stop-color:#FF3785"/>
				<stop  offset="0.6239" style="stop-color:#FF00AB"/>
				<stop  offset="1" style="stop-color:#6E9AFF"/>
			</linearGradient>
			<rect x="1.68" y="5.333" clip-path="url(#SVGID_2_)" fill="url(#SVGID_3_)" width="38.854" height="38.854"/>
		</g>
	</g>
</g>
<g>
	<path fill="#8E8164" d="M98.034,30.731c0,0.462-0.369,0.988-1.035,0.988c-0.354,0-0.714-0.233-1.07-0.508
		c-0.324-0.247-0.622-0.499-0.943-0.781c-0.945,0.785-2.043,1.287-3.324,1.287c-2.08,0-3.512-1.211-3.512-2.907
		c0-1.226,0.742-2.153,2.009-2.935c-0.62-0.741-1.052-1.56-1.052-2.537c0-1.566,1.192-2.619,3.031-2.619
		c1.769,0,3.03,1.053,3.03,2.587c0,0.927-0.509,2.045-1.807,2.87l1.5,1.378c0.307-0.412,0.603-0.852,0.883-1.313
		c0.185-0.298,0.527-0.481,0.884-0.481c0.57,0,1.037,0.481,1.037,1.053c0,0.171-0.038,0.36-0.252,0.704
		c-0.307,0.477-0.634,0.951-0.972,1.388c0.355,0.3,0.774,0.624,1.224,1.02C97.901,30.143,98.034,30.344,98.034,30.731z
		 M91.705,29.722c0.635,0,1.206-0.247,1.751-0.652l-1.64-1.516c-0.111-0.107-0.229-0.197-0.337-0.306
		c-0.625,0.371-1.061,0.881-1.061,1.467C90.417,29.336,90.91,29.722,91.705,29.722z M91.221,23.36c0,0.525,0.293,1.002,0.742,1.496
		l0.062-0.03c0.698-0.387,1.099-0.698,1.099-1.466c0-0.542-0.419-0.961-0.991-0.961C91.608,22.399,91.221,22.818,91.221,23.36z"/>
</g>
<g id="ZIK_1_">
	<path fill="#1E1E1E" d="M53.502,40.846c0,0.809-0.658,1.409-1.467,1.409h-7.386c-0.808,0-1.466-0.657-1.466-1.467
		c0-0.376,0.131-0.714,0.451-1.146l5.602-7.537h-4.625c-0.808,0-1.447-0.604-1.447-1.41c0-0.81,0.639-1.409,1.447-1.409h7.312
		c0.809,0,1.448,0.639,1.448,1.446c0,0.281-0.095,0.562-0.433,1.016l-5.62,7.688h4.717C52.844,39.436,53.502,40.037,53.502,40.846z"
		/>
	<path fill="#1E1E1E" d="M57.453,41.615V30.602c0-0.828,0.677-1.504,1.504-1.504s1.522,0.676,1.522,1.504v11.016
		c0,0.396-0.244,0.64-0.62,0.64h-1.767C57.697,42.255,57.453,42.011,57.453,41.615z"/>
	<path fill="#1E1E1E" d="M75.725,40.826c0,0.996-0.732,1.542-1.541,1.542c-0.395,0-0.771-0.188-1.09-0.509l-4.324-4.475v4.229
		c0,0.396-0.244,0.64-0.62,0.64h-1.767c-0.395,0-0.639-0.244-0.639-0.64V30.602c0-0.828,0.677-1.504,1.503-1.504
		c0.828,0,1.522,0.676,1.522,1.504v2.987l4.323-4.079c0.263-0.242,0.603-0.412,1.033-0.412c0.752,0,1.41,0.657,1.41,1.446
		c0,0.433-0.226,0.827-0.509,1.091l-4.08,3.815c1.468,1.466,2.916,2.819,4.345,4.36C75.538,40.074,75.725,40.506,75.725,40.826z"/>
</g>
<g id="Equalizer_3_">
	<path fill="#FFFFFF" d="M23.856,36.463L23.856,36.463c-1.192,0-2.158-0.965-2.158-2.158V22.14c0-1.193,0.966-2.16,2.158-2.16l0,0
		c1.193,0,2.159,0.967,2.159,2.16v12.165C26.015,35.498,25.049,36.463,23.856,36.463z"/>
	<path fill="#FFFFFF" d="M17.387,32.749L17.387,32.749c-1.193,0-2.16-0.967-2.16-2.16V18.037c0-1.192,0.967-2.159,2.16-2.159l0,0
		c1.191,0,2.159,0.967,2.159,2.159v12.552C19.545,31.782,18.578,32.749,17.387,32.749z"/>
	<path fill="#FFFFFF" d="M10.855,30.348L10.855,30.348c-1.192,0-2.159-0.968-2.159-2.16v-3.346c0-1.191,0.967-2.158,2.159-2.158l0,0
		c1.192,0,2.159,0.967,2.159,2.158v3.346C13.014,29.38,12.047,30.348,10.855,30.348z"/>
	<path fill="#FFFFFF" d="M30.421,30.395L30.421,30.395c-1.193,0-2.16-0.965-2.16-2.158v-2.975c0-1.191,0.967-2.16,2.16-2.16l0,0
		c1.191,0,2.159,0.966,2.159,2.16v2.975C32.58,29.43,31.613,30.395,30.421,30.395z"/>
</g>
<g id="ANA_1_">
	<path fill="#1E1E1E" d="M82.145,24.562l-4.141-9.643c-0.135-0.313-0.582-0.302-0.7,0.019l-0.914,2.506
		c-0.03,0.083-0.03,0.175,0,0.257c0.428,1.194,0.551,1.483,1.007,2.638h-1.744c-0.212,0-0.4,0.128-0.479,0.323l-0.559,1.375
		c-0.141,0.34,0.11,0.713,0.479,0.713h3.263c0.272,0.67,0.544,1.287,0.798,1.884c0.163,0.381,0.489,0.563,0.815,0.563h1.647
		C81.945,25.199,82.327,24.999,82.145,24.562z"/>
	<path fill="#1E1E1E" d="M55.029,25.199H53.38c-0.326,0-0.652-0.182-0.815-0.563c-0.254-0.598-0.525-1.214-0.798-1.884H47
		c-0.254,0.616-0.525,1.232-0.797,1.884c-0.163,0.382-0.489,0.563-0.888,0.563h-1.578c-0.326,0-0.707-0.2-0.525-0.637l4.894-11.417
		c0.181-0.435,0.653-0.852,1.287-0.852c0.507,0,1.051,0.29,1.287,0.852l4.876,11.417C55.736,24.999,55.355,25.199,55.029,25.199z
		 M50.806,20.341c-0.471-1.196-0.96-2.464-1.414-3.734c-0.471,1.324-0.924,2.52-1.414,3.734H50.806z"/>
	<path fill="#1E1E1E" d="M57.241,15.648v8.935c0,0.341,0.276,0.616,0.616,0.616h1.704c0.363,0,0.599-0.236,0.599-0.616l-0.068-5.631
		c-0.003-0.289-0.1-0.568-0.275-0.797l-2.054-2.683C57.592,15.252,57.241,15.371,57.241,15.648z"/>
</g>
<g id="AN_1_">
	
		<linearGradient id="SVGID_4_" gradientUnits="userSpaceOnUse" x1="85.1548" y1="178.1074" x2="85.1548" y2="159.9996" gradientTransform="matrix(1 0 0 1 -22.2998 -153.0449)">
		<stop  offset="0.069" style="stop-color:#FFCB21"/>
		<stop  offset="0.1256" style="stop-color:#FFC028"/>
		<stop  offset="0.2239" style="stop-color:#FFA43B"/>
		<stop  offset="0.352" style="stop-color:#FF765B"/>
		<stop  offset="0.5032" style="stop-color:#FF3785"/>
		<stop  offset="0.6239" style="stop-color:#FF00AB"/>
		<stop  offset="1" style="stop-color:#6E9AFF"/>
	</linearGradient>
	<path fill="url(#SVGID_4_)" d="M61.247,11.765c0-0.209,0.042-0.413,0.127-0.608c0.085-0.197,0.203-0.37,0.353-0.52
		c0.151-0.151,0.32-0.268,0.511-0.354c0.188-0.085,0.395-0.127,0.617-0.127c0.208,0,0.412,0.042,0.607,0.127
		c0.197,0.085,0.37,0.202,0.52,0.354c0.15,0.15,0.268,0.323,0.353,0.52c0.085,0.195,0.128,0.398,0.128,0.608
		c0,0.222-0.043,0.428-0.128,0.617c-0.085,0.19-0.203,0.36-0.353,0.51s-0.323,0.268-0.52,0.353
		c-0.195,0.085-0.399,0.127-0.607,0.127c-0.223,0-0.429-0.042-0.617-0.127c-0.19-0.085-0.36-0.203-0.511-0.353
		c-0.15-0.15-0.268-0.32-0.353-0.51C61.289,12.193,61.247,11.987,61.247,11.765z"/>
	
		<linearGradient id="SVGID_5_" gradientUnits="userSpaceOnUse" x1="98.3247" y1="178.0996" x2="98.3247" y2="159.9999" gradientTransform="matrix(1 0 0 1 -22.2998 -153.0449)">
		<stop  offset="0.069" style="stop-color:#FFCB21"/>
		<stop  offset="0.1256" style="stop-color:#FFC028"/>
		<stop  offset="0.2239" style="stop-color:#FFA43B"/>
		<stop  offset="0.352" style="stop-color:#FF765B"/>
		<stop  offset="0.5032" style="stop-color:#FF3785"/>
		<stop  offset="0.6239" style="stop-color:#FF00AB"/>
		<stop  offset="1" style="stop-color:#6E9AFF"/>
	</linearGradient>
	<path fill="url(#SVGID_5_)" d="M77.208,8.981c-0.222-0.157-0.457-0.235-0.705-0.235c-0.223,0-0.403,0.072-0.549,0.215
		c-0.145,0.144-0.216,0.328-0.216,0.549c0,0.222,0.071,0.408,0.216,0.559c0.146,0.151,0.326,0.226,0.549,0.226h1.061
		c0.21,0,0.366,0.065,0.473,0.196c0.104,0.13,0.155,0.261,0.155,0.392c0,0.156-0.053,0.297-0.155,0.421
		c-0.104,0.124-0.263,0.186-0.473,0.186h-3.1c-0.184,0-0.33-0.063-0.439-0.186c-0.109-0.124-0.166-0.265-0.166-0.421
		c0-0.131,0.057-0.262,0.166-0.392c0.109-0.131,0.26-0.196,0.439-0.196h0.334c-0.116-0.144-0.188-0.294-0.215-0.451
		c-0.026-0.157-0.039-0.287-0.039-0.392c0-0.536,0.186-0.98,0.56-1.333c0.372-0.353,0.833-0.529,1.382-0.529
		c0.262,0,0.518,0.046,0.766,0.137c0.248,0.092,0.465,0.229,0.646,0.412c0.131,0.131,0.194,0.269,0.194,0.413
		c0,0.184-0.059,0.32-0.176,0.411C77.797,9.055,77.667,9.1,77.522,9.1C77.405,9.099,77.301,9.06,77.208,8.981z"/>
	<g>
		
			<linearGradient id="SVGID_6_" gradientUnits="userSpaceOnUse" x1="95.7212" y1="178.1006" x2="95.7212" y2="159.999" gradientTransform="matrix(1 0 0 1 -22.2998 -153.0449)">
			<stop  offset="0.069" style="stop-color:#FFCB21"/>
			<stop  offset="0.1256" style="stop-color:#FFC028"/>
			<stop  offset="0.2239" style="stop-color:#FFA43B"/>
			<stop  offset="0.352" style="stop-color:#FF765B"/>
			<stop  offset="0.5032" style="stop-color:#FF3785"/>
			<stop  offset="0.6239" style="stop-color:#FF00AB"/>
			<stop  offset="1" style="stop-color:#6E9AFF"/>
		</linearGradient>
		<path fill="url(#SVGID_6_)" d="M75.982,16.607l1.036-2.787c0.27-0.724-0.249-1.518-1.021-1.527c-0.004,0-0.01,0-0.015,0
			c-0.635,0-1.106,0.417-1.288,0.852l-4.895,11.417c-0.18,0.437,0.201,0.637,0.527,0.637h1.575c0.397,0,0.726-0.182,0.89-0.563
			c0.271-0.652,0.543-1.268,0.797-1.884l0.979-2.411C75.058,19.127,75.512,17.931,75.982,16.607z"/>
	</g>
	
		<linearGradient id="SVGID_7_" gradientUnits="userSpaceOnUse" x1="83.8667" y1="178.1016" x2="83.8667" y2="159.9989" gradientTransform="matrix(1 0 0 1 -22.2998 -153.0449)">
		<stop  offset="0.069" style="stop-color:#FFCB21"/>
		<stop  offset="0.1256" style="stop-color:#FFC028"/>
		<stop  offset="0.2239" style="stop-color:#FFA43B"/>
		<stop  offset="0.352" style="stop-color:#FF765B"/>
		<stop  offset="0.5032" style="stop-color:#FF3785"/>
		<stop  offset="0.6239" style="stop-color:#FF00AB"/>
		<stop  offset="1" style="stop-color:#6E9AFF"/>
	</linearGradient>
	<path fill="url(#SVGID_7_)" d="M68.115,13.961c0-0.797-0.67-1.45-1.468-1.45c-0.797,0-1.45,0.653-1.45,1.45l0.054,5.991
		L57.52,9.821l0.003,0.006c-0.417-0.634-1.269-0.811-1.903-0.395c-0.634,0.417-0.811,1.269-0.394,1.903l2.016,2.662l2.845,3.716
		l5.202,6.85c0.417,0.545,0.744,0.638,1.088,0.638h1.178c0.362,0,0.58-0.272,0.58-0.58L68.115,13.961z"/>
</g>
<path fill="#1C5C8C" d="M120.774,10.881c9.209,0,16.674,5.802,16.674,15.01c0,9.209-5.796,17.869-16.674,17.869
	c-9.911,0-16.671-8.734-16.671-17.943C104.103,16.608,111.568,10.881,120.774,10.881z"/>
<circle fill="#1876F0" cx="120.774" cy="25.352" r="16.672"/>
<path fill="#FEFEFE" d="M122.652,39.748v-5.443h0.031c0-1.131,0-2.262,0-3.395c0-0.59,0.005-1.182-0.004-1.771
	c-0.005-0.119,0.022-0.166,0.149-0.16c0.188,0.017,0.375,0.006,0.561,0.006c0.904,0,1.807,0,2.71,0c0.071,0,0.124,0.013,0.142-0.105
	c0.031-0.257,0.074-0.514,0.113-0.771c0.081-0.543,0.176-1.086,0.262-1.629c0.09-0.578,0.176-1.152,0.266-1.732
	c0.019-0.112,0-0.169-0.147-0.169c-1.296,0.007-2.589,0.001-3.889,0.007c-0.142,0-0.165-0.045-0.164-0.172
	c0.008-0.871-0.005-1.744,0.011-2.615c0.002-0.317,0.039-0.638,0.143-0.941c0.207-0.62,0.617-1.042,1.229-1.266
	c0.401-0.146,0.821-0.18,1.244-0.183c0.459-0.002,0.918,0,1.375-0.001c0.123-0.001,0.278,0.052,0.356-0.021
	c0.076-0.078,0.021-0.236,0.021-0.357c0.001-1.078,0-2.159,0-3.239c0-0.069,0.021-0.124-0.101-0.145
	c-0.522-0.086-1.045-0.143-1.57-0.195c-0.499-0.05-1.001-0.07-1.504-0.09c-0.342-0.014-0.682,0.028-1.021,0.056
	c-0.576,0.044-1.132,0.177-1.67,0.385c-1.104,0.428-1.945,1.162-2.518,2.198c-0.44,0.792-0.643,1.661-0.717,2.556
	c-0.029,0.365-0.041,0.735-0.039,1.104c0.01,0.921,0.002,1.843,0.008,2.763c0,0.127-0.021,0.164-0.159,0.164
	c-1.175-0.006-2.354,0-3.53-0.006c-0.137-0.001-0.156,0.037-0.156,0.161c0.006,1.367,0.006,2.73,0,4.096
	c0,0.121,0.026,0.158,0.151,0.154c1.162-0.01,2.326-0.006,3.487-0.006c0.205,0,0.205,0,0.205,0.199c0,1.707,0,3.418,0,5.123
	c0,1.695,0,3.385,0,5.077v0.095c0,0.002,0,0.006,0,0.01c0.002,0.015,0.002,0.023,0,0.035v0.228
	C119.5,39.748,121.075,39.748,122.652,39.748z"/>
</svg>
