<?xml version="1.0" encoding="utf-8"?>
<!-- Generator: Adobe Illustrator 16.0.0, SVG Export Plug-In . SVG Version: 6.00 Build 0)  -->
<!DOCTYPE svg PUBLIC "-//W3C//DTD SVG 1.1//EN" "http://www.w3.org/Graphics/SVG/1.1/DTD/svg11.dtd">
<svg version="1.1" id="Calque_1" xmlns="http://www.w3.org/2000/svg" xmlns:xlink="http://www.w3.org/1999/xlink" x="0px" y="0px"
	 width="96.5px" height="40px" viewBox="0 0 96.5 40" enable-background="new 0 0 96.5 40" xml:space="preserve">
<g id="Messenger_4_">
	
		<linearGradient id="Bubble_Solid_1_" gradientUnits="userSpaceOnUse" x1="33812.5234" y1="-27136.5996" x2="33812.5234" y2="-28231.3906" gradientTransform="matrix(0.0313 0 0 -0.0313 -982.0211 -847.4437)">
		<stop  offset="0" style="stop-color:#00B2FF"/>
		<stop  offset="1" style="stop-color:#006AFF"/>
	</linearGradient>
	<path id="Bubble_Solid_3_" fill="url(#Bubble_Solid_1_)" d="M76.311,1.435c-9.636,0-17.104,7.06-17.104,16.595
		c0,4.984,2.044,9.296,5.372,12.273c0.281,0.25,0.447,0.596,0.463,0.976l0.091,3.043c0.031,0.969,1.033,1.598,1.92,1.207
		l3.394-1.496c0.291-0.124,0.611-0.153,0.912-0.068c1.56,0.431,3.223,0.66,4.951,0.66c9.639,0,17.107-7.062,17.107-16.595
		C93.417,8.496,85.948,1.435,76.311,1.435z"/>
	<path id="Bolt_4_" fill="#FFFFFF" d="M66.041,22.88l5.025-7.97c0.799-1.265,2.514-1.584,3.711-0.687l3.994,3
		c0.367,0.277,0.871,0.274,1.235-0.003l5.396-4.097c0.718-0.545,1.664,0.317,1.178,1.082l-5.021,7.969
		c-0.799,1.271-2.514,1.582-3.713,0.685l-3.994-2.996c-0.367-0.274-0.871-0.271-1.233,0.002l-5.401,4.1
		C66.499,24.511,65.557,23.646,66.041,22.88z"/>
</g>
<g>
	<path fill="#8E8164" d="M53.092,22.841c0,0.463-0.374,0.987-1.038,0.987c-0.354,0-0.711-0.233-1.066-0.508
		c-0.324-0.247-0.622-0.494-0.942-0.781c-0.945,0.784-2.043,1.287-3.327,1.287c-2.076,0-3.508-1.211-3.508-2.906
		c0-1.226,0.742-2.153,2.009-2.934c-0.619-0.741-1.053-1.56-1.053-2.538c0-1.566,1.192-2.62,3.032-2.62
		c1.767,0,3.029,1.054,3.029,2.587c0,0.926-0.509,2.046-1.807,2.87l1.5,1.377c0.307-0.411,0.603-0.85,0.883-1.314
		c0.185-0.295,0.526-0.479,0.883-0.479c0.576,0,1.039,0.479,1.039,1.053c0,0.169-0.038,0.358-0.253,0.703
		c-0.306,0.477-0.634,0.955-0.971,1.389c0.355,0.299,0.773,0.623,1.224,1.02C52.955,22.252,53.092,22.454,53.092,22.841z
		 M46.764,21.832c0.635,0,1.206-0.247,1.751-0.647l-1.638-1.516c-0.113-0.107-0.234-0.202-0.339-0.31
		c-0.626,0.376-1.058,0.881-1.058,1.471C45.477,21.445,45.966,21.832,46.764,21.832z M46.281,15.472
		c0,0.524,0.295,1.002,0.742,1.498l0.06-0.031c0.7-0.386,1.101-0.699,1.101-1.466c0-0.543-0.419-0.961-0.993-0.961
		C46.667,14.51,46.281,14.929,46.281,15.472z"/>
</g>
<g>
	<rect x="14.5" y="6.25" fill="#FFFFFF" width="17.167" height="27.244"/>
	<path fill="#1C5C8C" d="M19.145,3.201c9.209,0,16.674,5.802,16.674,15.01c0,9.209-5.795,17.869-16.674,17.869
		c-9.911,0-16.67-8.733-16.67-17.943C2.475,8.928,9.939,3.201,19.145,3.201z"/>
	<circle fill="#1876F0" cx="19.145" cy="17.672" r="16.672"/>
	<path fill="#FEFEFE" d="M21.023,32.067v-5.442h0.031c0-1.131,0-2.262,0-3.396c0-0.59,0.004-1.182-0.004-1.771
		c-0.006-0.119,0.021-0.166,0.148-0.16c0.189,0.017,0.375,0.007,0.561,0.007c0.904,0,1.807,0,2.711,0
		c0.07,0,0.123,0.012,0.141-0.105c0.031-0.258,0.074-0.514,0.113-0.771c0.082-0.543,0.176-1.086,0.262-1.629
		c0.09-0.578,0.176-1.152,0.266-1.732c0.02-0.112,0-0.169-0.146-0.169c-1.297,0.007-2.59,0.001-3.889,0.007
		c-0.143,0-0.166-0.045-0.164-0.172c0.008-0.871-0.006-1.744,0.01-2.615c0.002-0.316,0.039-0.638,0.143-0.941
		c0.207-0.619,0.617-1.041,1.23-1.266c0.4-0.146,0.82-0.18,1.244-0.183c0.459-0.003,0.918,0,1.375-0.001
		c0.123-0.002,0.277,0.052,0.355-0.021c0.076-0.078,0.021-0.236,0.021-0.357c0-1.077,0-2.158,0-3.238
		c0-0.069,0.02-0.124-0.102-0.146c-0.521-0.086-1.045-0.143-1.57-0.194c-0.498-0.051-1-0.07-1.504-0.091
		c-0.342-0.014-0.682,0.028-1.021,0.057c-0.576,0.044-1.131,0.177-1.67,0.385c-1.104,0.428-1.945,1.162-2.517,2.198
		c-0.44,0.792-0.643,1.661-0.717,2.557c-0.029,0.364-0.041,0.734-0.039,1.104c0.01,0.921,0.002,1.843,0.008,2.763
		c0,0.127-0.021,0.164-0.159,0.164c-1.175-0.006-2.354,0-3.53-0.006c-0.137-0.001-0.156,0.037-0.156,0.161
		c0.006,1.367,0.006,2.73,0,4.096c0,0.121,0.026,0.157,0.151,0.153c1.162-0.01,2.326-0.006,3.487-0.006c0.205,0,0.205,0,0.205,0.199
		c0,1.707,0,3.418,0,5.123c0,1.695,0,3.385,0,5.077v0.095c0,0.002,0,0.006,0,0.01c0.002,0.016,0.002,0.023,0,0.035v0.229
		C17.871,32.067,19.445,32.067,21.023,32.067z"/>
</g>
</svg>
