<?xml version="1.0" encoding="utf-8"?>
<!-- Generator: Adobe Illustrator 16.0.0, SVG Export Plug-In . SVG Version: 6.00 Build 0)  -->
<!DOCTYPE svg PUBLIC "-//W3C//DTD SVG 1.1//EN" "http://www.w3.org/Graphics/SVG/1.1/DTD/svg11.dtd">
<svg version="1.1" id="Calque_1" xmlns="http://www.w3.org/2000/svg" xmlns:xlink="http://www.w3.org/1999/xlink" x="0px" y="0px"
	 width="153px" height="40px" viewBox="0 0 153 40" enable-background="new 0 0 153 40" xml:space="preserve">
<g>
	<g>
		<g>
			<g>
				<defs>
					<path id="SVGID_1_" d="M129.573,35.011L129.573,35.011 M129.573,35.011L129.573,35.011L129.573,35.011 M113.08,18.509
						c0,2.906,0.762,5.744,2.205,8.244l-2.342,8.543l8.744-2.293c2.408,1.312,5.121,2.004,7.879,2.008h0.007
						c9.09,0,16.487-7.396,16.489-16.488c0.004-4.405-1.709-8.547-4.824-11.662c-3.113-3.115-7.252-4.834-11.666-4.834
						C120.484,2.026,113.085,9.421,113.08,18.509"/>
				</defs>
				<clipPath id="SVGID_2_">
					<use xlink:href="#SVGID_1_"  overflow="visible"/>
				</clipPath>
				
					<linearGradient id="SVGID_3_" gradientUnits="userSpaceOnUse" x1="-581.939" y1="552.3008" x2="-581.8574" y2="552.3008" gradientTransform="matrix(0 -406.194 -406.194 0 224470.75 -236344.75)">
					<stop  offset="0" style="stop-color:#20B038"/>
					<stop  offset="1" style="stop-color:#60D66A"/>
				</linearGradient>
				<rect x="112.941" y="2.026" clip-path="url(#SVGID_2_)" fill="url(#SVGID_3_)" width="33.125" height="33.27"/>
			</g>
		</g>
	</g>
	<path fill="none" stroke="#FFFFFF" stroke-width="2.5885" stroke-miterlimit="10" d="M112.697,18.384
		c0,3.01,0.783,5.949,2.281,8.539l-2.422,8.848l9.055-2.373c2.498,1.361,5.304,2.076,8.162,2.078h0.009
		c9.416,0,17.075-7.66,17.084-17.075c0-4.565-1.777-8.857-5-12.083c-3.224-3.229-7.515-5.006-12.084-5.007
		C120.365,1.31,112.703,8.97,112.697,18.384"/>
	<g>
		<path fill="#FFFFFF" d="M125.305,11.365c-0.316-0.711-0.654-0.723-0.955-0.737c-0.256-0.01-0.537-0.01-0.822-0.01
			c-0.283,0-0.745,0.107-1.137,0.533c-0.393,0.428-1.494,1.461-1.494,3.56c0,2.101,1.531,4.129,1.744,4.415
			c0.215,0.287,2.955,4.734,7.291,6.439c3.604,1.428,4.34,1.145,5.12,1.07c0.783-0.072,2.528-1.031,2.882-2.025
			c0.356-1,0.356-1.854,0.248-2.033c-0.106-0.176-0.392-0.283-0.816-0.498c-0.428-0.215-2.525-1.244-2.917-1.389
			c-0.392-0.142-0.677-0.211-0.962,0.215c-0.284,0.428-1.104,1.389-1.352,1.672c-0.25,0.285-0.494,0.32-0.926,0.107
			c-0.43-0.215-1.799-0.664-3.432-2.117c-1.271-1.133-2.123-2.531-2.373-2.957c-0.248-0.428-0.027-0.659,0.184-0.872
			c0.193-0.191,0.432-0.499,0.645-0.747c0.215-0.251,0.285-0.43,0.427-0.713c0.143-0.284,0.069-0.533-0.033-0.748
			C126.516,14.321,125.686,12.21,125.305,11.365"/>
	</g>
</g>
<g id="Messenger_4_">
	
		<linearGradient id="Bubble_Solid_1_" gradientUnits="userSpaceOnUse" x1="32006.0547" y1="-27136.5996" x2="32006.0547" y2="-28231.3906" gradientTransform="matrix(0.0313 0 0 -0.0313 -927.2896 -847.4437)">
		<stop  offset="0" style="stop-color:#00B2FF"/>
		<stop  offset="1" style="stop-color:#006AFF"/>
	</linearGradient>
	<path id="Bubble_Solid_3_" fill="url(#Bubble_Solid_1_)" d="M74.5,1.435c-9.637,0-17.105,7.06-17.105,16.595
		c0,4.984,2.044,9.296,5.372,12.273c0.281,0.25,0.448,0.596,0.463,0.976l0.091,3.043c0.031,0.969,1.033,1.598,1.92,1.207
		l3.395-1.496c0.29-0.124,0.61-0.153,0.912-0.068c1.559,0.431,3.222,0.66,4.951,0.66c9.639,0,17.107-7.062,17.107-16.595
		C91.605,8.496,84.137,1.435,74.5,1.435z"/>
	<path id="Bolt_4_" fill="#FFFFFF" d="M64.229,22.88l5.026-7.97c0.798-1.265,2.513-1.584,3.71-0.687l3.994,3
		c0.368,0.277,0.872,0.274,1.235-0.003l5.396-4.097c0.717-0.545,1.664,0.317,1.178,1.082l-5.021,7.969
		c-0.799,1.271-2.514,1.582-3.713,0.685l-3.994-2.996c-0.368-0.274-0.872-0.271-1.234,0.002l-5.401,4.1
		C64.688,24.511,63.746,23.646,64.229,22.88z"/>
</g>
<g>
	<path fill="#8E8164" d="M50.924,22.841c0,0.463-0.374,0.987-1.036,0.987c-0.355,0-0.712-0.233-1.068-0.513
		c-0.326-0.242-0.622-0.494-0.941-0.776c-0.945,0.784-2.044,1.287-3.328,1.287c-2.078,0-3.508-1.211-3.508-2.901
		c0-1.23,0.742-2.16,2.009-2.937c-0.619-0.741-1.053-1.562-1.053-2.543c0-1.563,1.192-2.617,3.03-2.617
		c1.766,0,3.032,1.054,3.032,2.585c0,0.929-0.51,2.049-1.808,2.873l1.498,1.377c0.31-0.411,0.602-0.848,0.885-1.314
		c0.184-0.295,0.526-0.479,0.882-0.479c0.574,0,1.037,0.479,1.037,1.053c0,0.171-0.034,0.358-0.249,0.703
		c-0.31,0.477-0.634,0.955-0.973,1.389c0.355,0.299,0.774,0.623,1.222,1.02C50.79,22.257,50.924,22.454,50.924,22.841z
		 M44.594,21.832c0.637,0,1.208-0.247,1.751-0.647l-1.638-1.516c-0.113-0.107-0.231-0.202-0.338-0.31
		c-0.625,0.376-1.058,0.881-1.058,1.471C43.309,21.445,43.799,21.832,44.594,21.832z M44.114,15.472
		c0,0.521,0.292,1.002,0.742,1.498l0.06-0.031c0.698-0.386,1.101-0.699,1.101-1.466c0-0.543-0.418-0.961-0.993-0.961
		C44.498,14.51,44.114,14.929,44.114,15.472z"/>
</g>
<g>
	<path fill="#8E8164" d="M107.342,22.841c0,0.463-0.368,0.987-1.033,0.987c-0.354,0-0.711-0.233-1.072-0.513
		c-0.323-0.242-0.616-0.494-0.938-0.776c-0.945,0.784-2.042,1.287-3.328,1.287c-2.074,0-3.511-1.211-3.511-2.901
		c0-1.23,0.748-2.16,2.015-2.937c-0.62-0.741-1.052-1.562-1.052-2.543c0-1.563,1.192-2.617,3.03-2.617
		c1.765,0,3.03,1.054,3.03,2.585c0,0.929-0.514,2.049-1.807,2.873l1.496,1.377c0.311-0.411,0.603-0.848,0.882-1.314
		c0.189-0.295,0.532-0.479,0.889-0.479c0.571,0,1.034,0.479,1.034,1.053c0,0.171-0.033,0.358-0.248,0.703
		c-0.311,0.477-0.633,0.955-0.977,1.389c0.361,0.299,0.78,0.623,1.225,1.02C107.21,22.257,107.342,22.454,107.342,22.841z
		 M101.014,21.832c0.635,0,1.212-0.247,1.752-0.647l-1.636-1.516c-0.116-0.107-0.234-0.202-0.341-0.31
		c-0.624,0.376-1.057,0.881-1.057,1.471C99.726,21.445,100.219,21.832,101.014,21.832z M100.531,15.472
		c0,0.521,0.296,1.002,0.747,1.498l0.058-0.031c0.697-0.386,1.097-0.699,1.097-1.466c0-0.543-0.413-0.961-0.99-0.961
		C100.918,14.51,100.531,14.929,100.531,15.472z"/>
</g>
<g>
	<rect x="13.5" y="6.25" fill="#FFFFFF" width="17.167" height="27.244"/>
	<path fill="#1C5C8C" d="M18.145,3.201c9.209,0,16.674,5.802,16.674,15.01c0,9.209-5.795,17.869-16.674,17.869
		c-9.911,0-16.67-8.733-16.67-17.943C1.475,8.928,8.939,3.201,18.145,3.201z"/>
	<circle fill="#1876F0" cx="18.145" cy="17.672" r="16.672"/>
	<path fill="#FEFEFE" d="M20.023,32.067v-5.442h0.031c0-1.131,0-2.262,0-3.396c0-0.59,0.004-1.182-0.004-1.771
		c-0.006-0.119,0.021-0.166,0.148-0.16c0.189,0.017,0.375,0.007,0.561,0.007c0.904,0,1.807,0,2.711,0
		c0.07,0,0.123,0.012,0.141-0.105c0.031-0.258,0.074-0.514,0.113-0.771c0.082-0.543,0.176-1.086,0.262-1.629
		c0.09-0.578,0.176-1.152,0.266-1.732c0.02-0.112,0-0.169-0.146-0.169c-1.297,0.007-2.59,0.001-3.889,0.007
		c-0.143,0-0.166-0.045-0.164-0.172c0.008-0.871-0.006-1.744,0.01-2.615c0.002-0.316,0.039-0.638,0.143-0.941
		c0.207-0.619,0.617-1.041,1.23-1.266c0.4-0.146,0.82-0.18,1.244-0.183c0.459-0.003,0.918,0,1.375-0.001
		c0.123-0.002,0.277,0.052,0.355-0.021c0.076-0.078,0.021-0.236,0.021-0.357c0-1.077,0-2.158,0-3.238
		c0-0.069,0.02-0.124-0.102-0.146c-0.521-0.086-1.045-0.143-1.57-0.194c-0.498-0.051-1-0.07-1.504-0.091
		c-0.342-0.014-0.682,0.028-1.021,0.057c-0.576,0.044-1.131,0.177-1.67,0.385c-1.104,0.428-1.945,1.162-2.517,2.198
		c-0.44,0.792-0.643,1.661-0.717,2.557c-0.029,0.364-0.041,0.734-0.039,1.104c0.01,0.921,0.002,1.843,0.008,2.763
		c0,0.127-0.021,0.164-0.159,0.164c-1.175-0.006-2.354,0-3.53-0.006c-0.137-0.001-0.156,0.037-0.156,0.161
		c0.006,1.367,0.006,2.73,0,4.096c0,0.121,0.026,0.157,0.151,0.153c1.162-0.01,2.326-0.006,3.487-0.006c0.205,0,0.205,0,0.205,0.199
		c0,1.707,0,3.418,0,5.123c0,1.695,0,3.385,0,5.077v0.095c0,0.002,0,0.006,0,0.01c0.002,0.016,0.002,0.023,0,0.035v0.229
		C16.871,32.067,18.445,32.067,20.023,32.067z"/>
</g>
</svg>
