<?xml version="1.0" encoding="utf-8"?>
<!-- Generator: Adobe Illustrator 16.0.0, SVG Export Plug-In . SVG Version: 6.00 Build 0)  -->
<!DOCTYPE svg PUBLIC "-//W3C//DTD SVG 1.1//EN" "http://www.w3.org/Graphics/SVG/1.1/DTD/svg11.dtd">
<svg version="1.1" id="Calque_1" xmlns="http://www.w3.org/2000/svg" xmlns:xlink="http://www.w3.org/1999/xlink" x="0px" y="0px"
	 width="54.488px" height="32px" viewBox="0 0 54.488 32" enable-background="new 0 0 54.488 32" xml:space="preserve">
<rect x="-223.012" y="-111.56" fill="none" width="550.024" height="255.118"/>
<g>
	<linearGradient id="SVGID_1_" gradientUnits="userSpaceOnUse" x1="27.3491" y1="3.9434" x2="25.5889" y2="32.1054">
		<stop  offset="0" style="stop-color:#DCFF00"/>
		<stop  offset="0.3436" style="stop-color:#9CCB00"/>
		<stop  offset="0.6438" style="stop-color:#6BA300"/>
		<stop  offset="0.8715" style="stop-color:#4D8A00"/>
		<stop  offset="1" style="stop-color:#428100"/>
	</linearGradient>
	<path fill="url(#SVGID_1_)" d="M39.446,10.205c3.878,0.127,7.026,2.985,7.026,6.667s-2.702,6.357-6.582,6.408
		c-3.281,0.043-4.417-1.133-6.777-2.806c-3.41-2.503-8.244-11.18-14.564-14.141c-1.55-0.714-3.284-1.114-5.115-1.114
		c-6.588,0-11.929,5.173-11.929,11.555S6.846,28.33,13.434,28.33c5.291,0,9.708-4.014,12.211-6.948l-3.194-3.713
		c0,0-3.798,5.051-8.968,5.678c-3.852,0.467-7.025-2.986-7.025-6.669s3.145-6.667,7.025-6.667c2.374,0,5.083,2.177,5.743,2.829
		c3.225,2.068,6.161,7.939,13.5,13.406c1.954,1.354,4.347,2.149,6.931,2.149c6.589,0,11.93-5.173,11.93-11.555
		c0-6.381-5.341-11.555-11.93-11.555c-5.397,0-8.917,2.802-12.457,6.903l3.108,3.755C30.308,15.942,35.444,10.072,39.446,10.205z"/>
</g>
<g>
	<g>
		<linearGradient id="SVGID_2_" gradientUnits="userSpaceOnUse" x1="1.375" y1="16.8076" x2="51.7144" y2="16.8076">
			<stop  offset="0" style="stop-color:#B8EA00"/>
			<stop  offset="0.1468" style="stop-color:#A9DC00"/>
			<stop  offset="0.718" style="stop-color:#72A700"/>
			<stop  offset="0.9946" style="stop-color:#5C9300"/>
		</linearGradient>
		<path fill="url(#SVGID_2_)" d="M39.656,28.524c-2.53,0-4.953-0.752-7.004-2.172c-4.241-3.161-7-6.435-9.217-9.065
			c-1.635-1.94-2.927-3.472-4.279-4.338l-0.021-0.017c-0.596-0.589-3.303-2.792-5.652-2.792c-3.803,0-6.896,2.933-6.896,6.538
			c0,1.647,0.658,3.312,1.805,4.565c1.19,1.3,2.75,2.017,4.39,2.017c0,0,0,0,0.001,0c0.227,0,0.458-0.014,0.685-0.042
			c5.054-0.612,8.843-5.576,8.88-5.626l0.097-0.129l3.371,3.918l-0.072,0.084c-2.228,2.612-6.79,6.995-12.31,6.995
			c-6.649,0-12.059-5.242-12.059-11.685c0-6.443,5.41-11.685,12.059-11.685c1.809,0,3.547,0.378,5.169,1.125
			c4.001,1.875,7.451,6.074,10.222,9.447c1.67,2.033,3.112,3.788,4.365,4.708c0.293,0.207,0.569,0.409,0.833,0.601
			c1.837,1.341,3.036,2.215,5.866,2.179c3.801-0.049,6.454-2.632,6.454-6.278c0-3.539-3.03-6.411-6.9-6.538
			c-3.9-0.129-8.987,5.637-9.038,5.694l-0.1,0.115l-3.275-3.958l0.072-0.083c3.6-4.17,7.112-6.947,12.555-6.947
			c6.649,0,12.058,5.242,12.058,11.685C51.714,23.282,46.305,28.524,39.656,28.524z M19.307,12.739
			c1.381,0.888,2.681,2.432,4.326,4.381c2.208,2.62,4.958,5.882,9.17,9.021c2.005,1.39,4.376,2.125,6.854,2.125
			c6.506,0,11.8-5.126,11.8-11.426s-5.293-11.426-11.8-11.426c-5.309,0-8.759,2.705-12.288,6.775l2.942,3.555
			c0.76-0.844,5.382-5.792,9.141-5.669c4.009,0.132,7.15,3.118,7.15,6.797c0,3.798-2.759,6.486-6.71,6.539
			c-2.909,0.035-4.143-0.859-6.021-2.229c-0.263-0.191-0.538-0.393-0.832-0.602c-1.281-0.939-2.732-2.707-4.413-4.752
			c-2.755-3.354-6.183-7.527-10.131-9.377c-1.587-0.73-3.29-1.101-5.061-1.101c-6.506,0-11.8,5.125-11.8,11.426
			c0,6.3,5.293,11.426,11.8,11.426c5.358,0,9.817-4.232,12.041-6.819l-3.019-3.509c-0.636,0.789-4.252,5.031-8.958,5.602
			c-0.237,0.029-0.479,0.044-0.716,0.044c0,0,0,0-0.001,0c-1.714,0-3.34-0.746-4.581-2.101c-1.19-1.301-1.874-3.028-1.874-4.74
			c0-3.748,3.21-6.797,7.156-6.797C15.908,9.881,18.675,12.118,19.307,12.739z"/>
	</g>
</g>
<g>
	<path fill="#A4DB00" d="M14.972,23.994c4.021-0.487,7.213-3.652,8.433-5.033l-0.889-1.032c0,0-3.798,5.051-8.968,5.676
		c-0.507,0.062-1.001,0.055-1.479-0.013C12.956,23.96,13.939,24.118,14.972,23.994z"/>
	<path fill="#A4DB00" d="M41.314,23.67c3.88-0.052,6.582-2.726,6.582-6.409c0-3.322-2.562-5.972-5.911-6.553
		c2.623,0.99,4.486,3.333,4.486,6.165c0,3.683-2.702,6.357-6.582,6.408c-0.66,0.009-1.23-0.032-1.744-0.116
		C38.998,23.503,39.978,23.687,41.314,23.67z"/>
</g>
<path fill="#FFFFFF" d="M42.307,5.479c4.649,1.578,7.983,5.865,7.983,10.907c0,6.381-5.341,11.556-11.929,11.556
	c-0.864,0-1.707-0.092-2.519-0.262c1.234,0.42,2.561,0.649,3.943,0.649c6.588,0,11.929-5.173,11.929-11.555
	C51.714,11.231,47.685,6.601,42.307,5.479z"/>
</svg>
