<?xml version="1.0" encoding="utf-8"?>
<!-- Generator: Adobe Illustrator 16.0.0, SVG Export Plug-In . SVG Version: 6.00 Build 0)  -->
<!DOCTYPE svg PUBLIC "-//W3C//DTD SVG 1.1//EN" "http://www.w3.org/Graphics/SVG/1.1/DTD/svg11.dtd">
<svg version="1.1" id="Layer_1" xmlns="http://www.w3.org/2000/svg" xmlns:xlink="http://www.w3.org/1999/xlink" x="0px" y="0px"
	 width="138px" height="53px" viewBox="8.167 0 138 53" enable-background="new 8.167 0 138 53" xml:space="preserve">
<g>
	<path fill="#2273A0" d="M20.634,27.971l4.081-12.205l-3.296,0.101L14.493,32.74c14.771-3.809,22.223,7.846,22.223,7.846
		C32.074,29.106,20.634,27.971,20.634,27.971"/>
	<path fill="#185684" d="M13.622,33.504l5.094-12.442l-1.812,0.177L9.722,37.255c14.588-5.819,23.829,0.768,23.829,0.768
		C25.016,29.732,13.622,33.504,13.622,33.504"/>
	<path fill="#2D9AD4" d="M26.94,11.42l-5.342,15.955c0,0,12.291,2.154,16.076,14.354l0.019-17.619
		C37.693,24.111,36.888,15.985,26.94,11.42"/>
	<path fill="#F08134" d="M52.669,11.253L38.443,24.128l0.327,17.619L60.125,27.11L52.669,11.253z M39.564,24.446l12.548-11.344
		l5.587,12.402L39.87,37.788L39.564,24.446z M50.689,32.813l-1.735,1.174c-0.445,0.277-1.064,0.363-1.252-0.064
		c-0.234-0.38-0.114-0.922,0.211-1.131l1.759-1.133c0.324-0.209,0.854-0.132,1.183,0.171C51.07,32.1,51.114,32.522,50.689,32.813"/>
</g>
<g>
	<path fill="#185684" d="M65.583,28c0.037-0.288,0.085-0.568,0.145-0.834c0.061-0.266,0.138-0.513,0.228-0.745
		c0.092-0.229,0.191-0.426,0.3-0.589s0.229-0.282,0.364-0.354c0.131-0.059,0.303-0.121,0.516-0.19
		c0.212-0.065,0.41-0.088,0.599-0.072c0.188,0.019,0.329,0.104,0.426,0.254c0.097,0.154,0.091,0.417-0.018,0.789
		c-0.048,0.207-0.091,0.464-0.126,0.77c-0.038,0.312-0.06,0.643-0.064,1c-0.007,0.358,0.003,0.714,0.026,1.071
		c0.025,0.356,0.07,0.687,0.137,0.987c0.067,0.304,0.156,0.56,0.272,0.773c0.114,0.209,0.257,0.348,0.426,0.407
		c0.351,0.121,0.653,0.108,0.906-0.034c0.256-0.149,0.491-0.37,0.707-0.674c0.085-0.133,0.189-0.245,0.31-0.336
		c0.121-0.091,0.221-0.128,0.299-0.118c0.079,0.013,0.119,0.09,0.119,0.237c0,0.145-0.078,0.386-0.236,0.724
		c-0.169,0.352-0.384,0.66-0.645,0.927c-0.259,0.267-0.551,0.473-0.87,0.627c-0.321,0.15-0.662,0.238-1.024,0.264
		c-0.362,0.021-0.726-0.032-1.09-0.164c-0.361-0.122-0.659-0.294-0.888-0.52c-0.23-0.223-0.408-0.52-0.535-0.896
		s-0.213-0.833-0.256-1.372C65.568,29.394,65.559,28.751,65.583,28 M66.401,21.521c0.132-0.263,0.336-0.428,0.608-0.488
		c0.27-0.06,0.536-0.052,0.797,0.019c0.26,0.073,0.484,0.199,0.672,0.374c0.187,0.176,0.263,0.376,0.228,0.607
		c-0.05,0.279-0.204,0.516-0.465,0.715c-0.259,0.2-0.649,0.274-1.17,0.229c-0.144-0.014-0.275-0.067-0.389-0.163
		c-0.115-0.097-0.208-0.216-0.281-0.354c-0.073-0.142-0.112-0.295-0.119-0.464C66.276,21.825,66.315,21.67,66.401,21.521"/>
	<path fill="#185684" d="M85.577,34.207c-1.187-0.101-2.117-0.592-2.794-1.479c-0.678-0.89-1.143-2.067-1.397-3.53
		c-0.096-0.52-0.16-1.051-0.189-1.597c-0.03-0.545-0.053-1.087-0.065-1.622c-0.011-0.539-0.018-1.072-0.018-1.598
		s-0.005-1.037-0.019-1.534c-0.361,0.05-0.676,0.3-0.943,0.755c-0.266,0.453-0.493,1.008-0.679,1.67
		c-0.188,0.657-0.343,1.37-0.464,2.138c-0.12,0.771-0.228,1.494-0.317,2.178c-0.092,0.686-0.165,1.276-0.226,1.778
		c-0.061,0.501-0.122,0.809-0.183,0.914c-0.072,0.173-0.192,0.305-0.362,0.401c-0.169,0.098-0.354,0.153-0.553,0.172
		c-0.2,0.019-0.399,0-0.6-0.053c-0.2-0.057-0.36-0.15-0.48-0.282c-0.29-0.315-0.514-0.736-0.671-1.263
		c-0.158-0.526-0.249-1.055-0.271-1.588c-0.049-1.279-0.144-2.59-0.282-3.926s-0.348-2.621-0.626-3.855
		c-0.085,0.062-0.173,0.124-0.263,0.189c-0.091,0.066-0.181,0.164-0.273,0.292c-0.09,0.125-0.188,0.295-0.289,0.498
		c-0.103,0.206-0.21,0.473-0.317,0.799c-0.085,0.254-0.164,0.604-0.236,1.053c-0.072,0.447-0.136,0.942-0.191,1.486
		c-0.054,0.546-0.102,1.112-0.144,1.708c-0.042,0.592-0.08,1.155-0.109,1.693c-0.029,0.54-0.053,1.024-0.072,1.454
		c-0.019,0.428-0.033,0.758-0.045,0.985c-0.013,0.182-0.107,0.33-0.282,0.445c-0.176,0.116-0.377,0.179-0.608,0.191
		c-0.228,0.013-0.459-0.031-0.688-0.129c-0.23-0.094-0.399-0.26-0.507-0.488c-0.172-0.339-0.28-0.717-0.327-1.135
		c-0.049-0.416-0.065-0.844-0.046-1.276c0.02-0.436,0.061-0.868,0.126-1.291c0.066-0.423,0.131-0.82,0.192-1.196
		c0.047-0.326,0.12-0.745,0.217-1.263c0.097-0.512,0.221-1.052,0.373-1.612c0.15-0.564,0.335-1.115,0.554-1.659
		c0.216-0.546,0.477-1.016,0.778-1.407c0.304-0.392,0.657-0.673,1.062-0.846c0.404-0.17,0.862-0.159,1.369,0.02
		c0.327,0.122,0.604,0.388,0.835,0.799c0.23,0.412,0.418,0.908,0.562,1.487c0.146,0.579,0.258,1.212,0.337,1.898
		c0.079,0.682,0.138,1.349,0.173,2.004c0.035,0.652,0.058,1.256,0.062,1.813c0.007,0.555,0.016,0.996,0.029,1.324
		c0.096-0.253,0.208-0.601,0.335-1.042c0.127-0.442,0.273-0.935,0.436-1.473c0.162-0.536,0.345-1.094,0.545-1.667
		c0.198-0.575,0.42-1.127,0.66-1.652c0.242-0.526,0.503-0.999,0.781-1.423c0.277-0.423,0.575-0.745,0.889-0.961
		c0.314-0.22,0.649-0.313,1.007-0.282c0.356,0.031,0.735,0.231,1.134,0.608c0.267,0.253,0.486,0.66,0.662,1.224
		c0.175,0.565,0.327,1.2,0.455,1.914c0.126,0.714,0.238,1.463,0.334,2.249c0.097,0.786,0.197,1.524,0.299,2.213
		c0.104,0.69,0.215,1.292,0.338,1.806c0.12,0.516,0.276,0.864,0.471,1.042c0.29,0.292,0.568,0.477,0.834,0.555
		c0.268,0.079,0.502,0.125,0.708,0.138c0.206,0.01,0.384,0.016,0.534,0.016c0.153,0,0.258,0.069,0.318,0.2
		c0.048,0.11,0.034,0.229-0.045,0.354c-0.078,0.13-0.203,0.242-0.372,0.346c-0.171,0.104-0.382,0.188-0.637,0.254
		C86.138,34.207,85.866,34.228,85.577,34.207"/>
	<path fill="#185684" d="M90.638,25.08c-0.036,0.157-0.141,0.288-0.31,0.389c-0.169,0.104-0.362,0.21-0.578,0.319
		c-0.22,0.107-0.442,0.229-0.673,0.361c-0.23,0.134-0.425,0.309-0.581,0.528c-0.24,0.35-0.412,0.769-0.508,1.25
		c-0.096,0.485-0.142,0.945-0.136,1.387c0.005,0.441,0.06,0.824,0.163,1.144c0.104,0.322,0.234,0.482,0.391,0.482
		c0.194,0,0.396-0.092,0.606-0.273c0.212-0.181,0.402-0.391,0.572-0.626c0.169-0.234,0.309-0.475,0.418-0.727
		c0.108-0.247,0.163-0.439,0.163-0.57c0-0.135-0.007-0.316-0.02-0.554c-0.011-0.235-0.009-0.467,0.011-0.698
		c0.018-0.229,0.054-0.429,0.108-0.599c0.054-0.169,0.147-0.26,0.281-0.272c0.132-0.013,0.293-0.041,0.48-0.09
		c0.188-0.047,0.366-0.054,0.535-0.02c0.169,0.038,0.306,0.156,0.407,0.357c0.104,0.197,0.143,0.538,0.119,1.023
		c-0.036,0.98,0.012,1.72,0.144,2.221c0.135,0.505,0.396,0.797,0.782,0.88c0.266,0.051,0.504-0.013,0.715-0.19
		c0.214-0.176,0.403-0.37,0.572-0.589c0.169-0.216,0.314-0.413,0.435-0.589c0.121-0.176,0.218-0.243,0.292-0.21
		c0.085,0.037,0.113,0.188,0.089,0.454c-0.022,0.267-0.113,0.566-0.271,0.899c-0.157,0.331-0.389,0.663-0.698,0.996
		c-0.308,0.334-0.704,0.592-1.188,0.773c-0.255,0.096-0.49,0.144-0.708,0.144c-0.219,0-0.415-0.031-0.59-0.091
		s-0.329-0.145-0.462-0.254c-0.134-0.11-0.255-0.231-0.362-0.363c-0.242-0.301-0.436-0.676-0.581-1.125
		c-0.121,0.292-0.291,0.546-0.507,0.762c-0.184,0.195-0.42,0.373-0.708,0.536c-0.292,0.163-0.648,0.256-1.072,0.28
		c-0.424,0.015-0.821-0.121-1.198-0.399c-0.373-0.275-0.672-0.652-0.896-1.125c-0.224-0.47-0.345-1.017-0.363-1.641
		c-0.018-0.623,0.119-1.277,0.408-1.967c0.193-0.448,0.448-0.83,0.762-1.146c0.314-0.314,0.648-0.571,1.007-0.772
		c0.357-0.196,0.715-0.343,1.071-0.436c0.356-0.087,0.676-0.139,0.961-0.153c0.283-0.012,0.514,0.011,0.689,0.066
		C90.585,24.907,90.663,24.983,90.638,25.08"/>
	<path fill="#185684" d="M99.436,26.334c0.073-0.813,0.135-1.573,0.181-2.288c0.038-0.616,0.068-1.228,0.093-1.831
		c0.022-0.605,0.022-1.065,0-1.382c-0.024-0.301,0.045-0.579,0.208-0.833c0.162-0.253,0.354-0.473,0.572-0.654
		c0.218-0.181,0.436-0.319,0.651-0.417c0.219-0.097,0.376-0.144,0.472-0.144c0.098,0,0.156,0.241,0.173,0.724
		c0.02,0.485,0.02,1.111,0,1.879c-0.017,0.768-0.042,1.635-0.071,2.603c-0.03,0.968-0.04,1.941-0.028,2.923
		c0.012,0.904,0.066,1.643,0.162,2.214c0.098,0.566,0.223,1.012,0.373,1.331c0.151,0.322,0.313,0.548,0.48,0.683
		c0.17,0.132,0.334,0.22,0.49,0.263c0.156,0.042,0.289,0.069,0.4,0.081c0.107,0.014,0.181,0.054,0.216,0.126
		c0.05,0.11,0.01,0.247-0.116,0.417c-0.128,0.172-0.315,0.316-0.564,0.435c-0.248,0.123-0.539,0.186-0.879,0.191
		c-0.339,0.007-0.696-0.093-1.069-0.297c-0.315-0.17-0.553-0.399-0.708-0.684c-0.157-0.281-0.267-0.563-0.327-0.843
		c-0.072-0.313-0.103-0.641-0.09-0.979c-0.268,0.484-0.58,0.907-0.945,1.271c-0.156,0.156-0.331,0.307-0.526,0.453
		c-0.191,0.146-0.404,0.27-0.633,0.38c-0.23,0.109-0.479,0.194-0.745,0.254c-0.266,0.063-0.55,0.082-0.853,0.057
		c-0.326-0.025-0.621-0.158-0.879-0.393c-0.261-0.235-0.479-0.532-0.654-0.89c-0.176-0.354-0.302-0.755-0.381-1.196
		c-0.077-0.441-0.105-0.883-0.082-1.324c0.024-0.442,0.108-0.865,0.255-1.27c0.146-0.406,0.356-0.755,0.636-1.042
		c0.205-0.206,0.423-0.363,0.653-0.473c0.229-0.109,0.462-0.18,0.697-0.21c0.235-0.028,0.473-0.028,0.708,0
		c0.235,0.03,0.456,0.078,0.661,0.138C98.451,25.75,98.94,25.991,99.436,26.334 M96.607,27.965c-0.11,0.291-0.18,0.596-0.21,0.914
		c-0.028,0.322-0.035,0.614-0.017,0.88c0.017,0.267,0.056,0.492,0.116,0.674c0.062,0.178,0.135,0.278,0.219,0.288
		c0.17,0.051,0.348,0.013,0.535-0.11c0.187-0.119,0.438-0.365,0.752-0.741c0.145-0.193,0.295-0.429,0.445-0.707
		c0.151-0.279,0.277-0.553,0.382-0.815c0.102-0.266,0.165-0.504,0.189-0.708c0.024-0.207-0.005-0.328-0.09-0.362
		c-0.097-0.037-0.251-0.073-0.464-0.11c-0.211-0.037-0.435-0.04-0.672-0.019c-0.235,0.025-0.465,0.095-0.688,0.211
		C96.88,27.471,96.715,27.673,96.607,27.965"/>
	<path fill="#185684" d="M103.682,25.66c-0.133-0.073-0.253-0.113-0.363-0.125c-0.108-0.014-0.208-0.02-0.3-0.02
		c-0.09,0-0.169-0.009-0.235-0.028c-0.065-0.019-0.124-0.076-0.173-0.172c-0.035-0.085,0.022-0.201,0.173-0.345
		s0.354-0.267,0.607-0.363c0.256-0.097,0.538-0.134,0.854-0.116c0.314,0.017,0.617,0.142,0.906,0.37
		c0.253,0.219,0.461,0.426,0.627,0.626c0.163,0.201,0.292,0.379,0.389,0.535c0.11,0.182,0.188,0.357,0.235,0.527
		c0.341-0.326,0.691-0.599,1.053-0.818c0.316-0.19,0.666-0.351,1.055-0.47c0.386-0.123,0.771-0.128,1.159-0.019
		c0.096,0.037,0.143,0.113,0.137,0.226c-0.006,0.115-0.056,0.242-0.146,0.373c-0.092,0.135-0.215,0.259-0.371,0.382
		c-0.159,0.119-0.345,0.203-0.563,0.254c-0.423,0.097-0.758,0.277-1.008,0.545c-0.246,0.266-0.438,0.575-0.569,0.933
		c-0.135,0.357-0.218,0.739-0.254,1.144c-0.038,0.404-0.055,0.796-0.055,1.172c0.012,0.786-0.097,1.367-0.327,1.75
		c-0.23,0.379-0.538,0.583-0.926,0.605c-0.448,0.024-0.779-0.18-0.997-0.618c-0.218-0.433-0.328-1.171-0.328-2.21
		c0.013-0.655,0.02-1.223,0.02-1.707c0-0.483-0.02-0.891-0.055-1.226c-0.037-0.331-0.098-0.595-0.181-0.789
		C103.959,25.886,103.838,25.745,103.682,25.66"/>
	<path fill="#185684" d="M114.984,25.08c-0.036,0.157-0.14,0.288-0.309,0.389c-0.17,0.104-0.361,0.21-0.579,0.319
		c-0.219,0.107-0.443,0.229-0.673,0.361c-0.23,0.134-0.423,0.309-0.581,0.528c-0.24,0.35-0.408,0.769-0.507,1.25
		c-0.097,0.485-0.143,0.945-0.136,1.387s0.06,0.824,0.162,1.144c0.104,0.322,0.234,0.482,0.391,0.482
		c0.193,0,0.396-0.092,0.606-0.273c0.212-0.181,0.403-0.391,0.573-0.626c0.168-0.234,0.308-0.475,0.418-0.727
		c0.107-0.247,0.162-0.439,0.162-0.57c0-0.135-0.007-0.316-0.019-0.554c-0.012-0.235-0.008-0.467,0.01-0.698
		c0.019-0.229,0.055-0.429,0.108-0.599c0.055-0.169,0.148-0.26,0.281-0.272c0.134-0.013,0.293-0.041,0.481-0.09
		c0.188-0.047,0.365-0.054,0.535-0.02c0.169,0.038,0.305,0.156,0.408,0.357c0.103,0.197,0.142,0.538,0.118,1.023
		c-0.037,0.98,0.012,1.72,0.146,2.221c0.132,0.505,0.391,0.797,0.779,0.88c0.266,0.051,0.504-0.013,0.716-0.19
		c0.214-0.176,0.402-0.37,0.571-0.589c0.17-0.216,0.315-0.413,0.436-0.589c0.123-0.176,0.218-0.243,0.292-0.21
		c0.085,0.037,0.113,0.188,0.09,0.454c-0.024,0.267-0.115,0.566-0.272,0.899c-0.158,0.331-0.39,0.663-0.698,0.996
		c-0.309,0.334-0.704,0.592-1.188,0.773c-0.254,0.096-0.489,0.144-0.708,0.144c-0.217,0-0.413-0.031-0.589-0.091
		c-0.175-0.06-0.33-0.145-0.463-0.254c-0.134-0.11-0.254-0.231-0.362-0.363c-0.242-0.301-0.436-0.676-0.581-1.125
		c-0.121,0.292-0.289,0.546-0.507,0.762c-0.184,0.195-0.418,0.373-0.708,0.536c-0.292,0.163-0.646,0.256-1.071,0.28
		c-0.423,0.015-0.821-0.121-1.198-0.399c-0.374-0.275-0.673-0.652-0.897-1.125c-0.223-0.47-0.344-1.017-0.362-1.641
		c-0.019-0.623,0.118-1.277,0.408-1.967c0.192-0.448,0.447-0.83,0.763-1.146c0.313-0.314,0.65-0.571,1.005-0.772
		c0.357-0.196,0.715-0.343,1.071-0.436c0.357-0.087,0.676-0.139,0.961-0.153c0.286-0.012,0.516,0.011,0.692,0.066
		C114.932,24.907,115.008,24.983,114.984,25.08"/>
	<path fill="#185684" d="M123.293,23.919c0.048,0.097,0.041,0.173-0.02,0.225c-0.06,0.056-0.147,0.109-0.261,0.167
		c-0.116,0.053-0.247,0.118-0.393,0.197c-0.144,0.08-0.282,0.19-0.416,0.338c-0.133,0.144-0.243,0.331-0.335,0.561
		c-0.091,0.231-0.136,0.52-0.136,0.871c-0.013,0.351,0.067,0.688,0.244,1.018c0.175,0.326,0.392,0.641,0.643,0.952
		c0.256,0.307,0.534,0.611,0.838,0.905c0.3,0.297,0.572,0.598,0.814,0.908c0.241,0.307,0.433,0.623,0.572,0.942
		c0.138,0.323,0.183,0.651,0.137,0.989c-0.063,0.339-0.252,0.627-0.572,0.861c-0.321,0.235-0.711,0.417-1.17,0.545
		c-0.461,0.125-0.955,0.194-1.488,0.207c-0.531,0.013-1.031-0.032-1.496-0.134c-0.467-0.104-0.868-0.264-1.207-0.483
		c-0.339-0.216-0.55-0.494-0.635-0.832c-0.134-0.496-0.173-0.915-0.119-1.254c0.055-0.338,0.154-0.62,0.301-0.842
		c0.146-0.226,0.309-0.398,0.488-0.526c0.182-0.129,0.339-0.226,0.474-0.302c0.276-0.155,0.462-0.155,0.552,0
		c0.091,0.161,0.033,0.407-0.172,0.746c-0.098,0.17-0.121,0.36-0.072,0.569c0.047,0.213,0.16,0.414,0.335,0.6
		c0.177,0.187,0.399,0.351,0.673,0.481c0.271,0.136,0.581,0.207,0.936,0.216c0.215,0.013,0.435-0.009,0.659-0.063
		c0.226-0.053,0.409-0.137,0.554-0.253c0.146-0.115,0.233-0.254,0.265-0.417c0.027-0.163-0.034-0.348-0.192-0.554
		c-0.157-0.203-0.428-0.464-0.815-0.78c-0.389-0.313-0.784-0.66-1.188-1.042c-0.405-0.382-0.763-0.786-1.07-1.217
		c-0.309-0.428-0.462-0.86-0.462-1.296c0-0.858,0.153-1.489,0.462-1.889c0.308-0.398,0.808-0.658,1.497-0.78
		c0.338-0.06,0.616-0.088,0.834-0.081c0.217,0.007,0.39,0.034,0.518,0.081c0.126,0.051,0.221,0.106,0.28,0.172
		C123.208,23.795,123.256,23.859,123.293,23.919"/>
	<path fill="#185684" d="M129.662,23.919c0.049,0.097,0.042,0.173-0.019,0.225c-0.062,0.056-0.149,0.109-0.263,0.167
		c-0.115,0.053-0.246,0.118-0.391,0.197c-0.145,0.08-0.283,0.19-0.416,0.338c-0.136,0.144-0.247,0.331-0.337,0.561
		c-0.091,0.231-0.136,0.52-0.136,0.871c-0.013,0.351,0.07,0.688,0.245,1.018c0.174,0.326,0.39,0.641,0.644,0.952
		c0.254,0.307,0.533,0.611,0.834,0.905c0.304,0.297,0.576,0.598,0.816,0.908c0.242,0.307,0.434,0.623,0.572,0.942
		c0.139,0.323,0.185,0.651,0.136,0.989c-0.062,0.339-0.25,0.627-0.571,0.861c-0.319,0.235-0.71,0.417-1.17,0.545
		c-0.461,0.125-0.955,0.194-1.488,0.207c-0.532,0.013-1.03-0.032-1.497-0.134c-0.467-0.104-0.866-0.264-1.205-0.483
		c-0.338-0.216-0.552-0.494-0.636-0.832c-0.134-0.496-0.172-0.915-0.117-1.254c0.055-0.338,0.154-0.62,0.299-0.842
		c0.146-0.226,0.309-0.398,0.49-0.526c0.182-0.129,0.338-0.226,0.472-0.302c0.277-0.155,0.462-0.155,0.554,0
		c0.089,0.161,0.033,0.407-0.172,0.746c-0.098,0.17-0.123,0.36-0.073,0.569c0.048,0.213,0.158,0.414,0.334,0.6
		c0.175,0.187,0.4,0.351,0.672,0.481c0.273,0.136,0.584,0.207,0.935,0.216c0.219,0.013,0.438-0.009,0.664-0.063
		c0.221-0.053,0.406-0.137,0.552-0.253c0.146-0.115,0.233-0.254,0.263-0.417s-0.034-0.348-0.19-0.554
		c-0.156-0.203-0.43-0.464-0.816-0.78c-0.387-0.313-0.782-0.66-1.188-1.042s-0.762-0.786-1.071-1.217
		c-0.307-0.428-0.462-0.86-0.462-1.296c0-0.858,0.155-1.489,0.462-1.889c0.31-0.398,0.809-0.658,1.497-0.78
		c0.339-0.06,0.616-0.088,0.835-0.081s0.391,0.034,0.516,0.081c0.129,0.051,0.221,0.106,0.282,0.172
		C129.577,23.795,129.624,23.859,129.662,23.919"/>
	<path fill="#185684" d="M136.61,25.08c-0.037,0.157-0.141,0.288-0.309,0.389c-0.171,0.104-0.363,0.21-0.581,0.319
		c-0.217,0.107-0.441,0.229-0.671,0.361c-0.229,0.134-0.423,0.309-0.581,0.528c-0.242,0.35-0.411,0.769-0.508,1.25
		c-0.097,0.485-0.142,0.945-0.137,1.387c0.007,0.441,0.062,0.824,0.164,1.144c0.104,0.322,0.234,0.482,0.391,0.482
		c0.193,0,0.396-0.092,0.608-0.273c0.211-0.181,0.4-0.391,0.57-0.626c0.169-0.234,0.309-0.475,0.417-0.727
		c0.109-0.247,0.163-0.439,0.163-0.57c0-0.135-0.007-0.316-0.018-0.554c-0.013-0.235-0.009-0.467,0.01-0.698
		c0.017-0.229,0.055-0.429,0.108-0.599c0.054-0.169,0.148-0.26,0.281-0.272c0.132-0.013,0.293-0.041,0.48-0.09
		c0.187-0.047,0.365-0.054,0.536-0.02c0.168,0.038,0.306,0.156,0.407,0.357c0.104,0.197,0.142,0.538,0.119,1.023
		c-0.036,0.98,0.011,1.72,0.143,2.221c0.134,0.505,0.394,0.797,0.781,0.88c0.266,0.051,0.505-0.013,0.716-0.19
		c0.213-0.176,0.403-0.37,0.573-0.589c0.169-0.216,0.314-0.413,0.435-0.589c0.123-0.176,0.218-0.243,0.29-0.21
		c0.084,0.037,0.116,0.188,0.091,0.454c-0.023,0.267-0.114,0.566-0.271,0.899c-0.158,0.331-0.39,0.663-0.697,0.996
		c-0.31,0.334-0.705,0.592-1.189,0.773c-0.253,0.096-0.489,0.144-0.708,0.144c-0.217,0-0.413-0.031-0.589-0.091
		c-0.177-0.06-0.33-0.145-0.463-0.254c-0.135-0.11-0.253-0.231-0.364-0.363c-0.24-0.301-0.433-0.676-0.579-1.125
		c-0.122,0.292-0.291,0.546-0.509,0.762c-0.182,0.195-0.416,0.373-0.707,0.536s-0.646,0.256-1.07,0.28
		c-0.425,0.015-0.823-0.121-1.197-0.399c-0.375-0.275-0.675-0.652-0.898-1.125c-0.223-0.47-0.344-1.017-0.362-1.641
		c-0.018-0.623,0.119-1.277,0.409-1.967c0.191-0.448,0.447-0.83,0.761-1.146c0.313-0.314,0.65-0.571,1.006-0.772
		c0.357-0.196,0.715-0.343,1.071-0.436c0.357-0.087,0.677-0.139,0.962-0.153c0.283-0.012,0.514,0.011,0.688,0.066
		C136.557,24.907,136.633,24.983,136.61,25.08"/>
</g>
</svg>
