<?xml version="1.0" encoding="utf-8"?>
<!-- Generator: Adobe Illustrator 16.0.0, SVG Export Plug-In . SVG Version: 6.00 Build 0)  -->
<!DOCTYPE svg PUBLIC "-//W3C//DTD SVG 1.1//EN" "http://www.w3.org/Graphics/SVG/1.1/DTD/svg11.dtd">
<svg version="1.1" id="Calque_1" xmlns="http://www.w3.org/2000/svg" xmlns:xlink="http://www.w3.org/1999/xlink" x="0px" y="0px"
	 width="400px" height="138.945px" viewBox="0 0 400 138.945" enable-background="new 0 0 400 138.945" xml:space="preserve">
<polygon fill="#0D47A1" points="401.158,94.991 203.221,124.991 -1.158,94.991 -1.158,0 401.158,0 "/>
<g>
	<g>
		<path fill="#FFFFFF" d="M59.189,50.609v4.226h6.728c1.377,0,2.503,0.971,2.503,2.346c0,1.376-1.125,2.347-2.503,2.347h-6.728
			v6.917c0,0.657-0.406,1.062-1.033,1.062h-2.941c-0.657,0-1.063-0.405-1.063-1.062V48.357c0-1.628,1.127-2.44,2.472-2.44h0.032
			h10.67c1.377,0,2.503,0.969,2.503,2.347c0,1.375-1.126,2.346-2.503,2.346L59.189,50.609L59.189,50.609z"/>
		<path fill="#FFFFFF" d="M69.952,59.215c0-4.726,3.818-8.543,8.543-8.543c4.726,0,8.542,3.817,8.542,8.543
			c0,4.788-3.817,8.604-8.542,8.604C73.771,67.819,69.952,64.002,69.952,59.215z M82.689,59.215c0-2.316-1.847-4.162-4.194-4.162
			c-2.284,0-4.193,1.846-4.193,4.162c0,2.379,1.909,4.226,4.193,4.226C80.842,63.44,82.689,61.593,82.689,59.215z"/>
		<path fill="#FFFFFF" d="M97.957,55.053c-2.16,0-4.13,1.751-4.13,4.287v7.292c0,0.563-0.313,0.875-0.876,0.875h-2.722
			c-0.563,0-0.876-0.312-0.876-0.875v-7.261c0-3.191,1.721-5.976,4.192-7.479c1.659-1.032,3.067-1.22,4.882-1.22
			c0.751,0,1.345,0,1.878,0.218c0.844,0.345,1.376,1.127,1.376,2.066c0,1.126-0.876,2.16-2.159,2.16
			C98.99,55.115,98.552,55.053,97.957,55.053z"/>
		<path fill="#FFFFFF" d="M114.478,53.112c0,1.221-0.939,2.191-2.159,2.191h-3.005v11.329c0,0.563-0.314,0.875-0.876,0.875h-2.722
			c-0.563,0-0.876-0.312-0.876-0.875l0.031-11.329h-0.407c-1.22,0-2.159-0.971-2.159-2.191c0-1.157,0.939-2.128,2.159-2.128h0.407
			v-0.156c0-4.537,2.597-6.979,6.133-6.979h1.752c1.408,0,2.315,1.157,2.315,2.44s-1.157,2.284-2.348,2.284h-1.001
			c-1.377,0-2.41,0.72-2.41,2.41h3.005C113.54,50.984,114.478,51.954,114.478,53.112z"/>
		<path fill="#FFFFFF" d="M132.595,52.924v13.363c0,0.814-0.406,1.221-1.189,1.221h-2.065c-0.814,0-1.22-0.405-1.22-1.221v-0.22
			c-1.284,1.223-2.785,1.752-4.381,1.752c-4.506,0-8.356-3.816-8.356-8.604c0-4.726,3.85-8.543,8.356-8.543
			c1.658,0,3.191,0.47,4.474,1.563c0.281-0.906,1.127-1.563,2.128-1.563C131.593,50.672,132.595,51.673,132.595,52.924z
			 M128.12,59.215c0-2.316-1.847-4.162-4.193-4.162c-2.284,0-4.192,1.846-4.192,4.162c0,2.379,1.908,4.226,4.192,4.226
			C126.273,63.44,128.12,61.593,128.12,59.215z"/>
		<path fill="#FFFFFF" d="M136.192,46.385c0-1.409,1.158-2.566,2.597-2.566c1.408,0,2.566,1.157,2.566,2.566
			c0,1.438-1.158,2.596-2.566,2.596C137.351,48.981,136.192,47.823,136.192,46.385z M141.042,66.287c0,0.814-0.407,1.221-1.19,1.221
			h-2.065c-0.813,0-1.22-0.405-1.22-1.221V52.924c0-1.251,1.002-2.252,2.222-2.252c1.25,0,2.253,1,2.253,2.252V66.287
			L141.042,66.287z"/>
		<path fill="#FFFFFF" d="M155.029,65.254c0,1.252-1.001,2.253-2.252,2.253h-1.878c-2.221,0-3.378-0.376-4.192-1.283
			c-0.876-0.97-1.157-2.503-1.157-4.88v-6.039h-0.407c-1.22,0-2.158-0.971-2.158-2.191c0-1.157,0.938-2.128,2.158-2.128h0.407
			v-2.378c0-1.314,1-2.19,2.284-2.19c1.189,0,2.191,0.876,2.191,2.19l-0.031,2.378h2.847c1.22,0,2.16,0.97,2.16,2.128
			c0,1.221-0.94,2.191-2.16,2.191h-2.879l-0.03,5.727c0,1.596,0.688,2.002,1.97,2.002h0.877
			C154.027,63.032,155.029,64.033,155.029,65.254z"/>
		<path fill="#FFFFFF" d="M163.819,46.385c0-1.409,1.158-2.566,2.598-2.566c1.408,0,2.566,1.157,2.566,2.566
			c0,1.438-1.158,2.596-2.566,2.596C164.977,48.981,163.819,47.823,163.819,46.385z M168.67,66.287c0,0.814-0.408,1.221-1.189,1.221
			h-2.065c-0.814,0-1.22-0.405-1.22-1.221V52.924c0-1.251,1.001-2.252,2.221-2.252c1.251,0,2.253,1,2.253,2.252V66.287
			L168.67,66.287z"/>
		<path fill="#FFFFFF" d="M187.82,56.899v9.734c0,0.563-0.313,0.875-0.876,0.875h-2.723c-0.563,0-0.875-0.312-0.875-0.875v-8.42
			c0-2.065-1.283-3.255-3.098-3.255c-1.783,0-3.129,1.189-3.129,3.255v8.419c0,0.563-0.313,0.875-0.876,0.875h-2.722
			c-0.563,0-0.876-0.312-0.876-0.875V52.924c0-1.251,1-2.252,2.222-2.252c1.127,0,2.097,0.845,2.221,1.971
			c1.002-1.126,2.566-1.971,4.726-1.971C185.661,50.672,187.82,53.331,187.82,56.899z"/>
		<path fill="#FFFFFF" d="M201.587,65.254c0,1.252-1.002,2.253-2.253,2.253h-1.879c-2.222,0-3.378-0.376-4.192-1.283
			c-0.876-0.97-1.157-2.503-1.157-4.88v-6.039h-0.406c-1.22,0-2.16-0.971-2.16-2.191c0-1.157,0.939-2.128,2.16-2.128h0.406v-2.378
			c0-1.314,1.001-2.19,2.284-2.19c1.189,0,2.19,0.876,2.19,2.19l-0.031,2.378h2.847c1.221,0,2.16,0.97,2.16,2.128
			c0,1.221-0.939,2.191-2.16,2.191h-2.879l-0.031,5.727c0,1.596,0.688,2.002,1.972,2.002h0.877
			C200.586,63.032,201.587,64.033,201.587,65.254z"/>
		<path fill="#FFFFFF" d="M217.795,61.092h-10.702c0.563,1.688,2.471,2.786,4.786,2.786c1.471,0,2.661-0.438,3.412-0.877
			c0.375-0.219,0.781-0.375,1.251-0.375c1.064,0,2.002,0.845,2.002,2.034c0,0.845-0.468,1.501-1.376,2.004
			c-1.438,0.813-3.755,1.156-5.506,1.156c-5.352,0-9.106-3.502-9.106-8.511c0-4.755,3.661-8.636,8.605-8.636
			c4.629,0,8.447,4.006,8.447,7.916C219.609,60.372,218.733,61.092,217.795,61.092z M215.167,57.869
			c-0.375-1.659-2.004-3.067-4.069-3.067c-2.063,0-3.724,1.408-4.099,3.067H215.167z"/>
		<path fill="#FFFFFF" d="M230.279,55.053c-2.159,0-4.132,1.751-4.132,4.287v7.292c0,0.563-0.312,0.875-0.876,0.875h-2.723
			c-0.562,0-0.877-0.312-0.877-0.875v-7.261c0-3.191,1.723-5.976,4.193-7.479c1.658-1.032,3.066-1.22,4.882-1.22
			c0.751,0,1.345,0,1.877,0.218c0.846,0.345,1.377,1.127,1.377,2.066c0,1.126-0.877,2.16-2.161,2.16
			C231.312,55.115,230.873,55.053,230.279,55.053z"/>
		<path fill="#FFFFFF" d="M250.742,56.899v9.734c0,0.563-0.312,0.875-0.876,0.875h-2.721c-0.564,0-0.878-0.312-0.878-0.875v-8.42
			c0-2.065-1.284-3.255-3.098-3.255c-1.782,0-3.131,1.189-3.131,3.255v8.419c0,0.563-0.311,0.875-0.874,0.875h-2.722
			c-0.563,0-0.877-0.312-0.877-0.875V52.924c0-1.251,1.001-2.252,2.221-2.252c1.129,0,2.1,0.845,2.224,1.971
			c1.001-1.126,2.567-1.971,4.726-1.971C248.584,50.672,250.742,53.331,250.742,56.899z"/>
		<path fill="#FFFFFF" d="M268.64,61.092h-10.703c0.565,1.688,2.474,2.786,4.789,2.786c1.47,0,2.658-0.438,3.41-0.877
			c0.375-0.219,0.782-0.375,1.252-0.375c1.063,0,2.001,0.845,2.001,2.034c0,0.845-0.469,1.501-1.377,2.004
			c-1.437,0.813-3.754,1.156-5.506,1.156c-5.351,0-9.104-3.502-9.104-8.511c0-4.755,3.66-8.636,8.604-8.636
			c4.631,0,8.448,4.006,8.448,7.916C270.455,60.372,269.578,61.092,268.64,61.092z M266.012,57.869
			c-0.376-1.659-2.002-3.067-4.069-3.067c-2.064,0-3.724,1.408-4.099,3.067H266.012z"/>
		<path fill="#FFFFFF" d="M283.063,65.254c0,1.252-1.002,2.253-2.252,2.253h-1.877c-2.223,0-3.382-0.376-4.192-1.283
			c-0.878-0.97-1.159-2.503-1.159-4.88v-6.039h-0.406c-1.221,0-2.157-0.971-2.157-2.191c0-1.157,0.938-2.128,2.157-2.128h0.406
			v-2.378c0-1.314,1.001-2.19,2.285-2.19c1.189,0,2.189,0.876,2.189,2.19l-0.03,2.378h2.848c1.222,0,2.159,0.97,2.159,2.128
			c0,1.221-0.94,2.191-2.159,2.191h-2.879l-0.032,5.727c0,1.596,0.689,2.002,1.972,2.002h0.877
			C282.062,63.032,283.063,64.033,283.063,65.254z"/>
		<path fill="#FFFFFF" d="M299.835,48.043v18.402c0,0.657-0.405,1.062-1.032,1.062h-2.941c-0.657,0-1.063-0.405-1.063-1.062
			l0.029-15.271l-1.157,0.281c-1.283,0.312-2.629-0.438-2.941-1.722c-0.344-1.282,0.439-2.596,1.723-2.941
			c3.41-0.907,4.225-1.189,4.85-1.189C298.74,45.602,299.835,46.791,299.835,48.043z"/>
		<path fill="#FFFFFF" d="M321.707,56.743c0,6.571-3.222,11.076-8.729,11.076c-5.54,0-8.731-4.505-8.731-11.076
			c0-6.636,3.191-11.141,8.731-11.141C318.485,45.602,321.707,50.107,321.707,56.743z M316.795,56.743
			c0-4.131-1.253-6.384-3.817-6.384c-2.567,0-3.817,2.253-3.817,6.384c0,4.129,1.251,6.32,3.817,6.32
			C315.542,63.063,316.795,60.872,316.795,56.743z"/>
		<path fill="#FFFFFF" d="M341.857,56.743c0,6.571-3.223,11.076-8.729,11.076c-5.538,0-8.731-4.505-8.731-11.076
			c0-6.636,3.193-11.141,8.731-11.141C338.635,45.602,341.857,50.107,341.857,56.743z M336.946,56.743
			c0-4.131-1.253-6.384-3.817-6.384c-2.565,0-3.818,2.253-3.818,6.384c0,4.129,1.253,6.32,3.818,6.32
			C335.693,63.063,336.946,60.872,336.946,56.743z"/>
	</g>
	<g>
		<path fill="#BBDEFB" d="M191.987,100.891h-5.5l-8.879-15.439h-0.125c0.176,2.728,0.265,4.672,0.265,5.837v9.603h-3.866V80.482
			h5.458l8.865,15.284h0.097c-0.139-2.65-0.209-4.525-0.209-5.623v-9.661h3.895L191.987,100.891L191.987,100.891z"/>
		<path fill="#BBDEFB" d="M207.845,100.891l-0.573-1.997h-0.223c-0.455,0.728-1.102,1.288-1.938,1.684
			c-0.837,0.396-1.793,0.594-2.864,0.594c-1.833,0-3.214-0.49-4.144-1.474c-0.931-0.979-1.396-2.393-1.396-4.235V85.288h4.257v9.115
			c0,1.125,0.2,1.972,0.602,2.533c0.398,0.563,1.036,0.844,1.911,0.844c1.191,0,2.052-0.396,2.584-1.192
			c0.53-0.796,0.795-2.116,0.795-3.959v-7.341h4.257v15.604L207.845,100.891L207.845,100.891z"/>
		<path fill="#BBDEFB" d="M215.398,81.251c0-1.387,0.771-2.079,2.314-2.079c1.546,0,2.318,0.692,2.318,2.079
			c0,0.659-0.194,1.174-0.578,1.544c-0.387,0.366-0.969,0.55-1.74,0.55C216.169,83.344,215.398,82.646,215.398,81.251z
			 M219.835,100.891h-4.258V85.286h4.258V100.891z"/>
		<path fill="#BBDEFB" d="M230.878,97.778c0.744,0,1.637-0.161,2.681-0.489v3.17c-1.062,0.476-2.362,0.712-3.909,0.712
			c-1.703,0-2.943-0.43-3.721-1.291c-0.776-0.86-1.167-2.151-1.167-3.873v-7.525h-2.035v-1.802l2.345-1.423l1.229-3.294h2.723v3.323
			h4.368v3.195h-4.368v7.525c0,0.604,0.17,1.052,0.508,1.339C229.87,97.634,230.319,97.778,230.878,97.778z"/>
	</g>
</g>
</svg>
