<?xml version="1.0" encoding="utf-8"?>
<!-- Generator: Adobe Illustrator 16.0.0, SVG Export Plug-In . SVG Version: 6.00 Build 0)  -->
<!DOCTYPE svg PUBLIC "-//W3C//DTD SVG 1.1//EN" "http://www.w3.org/Graphics/SVG/1.1/DTD/svg11.dtd">
<svg version="1.1" id="Calque_1" xmlns="http://www.w3.org/2000/svg" xmlns:xlink="http://www.w3.org/1999/xlink" x="0px" y="0px"
	 width="400px" height="138.945px" viewBox="0 0 400 138.945" enable-background="new 0 0 400 138.945" xml:space="preserve">
<polygon fill="#BBDEFB" points="401.158,94.991 203.221,124.991 -1.158,94.991 -1.158,0 401.158,0 "/>
<g>
	<path fill="#161616" d="M59.192,57.285v4.226h6.728c1.377,0,2.502,0.97,2.502,2.346c0,1.377-1.125,2.347-2.502,2.347h-6.728v6.917
		c0,0.656-0.406,1.062-1.033,1.062h-2.941c-0.657,0-1.064-0.406-1.064-1.062V55.033c0-1.628,1.127-2.44,2.472-2.44h0.033h10.669
		c1.376,0,2.503,0.97,2.503,2.347c0,1.376-1.127,2.346-2.503,2.346L59.192,57.285L59.192,57.285z"/>
	<path fill="#161616" d="M69.955,65.892c0-4.727,3.818-8.543,8.543-8.543c4.726,0,8.542,3.817,8.542,8.543
		c0,4.788-3.817,8.604-8.542,8.604C73.774,74.496,69.955,70.677,69.955,65.892z M82.691,65.892c0-2.316-1.847-4.164-4.194-4.164
		c-2.284,0-4.193,1.848-4.193,4.164c0,2.379,1.909,4.225,4.193,4.225C80.845,70.115,82.691,68.269,82.691,65.892z"/>
	<path fill="#161616" d="M97.959,61.728c-2.16,0-4.131,1.753-4.131,4.288v7.291c0,0.564-0.313,0.877-0.875,0.877H90.23
		c-0.563,0-0.876-0.312-0.876-0.877v-7.258c0-3.193,1.721-5.977,4.192-7.48c1.659-1.032,3.067-1.22,4.882-1.22
		c0.751,0,1.345,0,1.878,0.218c0.844,0.345,1.377,1.127,1.377,2.065c0,1.127-0.876,2.16-2.159,2.16
		C98.992,61.791,98.554,61.728,97.959,61.728z"/>
	<path fill="#161616" d="M114.479,59.788c0,1.222-0.939,2.192-2.16,2.192h-3.004v11.327c0,0.564-0.314,0.877-0.876,0.877h-2.722
		c-0.563,0-0.876-0.312-0.876-0.877l0.031-11.327h-0.407c-1.22,0-2.159-0.97-2.159-2.192c0-1.157,0.939-2.128,2.159-2.128h0.407
		v-0.156c0-4.537,2.597-6.978,6.133-6.978h1.752c1.408,0,2.315,1.157,2.315,2.44c0,1.283-1.157,2.284-2.348,2.284h-1.001
		c-1.376,0-2.409,0.72-2.409,2.409h3.005C113.541,57.66,114.479,58.631,114.479,59.788z"/>
	<path fill="#161616" d="M132.596,59.6v13.362c0,0.814-0.406,1.221-1.189,1.221h-2.065c-0.814,0-1.22-0.406-1.22-1.221v-0.219
		c-1.284,1.221-2.785,1.752-4.381,1.752c-4.506,0-8.356-3.816-8.356-8.604c0-4.727,3.85-8.543,8.356-8.543
		c1.658,0,3.191,0.47,4.474,1.563c0.281-0.906,1.127-1.563,2.128-1.563C131.594,57.348,132.596,58.349,132.596,59.6z
		 M128.122,65.892c0-2.316-1.847-4.164-4.193-4.164c-2.284,0-4.192,1.848-4.192,4.164c0,2.379,1.908,4.225,4.192,4.225
		C126.275,70.115,128.122,68.269,128.122,65.892z"/>
	<path fill="#161616" d="M136.193,53.061c0-1.409,1.158-2.566,2.597-2.566c1.408,0,2.566,1.157,2.566,2.566
		c0,1.438-1.158,2.597-2.566,2.597C137.352,55.658,136.193,54.5,136.193,53.061z M141.043,72.963c0,0.814-0.407,1.221-1.189,1.221
		h-2.065c-0.814,0-1.221-0.406-1.221-1.221V59.6c0-1.251,1.002-2.252,2.222-2.252c1.251,0,2.253,1,2.253,2.252V72.963
		L141.043,72.963z"/>
	<path fill="#161616" d="M155.03,71.929c0,1.252-1.001,2.254-2.252,2.254h-1.878c-2.221,0-3.378-0.377-4.191-1.283
		c-0.876-0.971-1.158-2.504-1.158-4.881v-6.038h-0.407c-1.22,0-2.158-0.97-2.158-2.192c0-1.157,0.938-2.128,2.158-2.128h0.407
		v-2.377c0-1.314,1-2.19,2.284-2.19c1.189,0,2.191,0.876,2.191,2.19l-0.031,2.377h2.847c1.22,0,2.16,0.97,2.16,2.128
		c0,1.222-0.94,2.192-2.16,2.192h-2.879l-0.03,5.725c0,1.597,0.688,2.004,1.97,2.004h0.877
		C154.028,69.708,155.03,70.709,155.03,71.929z"/>
	<path fill="#161616" d="M163.82,53.061c0-1.409,1.158-2.566,2.598-2.566c1.408,0,2.566,1.157,2.566,2.566
		c0,1.438-1.158,2.597-2.566,2.597C164.978,55.658,163.82,54.5,163.82,53.061z M168.671,72.963c0,0.814-0.408,1.221-1.189,1.221
		h-2.065c-0.814,0-1.22-0.406-1.22-1.221V59.6c0-1.251,1.001-2.252,2.222-2.252c1.251,0,2.252,1,2.252,2.252V72.963L168.671,72.963z
		"/>
	<path fill="#161616" d="M187.82,63.575v9.733c0,0.562-0.313,0.875-0.876,0.875h-2.723c-0.563,0-0.876-0.312-0.876-0.875v-8.419
		c0-2.065-1.282-3.255-3.097-3.255c-1.783,0-3.129,1.188-3.129,3.255v8.417c0,0.564-0.313,0.877-0.876,0.877h-2.722
		c-0.563,0-0.876-0.312-0.876-0.877V59.6c0-1.251,1-2.252,2.222-2.252c1.127,0,2.096,0.845,2.221,1.971
		c1.002-1.126,2.566-1.971,4.726-1.971C185.661,57.348,187.82,60.007,187.82,63.575z"/>
	<path fill="#161616" d="M201.587,71.929c0,1.252-1.002,2.254-2.253,2.254h-1.878c-2.222,0-3.378-0.377-4.192-1.283
		c-0.876-0.971-1.157-2.504-1.157-4.881v-6.038h-0.407c-1.22,0-2.159-0.97-2.159-2.192c0-1.157,0.939-2.128,2.159-2.128h0.407
		v-2.377c0-1.314,1-2.19,2.284-2.19c1.189,0,2.19,0.876,2.19,2.19l-0.031,2.377h2.847c1.22,0,2.16,0.97,2.16,2.128
		c0,1.222-0.94,2.192-2.16,2.192h-2.879l-0.031,5.725c0,1.597,0.688,2.004,1.972,2.004h0.877
		C200.586,69.708,201.587,70.709,201.587,71.929z"/>
	<path fill="#161616" d="M217.794,67.768h-10.701c0.563,1.688,2.471,2.787,4.786,2.787c1.471,0,2.661-0.439,3.412-0.877
		c0.375-0.22,0.781-0.377,1.251-0.377c1.063,0,2.001,0.846,2.001,2.036c0,0.844-0.468,1.5-1.375,2.004
		c-1.439,0.812-3.756,1.156-5.506,1.156c-5.353,0-9.106-3.502-9.106-8.511c0-4.756,3.66-8.636,8.604-8.636
		c4.63,0,8.448,4.004,8.448,7.916C219.609,67.048,218.732,67.768,217.794,67.768z M215.166,64.547
		c-0.375-1.66-2.003-3.068-4.068-3.068c-2.063,0-3.724,1.408-4.099,3.068H215.166z"/>
	<path fill="#161616" d="M230.278,61.728c-2.159,0-4.131,1.753-4.131,4.288v7.291c0,0.564-0.312,0.877-0.877,0.877h-2.723
		c-0.562,0-0.876-0.312-0.876-0.877v-7.258c0-3.193,1.722-5.977,4.193-7.48c1.657-1.032,3.066-1.22,4.881-1.22
		c0.751,0,1.345,0,1.877,0.218c0.846,0.345,1.377,1.127,1.377,2.065c0,1.127-0.877,2.16-2.16,2.16
		C231.311,61.791,230.872,61.728,230.278,61.728z"/>
	<path fill="#161616" d="M250.741,63.575v9.733c0,0.562-0.312,0.875-0.876,0.875h-2.721c-0.564,0-0.878-0.312-0.878-0.875v-8.419
		c0-2.065-1.284-3.255-3.098-3.255c-1.782,0-3.131,1.188-3.131,3.255v8.417c0,0.564-0.311,0.877-0.874,0.877h-2.722
		c-0.563,0-0.876-0.312-0.876-0.877V59.6c0-1.251,1-2.252,2.22-2.252c1.13,0,2.1,0.845,2.224,1.971
		c1.001-1.126,2.567-1.971,4.726-1.971C248.583,57.348,250.741,60.007,250.741,63.575z"/>
	<path fill="#161616" d="M268.639,67.768h-10.703c0.564,1.688,2.474,2.787,4.788,2.787c1.47,0,2.659-0.439,3.411-0.877
		c0.375-0.22,0.781-0.377,1.251-0.377c1.064,0,2.002,0.846,2.002,2.036c0,0.844-0.469,1.5-1.377,2.004
		c-1.437,0.812-3.754,1.156-5.506,1.156c-5.351,0-9.104-3.502-9.104-8.511c0-4.756,3.66-8.636,8.604-8.636
		c4.63,0,8.447,4.004,8.447,7.916C270.453,67.048,269.577,67.768,268.639,67.768z M266.011,64.547
		c-0.376-1.66-2.003-3.068-4.069-3.068c-2.064,0-3.724,1.408-4.099,3.068H266.011z"/>
	<path fill="#161616" d="M283.062,71.929c0,1.252-1.002,2.254-2.252,2.254h-1.877c-2.223,0-3.381-0.377-4.192-1.283
		c-0.877-0.971-1.158-2.504-1.158-4.881v-6.038h-0.407c-1.221,0-2.157-0.97-2.157-2.192c0-1.157,0.938-2.128,2.157-2.128h0.407
		v-2.377c0-1.314,1-2.19,2.284-2.19c1.189,0,2.19,0.876,2.19,2.19l-0.031,2.377h2.848c1.222,0,2.159,0.97,2.159,2.128
		c0,1.222-0.94,2.192-2.159,2.192h-2.879l-0.031,5.725c0,1.597,0.688,2.004,1.972,2.004h0.876
		C282.06,69.708,283.062,70.709,283.062,71.929z"/>
	<path fill="#161616" d="M299.833,54.719v18.401c0,0.656-0.406,1.062-1.032,1.062h-2.941c-0.657,0-1.063-0.406-1.063-1.062
		l0.029-15.271l-1.157,0.281c-1.283,0.312-2.629-0.439-2.941-1.722c-0.344-1.283,0.439-2.597,1.723-2.941
		c3.41-0.907,4.225-1.189,4.85-1.189C298.738,52.278,299.833,53.468,299.833,54.719z"/>
	<path fill="#161616" d="M321.704,63.418c0,6.572-3.222,11.078-8.729,11.078c-5.539,0-8.73-4.506-8.73-11.078
		c0-6.635,3.191-11.14,8.73-11.14C318.482,52.278,321.704,56.783,321.704,63.418z M316.792,63.418c0-4.13-1.252-6.383-3.817-6.383
		c-2.566,0-3.816,2.253-3.816,6.383c0,4.132,1.251,6.321,3.816,6.321S316.792,67.55,316.792,63.418z"/>
	<path fill="#161616" d="M341.854,63.418c0,6.572-3.223,11.078-8.729,11.078c-5.538,0-8.73-4.506-8.73-11.078
		c0-6.635,3.192-11.14,8.73-11.14C338.632,52.278,341.854,56.783,341.854,63.418z M336.943,63.418c0-4.13-1.253-6.383-3.817-6.383
		c-2.565,0-3.818,2.253-3.818,6.383c0,4.132,1.253,6.321,3.818,6.321C335.69,69.74,336.943,67.55,336.943,63.418z"/>
</g>
</svg>
