<?xml version="1.0" encoding="utf-8"?>
<!-- Generator: Adobe Illustrator 16.0.0, SVG Export Plug-In . SVG Version: 6.00 Build 0)  -->
<!DOCTYPE svg PUBLIC "-//W3C//DTD SVG 1.1//EN" "http://www.w3.org/Graphics/SVG/1.1/DTD/svg11.dtd">
<svg version="1.1" id="Layer_1" xmlns="http://www.w3.org/2000/svg" xmlns:xlink="http://www.w3.org/1999/xlink" x="0px" y="0px"
	 width="123.5px" height="41.25px" viewBox="-470.75 0 123.5 41.25" enable-background="new -470.75 0 123.5 41.25"
	 xml:space="preserve">
<g>
	<path fill="#8E8164" d="M-439.241,29.013c0,0.258-0.208,0.552-0.579,0.552c-0.198,0-0.397-0.13-0.595-0.285
		c-0.182-0.138-0.346-0.276-0.527-0.432c-0.527,0.44-1.14,0.717-1.856,0.717c-1.158,0-1.96-0.674-1.96-1.624
		c0-0.682,0.415-1.2,1.123-1.632c-0.346-0.415-0.587-0.872-0.587-1.416c0-0.872,0.665-1.459,1.692-1.459
		c0.984,0,1.692,0.587,1.692,1.442c0,0.518-0.285,1.14-1.01,1.598l0.837,0.769c0.173-0.233,0.336-0.475,0.492-0.734
		c0.104-0.164,0.294-0.267,0.493-0.267c0.32,0,0.578,0.267,0.578,0.586c0,0.095-0.017,0.199-0.138,0.389
		c-0.173,0.268-0.354,0.535-0.544,0.777c0.199,0.164,0.432,0.345,0.682,0.569C-439.319,28.685-439.241,28.797-439.241,29.013z
		 M-442.772,28.451c0.354,0,0.673-0.138,0.976-0.362l-0.915-0.846c-0.061-0.061-0.129-0.112-0.19-0.173
		c-0.346,0.208-0.588,0.492-0.588,0.82C-443.49,28.236-443.214,28.451-442.772,28.451z M-443.041,24.902
		c0,0.294,0.164,0.562,0.415,0.837l0.034-0.017c0.388-0.216,0.613-0.388,0.613-0.82c0-0.302-0.233-0.535-0.552-0.535
		C-442.825,24.367-443.041,24.6-443.041,24.902z"/>
</g>
<g>
	<path fill="#ED1C24" d="M-361.044,10.434c-3.291,0-6.178,1.559-8.084,3.926c-1.848-2.425-4.792-3.926-8.083-3.926
		c-3.292,0-6.179,1.559-8.085,3.926c-0.75-0.981-1.674-1.79-2.714-2.483v8.719c0,2.945-2.367,5.313-5.312,5.313
		c-2.945,0-5.313-2.367-5.313-5.313c0-2.945,2.367-5.313,5.313-5.313c0.981,0,1.963,0.289,2.771,0.809l0.231,0.115v-5.37
		c-0.924-0.289-1.963-0.462-3.002-0.462c-3.292,0-6.179,1.559-8.085,3.927c-1.847-2.425-4.792-3.927-8.084-3.927
		c-3.291,0-6.178,1.559-8.083,3.927c-1.79-2.31-4.677-3.869-7.969-3.869s-6.179,1.559-8.084,3.926
		c-1.848-2.425-4.793-3.926-8.084-3.926c-3.291,0-6.178,1.559-8.084,3.926c-1.848-2.425-4.792-3.926-8.084-3.926
		c-5.659,0-10.221,4.562-10.221,10.221c0,5.658,4.562,10.22,10.221,10.22c3.292,0,6.179-1.559,8.084-3.926
		c1.848,2.425,4.793,3.926,8.084,3.926c3.292,0,6.179-1.559,8.084-3.926c1.848,2.425,4.792,3.926,8.084,3.926
		s6.179-1.559,8.084-3.926c1.848,2.425,4.793,3.926,8.084,3.926s6.179-1.559,8.084-3.926c1.848,2.425,4.793,3.926,8.084,3.926
		c3.291,0,6.179-1.559,8.084-3.926c1.848,2.425,4.792,3.926,8.084,3.926s6.179-1.559,8.084-3.926
		c1.848,2.425,4.792,3.926,8.084,3.926c5.659,0,10.221-4.562,10.221-10.22C-350.823,14.995-355.385,10.434-361.044,10.434z"/>
	<path fill="#FFFFFF" d="M-377.154,25.967c-2.944,0-5.312-2.368-5.312-5.313c0-2.945,2.368-5.313,5.312-5.313
		c2.945,0,5.313,2.367,5.313,5.313C-371.842,23.599-374.267,25.967-377.154,25.967z M-377.154,17.651
		c-1.674,0-3.003,1.329-3.003,3.003s1.329,3.002,3.003,3.002c1.675,0,3.003-1.328,3.003-3.002
		C-374.209,19.037-375.537,17.651-377.154,17.651z"/>
	<path fill="#FFFFFF" d="M-361.044,25.967c-2.945,0-5.312-2.368-5.312-5.313c0-2.945,2.367-5.313,5.312-5.313
		c2.945,0,5.313,2.367,5.313,5.313C-355.731,23.599-358.099,25.967-361.044,25.967z M-361.044,17.651
		c-1.674,0-3.002,1.329-3.002,3.003s1.328,3.002,3.002,3.002c1.675,0,3.003-1.328,3.003-3.002
		C-358.041,19.037-359.427,17.651-361.044,17.651z"/>
	<path fill="#FFFFFF" d="M-441.654,25.967c-2.944,0-5.313-2.368-5.313-5.313c0-2.945,2.368-5.313,5.313-5.313
		c2.945,0,5.313,2.367,5.313,5.313C-436.341,23.599-438.708,25.967-441.654,25.967z M-441.654,17.651
		c-1.674,0-3.002,1.329-3.002,3.003s1.328,3.002,3.002,3.002c1.675,0,3.003-1.328,3.003-3.002
		C-438.651,19.037-440.037,17.651-441.654,17.651z"/>
	<path fill="#FFFFFF" d="M-457.764,25.967c-2.945,0-5.313-2.368-5.313-5.313c0-2.945,2.367-5.313,5.313-5.313
		c2.945,0,5.313,2.367,5.313,5.313C-452.451,23.599-454.877,25.967-457.764,25.967z M-457.764,17.651
		c-1.675,0-3.003,1.329-3.003,3.003s1.328,3.002,3.003,3.002s3.002-1.328,3.002-3.002
		C-454.819,19.037-456.147,17.651-457.764,17.651z"/>
	<path fill="#FFFFFF" d="M-409.259,25.967c-0.174,0-0.347,0-0.462,0h-0.115h-0.174c-2.713-0.289-4.734-2.541-4.734-5.255
		c0-2.945,2.368-5.312,5.312-5.312c2.945,0,5.313,2.367,5.313,5.312c0,0.346-0.057,0.636-0.115,0.982h-8.027l0.173,0.404
		c0.404,0.809,1.213,1.386,2.078,1.559c0.231,0.058,0.52,0.058,0.809,0.058h0.116c0.75,0,1.5-0.289,2.021-0.75l0.057-0.058
		l2.136,1.154l-0.115,0.116c-0.981,1.155-2.367,1.791-4.099,1.848C-409.144,25.967-409.202,25.967-409.259,25.967z M-409.433,17.651
		c-1.212,0-2.309,0.751-2.771,1.848v0.058h5.543v-0.058C-407.123,18.402-408.22,17.651-409.433,17.651z"/>
	<path fill="#FFFFFF" d="M-430.567,25.678v-5.023v-0.289c0.173-2.83,2.482-5.024,5.313-5.024c2.021,0,3.811,1.097,4.735,2.944
		l-2.079,1.097c-0.52-1.039-1.559-1.732-2.714-1.732c-1.675,0-3.003,1.329-3.003,3.003v5.023H-430.567z"/>
	<circle fill="#EA212E" cx="-393.322" cy="20.654" r="3.003"/>
	<path fill="#FFFFFF" d="M-390.319,10.896v5.37l-0.231-0.115c-0.808-0.52-1.79-0.809-2.771-0.809c-2.945,0-5.313,2.367-5.313,5.313
		c0,2.944,2.367,5.313,5.313,5.313c2.944,0,5.312-2.368,5.312-5.313v-8.72C-388.703,11.531-389.454,11.126-390.319,10.896z
		 M-393.322,23.657c-1.675,0-3.003-1.328-3.003-3.002s1.328-3.003,3.003-3.003c1.674,0,3.002,1.329,3.002,3.003
		S-391.648,23.657-393.322,23.657z"/>
</g>
</svg>
