<?xml version="1.0" encoding="utf-8"?>
<!-- Generator: Adobe Illustrator 16.0.0, SVG Export Plug-In . SVG Version: 6.00 Build 0)  -->
<!DOCTYPE svg PUBLIC "-//W3C//DTD SVG 1.1//EN" "http://www.w3.org/Graphics/SVG/1.1/DTD/svg11.dtd">
<svg version="1.1" id="Layer_1" xmlns="http://www.w3.org/2000/svg" xmlns:xlink="http://www.w3.org/1999/xlink" x="0px" y="0px"
	 width="43.75px" height="40px" viewBox="2.417 6.5 43.75 40" enable-background="new 2.417 6.5 43.75 40" xml:space="preserve">
<path fill="#10893E" d="M22.738,12.086c-8.078,0-14.634,5.423-14.634,11.818c0,3.771,2.279,7.125,5.81,9.243
	c1.923,1.763,0.608,4.593-2.058,7.215c3.234,0,8.249-1.341,10.248-4.298c0.079,0,0.154,0,0.23,0c8.077,0,15.034-5.771,15.034-12.165
	C37.371,17.503,30.816,12.086,22.738,12.086z"/>
<g>
	<path fill="#FFFFFF" stroke="#10893E" stroke-width="0.5" stroke-miterlimit="10" d="M21.461,12.086
		c-7.994,0-14.482,5.423-14.482,11.818c0,3.771,2.256,7.125,5.75,9.243c1.903,1.763,1.715,4.593-0.924,7.215
		c3.201,0,8.295-1.911,9.424-4.885c0.079,0,0.153,0,0.228,0c7.993,0,14.481-5.185,14.481-11.578
		C35.942,17.503,29.456,12.086,21.461,12.086z"/>
</g>
<path fill="#10893E" d="M13.714,27.889c-0.812,0-1.615-0.215-2.016-0.438l0.329-1.345c0.433,0.224,1.094,0.447,1.784,0.447
	c0.739,0,1.133-0.309,1.133-0.779c0-0.447-0.34-0.704-1.192-1.013c-1.183-0.416-1.956-1.077-1.956-2.123
	c0-1.227,1.013-2.165,2.694-2.165c0.802,0,1.392,0.17,1.815,0.362l-0.358,1.312c-0.286-0.138-0.792-0.341-1.489-0.341
	c-0.696,0-1.034,0.32-1.034,0.694c0,0.458,0.399,0.66,1.32,1.013c1.256,0.47,1.846,1.131,1.846,2.144
	C16.584,26.864,15.667,27.889,13.714,27.889z"/>
<path fill="#10893E" d="M23.801,27.781l-0.104-2.753c-0.031-0.863-0.063-1.909-0.063-2.955h-0.03
	c-0.225,0.917-0.517,1.941-0.792,2.784l-0.866,2.807h-1.26l-0.764-2.785c-0.229-0.842-0.473-1.867-0.641-2.806h-0.021
	c-0.042,0.971-0.075,2.081-0.127,2.977l-0.127,2.731h-1.489l0.453-7.19h2.144l0.697,2.4c0.224,0.832,0.444,1.729,0.6,2.571h0.031
	c0.199-0.832,0.441-1.781,0.677-2.582l0.76-2.389h2.101l0.393,7.19H23.801L23.801,27.781z"/>
<path fill="#10893E" d="M28.354,27.889c-0.813,0-1.616-0.215-2.019-0.438l0.329-1.345c0.435,0.224,1.096,0.447,1.784,0.447
	c0.738,0,1.133-0.309,1.133-0.779c0-0.447-0.339-0.704-1.193-1.013c-1.183-0.416-1.956-1.077-1.956-2.123
	c0-1.227,1.013-2.165,2.694-2.165c0.803,0,1.393,0.17,1.817,0.362l-0.359,1.312c-0.286-0.138-0.793-0.341-1.488-0.341
	c-0.698,0-1.036,0.32-1.036,0.694c0,0.458,0.4,0.66,1.32,1.013c1.256,0.47,1.846,1.131,1.846,2.144
	C31.225,26.864,30.307,27.889,28.354,27.889z"/>
</svg>
