<?xml version="1.0" encoding="utf-8"?>
<!-- Generator: Adobe Illustrator 16.0.0, SVG Export Plug-In . SVG Version: 6.00 Build 0)  -->
<!DOCTYPE svg PUBLIC "-//W3C//DTD SVG 1.1//EN" "http://www.w3.org/Graphics/SVG/1.1/DTD/svg11.dtd">
<svg version="1.1" id="Layer_1" xmlns="http://www.w3.org/2000/svg" xmlns:xlink="http://www.w3.org/1999/xlink" x="0px" y="0px"
	 width="48.625px" height="40px" viewBox="5.083 5.938 48.625 40" enable-background="new 5.083 5.938 48.625 40"
	 xml:space="preserve">
<g>
	<path fill="#6D5E16" d="M26.535,11.222c8.084,0,14.637,5.094,14.637,13.177c0,8.084-5.088,15.688-14.637,15.688
		c-8.701,0-14.636-7.669-14.636-15.753C11.899,16.251,18.452,11.222,26.535,11.222z"/>
	<circle fill="#BAB354" cx="26.535" cy="24.4" r="14.636"/>
	<path fill="#FFFFFF" d="M30.227,31.522c1.188-0.018,2.177-0.314,3.024-1.025c0.326-0.273,0.633-0.574,0.797-0.979
		c0.143-0.35,0.102-0.734,0.176-1.102c0.072-0.357-0.063-0.572-0.389-0.746c-0.978-0.521-1.961-1.024-2.979-1.457
		c-0.513-0.216-0.532-0.2-0.888,0.227c-0.387,0.465-0.756,0.943-1.104,1.441c-0.146,0.209-0.31,0.267-0.568,0.172
		c-0.553-0.194-1.078-0.438-1.582-0.733c-1.191-0.702-2.17-1.646-3.033-2.711c-0.347-0.429-0.697-0.863-0.902-1.39
		c-0.067-0.178-0.045-0.312,0.088-0.437c0.469-0.44,0.813-0.971,1.13-1.523c0.067-0.121,0.084-0.226,0.027-0.368
		c-0.38-1.004-0.784-1.999-1.228-2.978c-0.324-0.716-0.332-0.712-1.111-0.715c-0.091,0-0.188,0.02-0.271-0.004
		c-0.651-0.183-1.055,0.165-1.439,0.624c-0.646,0.769-1.104,1.6-1.144,2.634c-0.039,1.062,0.265,2.038,0.765,2.941
		c1.635,2.956,3.872,5.333,6.839,6.979C27.641,31.044,28.923,31.487,30.227,31.522z"/>
</g>
</svg>
