<?xml version="1.0" encoding="utf-8"?>
<!-- Generator: Adobe Illustrator 16.0.0, SVG Export Plug-In . SVG Version: 6.00 Build 0)  -->
<!DOCTYPE svg PUBLIC "-//W3C//DTD SVG 1.1//EN" "http://www.w3.org/Graphics/SVG/1.1/DTD/svg11.dtd">
<svg version="1.1" id="Calque_1" xmlns="http://www.w3.org/2000/svg" xmlns:xlink="http://www.w3.org/1999/xlink" x="0px" y="0px"
	 width="172px" height="45px" viewBox="0 0 172 45" enable-background="new 0 0 172 45" xml:space="preserve">
<g>
	<defs>
		<rect id="SVGID_1_" x="-26.102" y="-29.44" width="224.227" height="104"/>
	</defs>
	<clipPath id="SVGID_2_">
		<use xlink:href="#SVGID_1_"  overflow="visible"/>
	</clipPath>
	<path clip-path="url(#SVGID_2_)" fill="#FF0000" d="M56.859,10.643c-0.569-2.135-2.251-3.81-4.379-4.38
		c-3.865-1.037-19.35-1.037-19.35-1.037s-15.489,0-19.354,1.037c-2.126,0.57-3.81,2.245-4.378,4.38
		c-1.03,3.862-1.03,11.923-1.03,11.923s0,8.057,1.03,11.919c0.569,2.124,2.252,3.81,4.378,4.378
		c3.865,1.029,19.354,1.029,19.354,1.029s15.485,0,19.35-1.029c2.127-0.568,3.81-2.254,4.379-4.378
		c1.03-3.862,1.03-11.919,1.03-11.919S57.889,14.505,56.859,10.643"/>
	<polygon clip-path="url(#SVGID_2_)" fill="#FFFFFF" points="28.174,29.996 41.042,22.566 28.174,15.131 	"/>
	<path clip-path="url(#SVGID_2_)" fill="#282828" d="M80.254,36.762c-0.982-0.655-1.679-1.686-2.088-3.075
		c-0.416-1.392-0.624-3.254-0.624-5.559V24.98c0-2.347,0.24-4.222,0.712-5.639c0.471-1.418,1.204-2.447,2.211-3.1
		c1.006-0.65,2.322-0.972,3.952-0.972c1.603,0,2.893,0.333,3.86,0.99c0.968,0.661,1.671,1.697,2.13,3.099
		c0.437,1.405,0.669,3.275,0.669,5.623v3.147c0,2.305-0.218,4.167-0.646,5.571c-0.439,1.408-1.16,2.433-2.132,3.085
		c-0.985,0.656-2.311,0.975-3.986,0.975C82.585,37.759,81.231,37.427,80.254,36.762 M85.745,33.369
		c0.274-0.702,0.405-1.862,0.405-3.473v-6.765c0-1.562-0.131-2.701-0.405-3.418c-0.273-0.717-0.753-1.079-1.435-1.079
		c-0.662,0-1.127,0.362-1.402,1.079c-0.273,0.717-0.407,1.856-0.407,3.418v6.765c0,1.61,0.132,2.771,0.391,3.473
		c0.257,0.702,0.729,1.06,1.418,1.06C84.992,34.429,85.472,34.071,85.745,33.369"/>
	<path clip-path="url(#SVGID_2_)" fill="#282828" d="M155.484,28.179v1.095c0,1.401,0.038,2.438,0.114,3.131
		c0.083,0.701,0.258,1.204,0.521,1.533c0.262,0.309,0.656,0.481,1.204,0.481c0.724,0,1.227-0.284,1.503-0.853
		c0.27-0.571,0.424-1.511,0.446-2.841l4.204,0.256c0.022,0.18,0.044,0.438,0.044,0.768c0,2.014-0.549,3.511-1.643,4.51
		c-1.104,0.984-2.651,1.488-4.664,1.488c-2.408,0-4.096-0.766-5.058-2.276c-0.979-1.511-1.466-3.848-1.466-7.008v-3.789
		c0-3.261,0.502-5.643,1.508-7.142c1.008-1.498,2.721-2.247,5.155-2.247c1.678,0,2.969,0.307,3.866,0.92
		c0.899,0.613,1.523,1.572,1.886,2.869c0.37,1.302,0.549,3.098,0.549,5.38v3.725H155.484z M156.098,19.04
		c-0.241,0.307-0.416,0.81-0.499,1.502c-0.076,0.699-0.114,1.754-0.114,3.169v1.557h3.57v-1.557c0-1.386-0.045-2.448-0.134-3.169
		c-0.107-0.716-0.273-1.228-0.524-1.523c-0.239-0.295-0.633-0.438-1.14-0.438C156.733,18.58,156.342,18.733,156.098,19.04"/>
	<path clip-path="url(#SVGID_2_)" fill="#282828" d="M68.354,27.768l-5.56-20.081h4.851l1.948,9.105
		c0.494,2.241,0.86,4.154,1.096,5.738h0.142c0.164-1.135,0.532-3.036,1.094-5.701l2.026-9.142h4.85l-5.632,20.081V37.4h-4.815
		V27.768z"/>
	<path clip-path="url(#SVGID_2_)" fill="#282828" d="M106.851,15.691V37.4h-3.82l-0.428-2.652h-0.109
		c-1.029,2.014-2.585,3.011-4.664,3.011c-1.445,0-2.509-0.471-3.198-1.413c-0.678-0.94-1.028-2.43-1.028-4.422V15.691h4.896v15.948
		c0,0.963,0.102,1.65,0.316,2.06c0.219,0.414,0.568,0.633,1.064,0.633c0.424,0,0.839-0.132,1.216-0.394
		c0.392-0.262,0.681-0.591,0.873-0.992V15.691H106.851z"/>
	<path clip-path="url(#SVGID_2_)" fill="#282828" d="M131.924,15.691V37.4h-3.825l-0.423-2.652h-0.109
		c-1.029,2.014-2.594,3.011-4.664,3.011c-1.446,0-2.514-0.471-3.198-1.413c-0.678-0.94-1.029-2.43-1.029-4.422V15.691h4.889v15.948
		c0,0.963,0.104,1.65,0.323,2.06c0.22,0.414,0.568,0.633,1.062,0.633c0.427,0,0.832-0.132,1.217-0.394
		c0.394-0.262,0.679-0.591,0.875-0.992V15.691H131.924z"/>
	<polygon clip-path="url(#SVGID_2_)" fill="#282828" points="120.143,11.617 115.281,11.617 115.281,37.4 110.508,37.4 
		110.508,11.617 105.646,11.617 105.646,7.687 120.143,7.687 	"/>
	<path clip-path="url(#SVGID_2_)" fill="#282828" d="M148.106,19.161c-0.305-1.368-0.779-2.357-1.445-2.972
		c-0.658-0.612-1.558-0.921-2.716-0.921c-0.899,0-1.739,0.255-2.52,0.762c-0.784,0.506-1.379,1.172-1.809,2.003h-0.031V6.591h-4.706
		v30.809h4.028l0.504-2.048h0.108c0.372,0.732,0.943,1.305,1.689,1.739c0.765,0.416,1.597,0.636,2.517,0.636
		c1.653,0,2.867-0.768,3.656-2.285c0.767-1.526,1.16-3.906,1.16-7.133v-3.438C148.543,22.434,148.392,20.532,148.106,19.161
		 M143.618,28.024c0,1.578-0.067,2.825-0.197,3.725c-0.127,0.897-0.346,1.53-0.653,1.904c-0.308,0.371-0.719,0.568-1.232,0.568
		c-0.407,0-0.777-0.096-1.116-0.284c-0.349-0.197-0.621-0.479-0.833-0.854V20.759c0.158-0.591,0.44-1.072,0.855-1.454
		c0.394-0.375,0.832-0.563,1.302-0.563c0.493,0,0.889,0.191,1.15,0.583c0.271,0.39,0.459,1.042,0.569,1.966
		c0.109,0.924,0.155,2.228,0.155,3.93V28.024z"/>
</g>
</svg>
